<svg xmlns="http://www.w3.org/2000/svg" width="73.065" height="76.905" viewBox="0 0 73.065 76.905">
  <g id="Group_10" data-name="Group 10" transform="translate(-202.184 -134.599)">
    <path id="Path_14" data-name="Path 14" d="M236.809,211.543H211.7l-9.514-15.948h34.625a22.493,22.493,0,0,0,0-44.986H202.184l9.514-15.948h25.11a38.441,38.441,0,0,1,0,76.882Z" transform="translate(0 -0.038)" fill="#3761e6"/>
    <path id="Path_15" data-name="Path 15" d="M202.185,293h0l9.208,15.948h0L229.418,293Z" transform="translate(0 -97.448)" opacity="0.2"/>
    <path id="Path_16" data-name="Path 16" d="M202.185,150.547h27.234L211.392,134.6h0l-9.208,15.948Z" transform="translate(0 0)" opacity="0.2"/>
    <path id="Path_17" data-name="Path 17" d="M202.184,150.547h0l9.208,15.948,3.783,6.552-3.783,6.552-9.208,15.948h0l9.208,15.948h0l9.208-15.948,12.991-22.5-12.991-22.5L211.392,134.6h0Z" transform="translate(0 0)" fill="#5a66e7"/>
  </g>
</svg>
