<svg xmlns="http://www.w3.org/2000/svg" width="230.926" height="238.678" viewBox="0 0 230.926 238.678">
  <g id="Group_567" data-name="Group 567" transform="translate(-2710.515 -138.562)">
    <g id="Group_337" data-name="Group 337" transform="translate(2710.515 138.562)">
      <g id="Group_278" data-name="Group 278" transform="translate(55.001 0)">
        <g id="Group_277" data-name="Group 277">
          <g id="Group_237" data-name="Group 237" transform="translate(22.619 163.452)">
            <g id="Group_236" data-name="Group 236" transform="translate(0 0.001)">
              <path id="Path_6085" data-name="Path 6085" d="M2980.417,794.72a15.869,15.869,0,0,1-8.015-4.5c-.288.023-4.363.207-6.275-.969-.719-.736-.574-1.973-.683-3.628a17.436,17.436,0,0,1,.169-3.327v0c0-.044.155-.921.157-.923v-.006a11.3,11.3,0,0,0,10.54-2.1,14.483,14.483,0,0,0,2.31,4.554l0,.012c5.494,4.434,7.912,2.8,9.851,7.469.32.772.243.7.243.7C2989.5,795.163,2984.556,795.571,2980.417,794.72Z" transform="translate(-2965.422 -779.269)" fill="#ab6454"/>
              <path id="Path_6086" data-name="Path 6086" d="M2980.7,813.922a15.869,15.869,0,0,1-8.015-4.5c-.288.023-4.363.207-6.275-.969a2.457,2.457,0,0,1-.58-1.575,7.687,7.687,0,0,0,2.527.883,24.107,24.107,0,0,0,4.391.223,15.848,15.848,0,0,0,8.027,4.511c2.667.558,7.338.692,8.224-1.286C2989.785,814.365,2984.839,814.773,2980.7,813.922Z" transform="translate(-2965.706 -798.471)" fill="#ab6454" opacity="0.5" style="mix-blend-mode: multiply;isolation: isolate"/>
            </g>
            <path id="Path_6087" data-name="Path 6087" d="M2977.492,781.761v.013c-2.616,4.7-8.3,5.583-11.8,1.481a17.063,17.063,0,0,1,.264-1.892,11.294,11.294,0,0,0,10.54-2.1A17.8,17.8,0,0,0,2977.492,781.761Z" transform="translate(-2965.607 -779.266)" fill="#ab6454" opacity="0.5" style="mix-blend-mode: multiply;isolation: isolate"/>
          </g>
          <g id="Group_238" data-name="Group 238" transform="translate(19.805 75.738)">
            <path id="Path_6088" data-name="Path 6088" d="M2957.425,523.141c1.71,12.661,3.634,14.753,2.049,23.409,0,.021-.021.063-.021.083-.417,2.086-1.662,5.364-1.5,9.324.146,6.32,2.572,11.651,1.216,24.979,3.254,4.505,8.76,3.567,11.576-.813a125.226,125.226,0,0,1,.3-20.188,163.267,163.267,0,0,1,4.067-25.259c5.131-20.608.667-41.821.146-43.469a41.665,41.665,0,0,0-10.8,3.9C2956.277,499.613,2954.671,504.076,2957.425,523.141Z" transform="translate(-2956.183 -491.207)" fill="#526aa1"/>
            <path id="Path_6089" data-name="Path 6089" d="M2960.787,556.2c.146,6.32,2.572,11.651,1.216,24.979,3.254,4.505,8.76,3.567,11.576-.813a2.773,2.773,0,0,1-.042-.563h-.021v.021c-.227.235-2.639,2.664-5.511,2a4.707,4.707,0,0,1-2.43-1.429c-1.764-2.008-.448-4.345-.5-9.719-.042-4.4-.943-4.69-.79-9.349a39.757,39.757,0,0,1,.688-6.039c1.088-6.212,2.837-8.725,2.837-18.866,0-13.62,3.608-13.85,3.316-23.591-.167-5.527-1.209-8.594.918-10.7a8.947,8.947,0,0,1,7.134-2.5c0-.021-.083-2.983-.1-2.983-2.167-14.087-18.594,3.973-16.645,19.148-.709,2.5-1.46,5.069-2.17,7.592,1.711,12.661,3.634,14.753,2.049,23.409,0,.021-.021.063-.021.083C2961.872,548.964,2960.787,551.506,2960.787,556.2Z" transform="translate(-2959.019 -491.452)" fill="#526aa1" opacity="0.3" style="mix-blend-mode: multiply;isolation: isolate"/>
          </g>
          <g id="Group_240" data-name="Group 240" transform="translate(2.293 173.444)">
            <g id="Group_239" data-name="Group 239">
              <path id="Path_6090" data-name="Path 6090" d="M2910.831,828.33c-.637,1.5-12.16,5.486-12.16-5.891V812.079c3.216,1.518,10.168.686,10.168.686a11.644,11.644,0,0,0-.14,3.256c.32,4.231,2.007,5.563,2.438,7.8A6.19,6.19,0,0,1,2910.831,828.33Z" transform="translate(-2898.671 -812.079)" fill="#ab6454"/>
            </g>
            <path id="Path_6091" data-name="Path 6091" d="M2910.831,847.447c-.637,1.5-12.16,5.486-12.16-5.892v-1.99c0,11.374,11.523,7.4,12.16,5.892a3.653,3.653,0,0,0,.306-2.518A6.191,6.191,0,0,1,2910.831,847.447Z" transform="translate(-2898.671 -831.196)" fill="#ab6454" opacity="0.5" style="mix-blend-mode: multiply;isolation: isolate"/>
            <path id="Path_6092" data-name="Path 6092" d="M2908.7,816.021a9.346,9.346,0,0,1-10.028-.652v-3.29c3.216,1.518,10.168.686,10.168.686A11.644,11.644,0,0,0,2908.7,816.021Z" transform="translate(-2898.671 -812.079)" fill="#ab6454" opacity="0.5" style="mix-blend-mode: multiply;isolation: isolate"/>
          </g>
          <g id="Group_242" data-name="Group 242" transform="translate(1.727 75.224)">
            <g id="Group_241" data-name="Group 241">
              <path id="Path_6093" data-name="Path 6093" d="M2900.551,590.549a9.672,9.672,0,0,0,6.862-1.189c.176-.118.876-.777.876-.938h.021a2.486,2.486,0,0,0,.417-1.377c0-32.706,8.594-62.262,12.494-77.926,3.859.271,9.49-4,11.034-15.519q.157-1.095.25-2.315c-9.407-2-22.735-3.921-29.035,3.984a10.208,10.208,0,0,0-1.814,3.317c-3.465,9.052-.286,31.486-2.127,47.14v.021c-.379,4.17-.942,4.4-1.543,9.908-1.168,11.472.771,14.5-1.126,29.473A4.737,4.737,0,0,0,2900.551,590.549Z" transform="translate(-2896.812 -489.52)" fill="#526aa1"/>
            </g>
            <path id="Path_6094" data-name="Path 6094" d="M2900.551,611.161c2.6.417,6.21.043,7.718-2.065.021-.021.021-.042.042-.062h-.021c-.9.209-6.529,1.251-7.112-5.632-.668-7.8,3.024-23.215,4.359-30.766a141.154,141.154,0,0,0,1.877-25.531c-.229-6.758-.959-11.284,1.731-16.061,2.858-5.069,7.968-7.613,11.827-8.969-6.654,1.544-13.266.25-19.315-2.878-.021-.021-.062-.021-.083-.042-3.5,10.82.245,39.01-2.628,51.29-2.844,12.3.06,18.361-2.086,35.292A4.737,4.737,0,0,0,2900.551,611.161Z" transform="translate(-2896.812 -510.131)" fill="#526aa1" opacity="0.3" style="mix-blend-mode: multiply;isolation: isolate"/>
          </g>
          <g id="Group_246" data-name="Group 246" transform="translate(29.407 27.098)">
            <g id="Group_245" data-name="Group 245">
              <g id="Group_244" data-name="Group 244">
                <g id="Group_243" data-name="Group 243">
                  <path id="Path_6095" data-name="Path 6095" d="M2987.716,331.471q1.141,7.755,2.191,15.722.815,6.193,1.542,12.277c2.593,6.42,6.023,12.777,7.71,14.59v0c1.38.7,3.213,1.579,5.4,2.526,9.427,4.075,23.9,8.633,25.173,6.336.826-1.487-3.548-6.452-23.44-20.486-3.256-11.588-3.043-22.15-7.241-26.706a13.1,13.1,0,0,0-6.866-3.6A25.427,25.427,0,0,0,2987.716,331.471Z" transform="translate(-2987.716 -331.471)" fill="#fa5b50"/>
                </g>
                <path id="Path_6096" data-name="Path 6096" d="M3003.176,373.848c-1.435,6.856-3.075,14.653-3.2,15.095.821,2.033,2.347,5.4,2.695,6.1,1.985,4.007,3.857,7.241,5.015,8.486v0l.009,0c3.28,1.557,8.118.912,15.322-3.816l-13.626-2.1a47.451,47.451,0,0,1-.667-8.576,74.241,74.241,0,0,0,0-9.981c-.115-1.237-.258-2.252-.364-2.928Z" transform="translate(-2996.244 -360.944)" fill="#dd4c42"/>
              </g>
            </g>
          </g>
          <g id="Group_248" data-name="Group 248" transform="translate(3.266 26.931)">
            <g id="Group_247" data-name="Group 247">
              <path id="Path_6097" data-name="Path 6097" d="M2902.758,338.428a31.729,31.729,0,0,1,11.265-5.9c5.864-1.407,12.516-2.376,18.46-.772,5.343,1.413,8.155,2.149,7.947,14.851a139.525,139.525,0,0,1-2.42,22.8c.083.021-.063,5.569.083,10.617.063,2.107,1.757,7.871,1.737,7.892-.618.4-1.3.8-2.042,1.19-9.072,5.406-25.905,5.095-32.955,1.5h-.016c-.106-.062-.557-.224-.634-.356-1.374-22.336,3.656-22.147-.678-40.4a5.118,5.118,0,0,1,.1-.674c-.157-.474-.322-.96-.494-1.461-.022-.262-.982-3.091-.982-3.091C2901.59,343.267,2901.924,339.054,2902.758,338.428Z" transform="translate(-2901.868 -330.925)" fill="#fa5b50"/>
              <path id="Path_6098" data-name="Path 6098" d="M2947.072,345.483c-3.063-6.014-6.016-5.761-5.992-10.911,1.043-.25,2.128-.5,3.233-.709,1.084,2.294,6.987,6.55,7.2,6.362l.735,1.812a5.512,5.512,0,0,0-1.006-.644c-.858.865-1.731,1.725-2.608,2.581,2.236,5.67,5.323,13.516,5.323,13.516l1.208-.107s.783-10.208,1.252-16.109c-1.222.186-4.168.764-4.168.764a14.2,14.2,0,0,0,3.558-6.024l3.963,6.255s-1.336-.5-2.178-.811c-.458,5.43-.948,10.86-1.409,16.29l.325-.044v.484l2.613-.341.258,7.1-8.91.993-.537-6.9,2.819-.368-.054-.464.233-.031-5.177-13.355C2947.523,345.046,2947.3,345.266,2947.072,345.483Z" transform="translate(-2929.14 -332.968)" fill="#dd4c42"/>
              <path id="Path_6099" data-name="Path 6099" d="M2907.921,415.08c.077.132.528.294.634.356h.016c7.215,3.676,24.681,3.919,33.583-1.889a.053.053,0,0,1,.032-.019c.432-.329,1.194-.728,1.166-.786l-23.136-19.472c-1.419-13.724-4.883-20.42-6.861-23.44-2.1-3.2-3.183-3.278-3.636-3.188-2.072.41-2.412,6.526-2.478,8.035C2911.578,392.932,2906.547,392.744,2907.921,415.08Z" transform="translate(-2905.606 -355.751)" fill="#dd4c42"/>
            </g>
          </g>
          <g id="Group_261" data-name="Group 261" transform="translate(13.506)">
            <g id="Group_253" data-name="Group 253">
              <g id="Group_249" data-name="Group 249" transform="translate(2.18 17.23)">
                <path id="Path_6100" data-name="Path 6100" d="M2945.472,306.574a10.8,10.8,0,0,0-.385,2.764,3.069,3.069,0,0,0,.114.823c.533,2.209,6.338,6.3,8.135,7.676,2.482-3.046,3.876-5.386,3.525-8.594-.1-.858-.447-2.286-.042-3.045a.33.33,0,0,0,.083-.292c-.083-.125-.459-.1-1.356-.209a19.718,19.718,0,0,1-4.3-1.084c-2.951-1.191-3.4-4.146-8.594-5.549,2.564,1.727,3,3.362,3.1,4.129A9.71,9.71,0,0,1,2945.472,306.574Z" transform="translate(-2942.656 -299.065)" fill="#ffcfcd"/>
                <path id="Path_6101" data-name="Path 6101" d="M2945.472,306.574a10.8,10.8,0,0,0-.385,2.764,3.069,3.069,0,0,0,.114.823c.533,2.209,6.338,6.3,8.135,7.676,2.482-3.046,3.876-5.386,3.525-8.594-.1-.858-.447-2.286-.042-3.045a.33.33,0,0,0,.083-.292c-.083-.125-.459-.1-1.356-.209a19.718,19.718,0,0,1-4.3-1.084c-2.951-1.191-3.4-4.146-8.594-5.549,2.564,1.727,3,3.362,3.1,4.129A9.71,9.71,0,0,1,2945.472,306.574Z" transform="translate(-2942.656 -299.065)" fill="#ffcfcd" opacity="0.5" style="mix-blend-mode: multiply;isolation: isolate"/>
              </g>
              <g id="Group_251" data-name="Group 251" transform="translate(12.864 26.154)">
                <path id="Path_6102" data-name="Path 6102" d="M2992.668,338.455a5.408,5.408,0,0,0-1.505-1.688,5.182,5.182,0,0,0-1.049-.684h-.046V335.9a12.927,12.927,0,0,0-1.688-5.977,8.846,8.846,0,0,0,.091-1.551C2992.9,330.425,2992.668,334.486,2992.668,338.455Z" transform="translate(-2985.141 -328.372)" fill="#e0e5f6"/>
                <g id="Group_250" data-name="Group 250" transform="translate(0 1.551)">
                  <path id="Path_6103" data-name="Path 6103" d="M2982.715,339.626h-.046c0,.046,0,.046-.046.046-1,.547-4.106,1.505-4.882,2.1a13.757,13.757,0,0,0,2.236-3.787,13.609,13.609,0,0,0,1-4.517A7.494,7.494,0,0,1,2982.715,339.626Z" transform="translate(-2977.742 -333.466)" fill="#b3bad3"/>
                </g>
              </g>
              <g id="Group_252" data-name="Group 252">
                <path id="Path_6104" data-name="Path 6104" d="M2938.844,250.126c3.47-5.111,14.073-6.157,17.307,1.076.586,1.31,1.282,7.955,1.363,9.345a25.937,25.937,0,0,1-1.23,10.292c-1.636.79-2.1.264-4.272.714a7.148,7.148,0,0,1-2.753-.645,11.556,11.556,0,0,1-2.23-.507,11.073,11.073,0,0,1-3.553-1.951,7.962,7.962,0,0,1-1.164-1.2c-.51-.839-.437-1.5-1.027-1.826-.308-.167-.436-.045-.924-.167a3.727,3.727,0,0,1-1.549-.992,3.125,3.125,0,0,1-.46-.605,1.989,1.989,0,0,1-.785-.994,9.07,9.07,0,0,1-.472-2.866,10.286,10.286,0,0,1-.917-1.98C2935.975,257.232,2936.595,253.439,2938.844,250.126Z" transform="translate(-2935.945 -244.953)" fill="#ffcfcd"/>
                <path id="Path_6105" data-name="Path 6105" d="M2940.829,260.086a6.247,6.247,0,0,0,1.218,4.754,3.728,3.728,0,0,0,1.549.992c.488.122.616,0,.924.167.591.322.517.987,1.027,1.826a7.973,7.973,0,0,0,1.164,1.2,11.073,11.073,0,0,0,3.553,1.951,25.1,25.1,0,0,0,4.264.794,25.752,25.752,0,0,0-3.325-2.156c-1.524-.826-2.111-.939-2.716-1.739-1.572-2.077-.684-4.3-1.047-6.815-.23-1.592-.859-2.071-.644-3.157a8.418,8.418,0,0,1,1.56-2.916,11.087,11.087,0,0,1,1.322-1.786c2.025-1.727,5.231-.479,5.574-1.394.075-.2.042-.582-.762-1.346-.359-.927-1.291-2.9-3.132-3.457-3.491-1.051-7.094,3.955-7.246,4.24A32.072,32.072,0,0,0,2940.829,260.086Z" transform="translate(-2939.182 -245.524)" fill="#ffcfcd" opacity="0.5" style="mix-blend-mode: multiply;isolation: isolate"/>
                <path id="Path_6106" data-name="Path 6106" d="M2940.179,244.295a11.5,11.5,0,0,1,13.65.929,10.726,10.726,0,0,1,2.357,3.459c1.412,3.315.879,6.8.685,6.81a6.258,6.258,0,0,1-.283-1.219c-.15-.641-1.35-5.831-3.26-5.977-.482-.037-.439.29-1.307.572-1.607.52-2.441-.379-4.407-.238a4.486,4.486,0,0,0-2.333.639c-1.044.693-.931,1.466-2.658,3.728a5.894,5.894,0,0,0-.758,1.118c-.431,1.012.074,1.919.455,3.283.8,2.883-.26,3.476.714,5.119a6.276,6.276,0,0,0,2.44,2.153c.991.588,1.882,1.118,2.91.86a2.947,2.947,0,0,0,1.67-1.288,3.867,3.867,0,0,1,4.749-2c.475.156.668.331,1.019.28.653-.1,1.089-.864,1.365-1.545.032,2.921-.189,1.987-.4,4.074-.2,1.966.074,2.954-1.768,3.887a7.763,7.763,0,0,1-4.832.537c-1.838-.258-3.118-.935-5.695-2.284-2.594-1.575-3.292-2.357-3.428-4.193-.076-1.024-.227-4.818-1.09-5.374a1.692,1.692,0,0,0-1.825.122c-.973.741-.792,2.85.254,4.038a3.513,3.513,0,0,0,2.161,1.095,5.72,5.72,0,0,1,.228,1.036,6.316,6.316,0,0,1,.036,1.054c-.01.286-.034.527-.057.708a5.684,5.684,0,0,0-2.136-2.692c-1.654-1.164-2.663-4.942-2.716-5.145C2935.262,255.312,2934.627,248,2940.179,244.295Z" transform="translate(-2935.497 -242.481)" fill="#733639"/>
                <path id="Path_6107" data-name="Path 6107" d="M2991.1,310.431c-.24-.758-1.255-.945-1.8-.93-.947.026-2.653,1.108-2.463,2.065a1.34,1.34,0,0,0,1.463.968c.49-.148.463-.8.969-.921s.765.447,1.2.318A1.275,1.275,0,0,0,2991.1,310.431Z" transform="translate(-2971.194 -289.093)" fill="#ffcfcd"/>
              </g>
            </g>
            <g id="Group_260" data-name="Group 260" transform="translate(1.949 25.12)">
              <g id="Group_259" data-name="Group 259">
                <g id="Group_258" data-name="Group 258">
                  <g id="Group_257" data-name="Group 257">
                    <g id="Group_255" data-name="Group 255" transform="translate(5.759 8.745)">
                      <path id="Path_6108" data-name="Path 6108" d="M2971.988,354.379c-.5,5.977-1.049,11.954-1.551,17.931l-2.783.137-6.844-17.657c.365-.046.73-.091,1.141-.137,2.145,5.429,6.369,16.165,6.369,16.165l1.208-.107s.864-11.267,1.32-16.97c.046,0,.046,0,.046-.046h.045A5.168,5.168,0,0,1,2971.988,354.379Z" transform="translate(-2960.81 -353.695)" fill="#733639"/>
                      <path id="Path_6109" data-name="Path 6109" d="M2972.25,412.3l.537,6.9,8.91-.993-.258-7.1Z" transform="translate(-2968.767 -393.621)" fill="#e0e5f6"/>
                      <path id="Path_6110" data-name="Path 6110" d="M2974.924,415.082l.444,5.311,7.375-.765-.214-5.47Z" transform="translate(-2970.626 -395.747)" fill="#fff"/>
                      <g id="Group_254" data-name="Group 254" transform="translate(5.21 19.771)">
                        <path id="Path_6111" data-name="Path 6111" d="M2988.531,419.022l.084.713,2.894-.4v-.713Z" transform="translate(-2985.3 -418.624)" fill="#e0e5f6"/>
                        <path id="Path_6112" data-name="Path 6112" d="M2988.531,422.6l.084.713,2.894-.4V422.2Z" transform="translate(-2985.3 -421.114)" fill="#e0e5f6"/>
                        <path id="Path_6113" data-name="Path 6113" d="M2988.531,426.184l.084.713,2.894-.4v-.713Z" transform="translate(-2985.3 -423.605)" fill="#e0e5f6"/>
                        <path id="Path_6114" data-name="Path 6114" d="M2977.92,420.243l.2,3.012,2.5-.2-.343-3.017Z" transform="translate(-2977.92 -419.605)" fill="#e0e5f6"/>
                      </g>
                      <path id="Path_6115" data-name="Path 6115" d="M2981.329,411.142l.107.913,3.7-.51v-.913Z" transform="translate(-2975.081 -393.295)" fill="#e0e5f6"/>
                    </g>
                    <g id="Group_256" data-name="Group 256">
                      <path id="Path_6116" data-name="Path 6116" d="M2973.272,354.73l.739,1.82-1.634-1.232Z" transform="translate(-2963.096 -345.67)" fill="#b3bad3"/>
                      <path id="Path_6117" data-name="Path 6117" d="M2952.074,334.036c-1.449,1.457-2.726,2.737-4.3,4.31-3.524-5.4-5.515-6.152-5.873-10.329a3.9,3.9,0,0,1,2.953-3.04s.034-.077.052,1.08a4.345,4.345,0,0,0,.541,1.572C2945.94,328.549,2948.341,331.038,2952.074,334.036Z" transform="translate(-2941.898 -324.976)" fill="#e0e5f6"/>
                    </g>
                  </g>
                </g>
              </g>
            </g>
          </g>
          <g id="Group_263" data-name="Group 263" transform="translate(30.901 56.401)">
            <g id="Group_262" data-name="Group 262">
              <path id="Path_6118" data-name="Path 6118" d="M2992.623,498l24.53,14.255.094-.054-.02-.012L3041.8,498c-5.819-3.413.7.387-24.489-14.251Z" transform="translate(-2992.623 -466.683)" fill="#c49a6c" style="mix-blend-mode: screen;isolation: isolate"/>
              <path id="Path_6119" data-name="Path 6119" d="M2992.627,441.964c1.329.778,3.113,1.824,5.26,3.07h0c5.42,3.163,10,5.766,19.267,11.186l.094-.055-.02-.011,24.575-14.193c-5.328-3.134-5.354-3.123-24.49-14.256C3017.313,427.709,2992.63,441.964,2992.627,441.964Z" transform="translate(-2992.626 -427.706)" fill="#feca50"/>
              <path id="Path_6120" data-name="Path 6120" d="M2992.642,458.132c11.877,6.918,14.5,8.317,24.536,14.249,11.666-6.763,5.661-3.305,12.438-7.2-10.436-6.161-15.069-8.74-24.493-14.27C3005.123,450.912,2994.063,457.322,2992.642,458.132Z" transform="translate(-2992.636 -443.846)" fill="#ffd779"/>
              <path id="Path_6121" data-name="Path 6121" d="M2992.628,474.535l24.51,31.305V488.778c-4.405-2.593-7.982-4.667-10.474-6.1-2.019-1.164-3.135-1.8-5.474-3.152C2997.541,477.413,2994.581,475.682,2992.628,474.535Z" transform="translate(-2992.626 -460.275)" fill="#feca50"/>
              <path id="Path_6122" data-name="Path 6122" d="M3007.066,500.449a67.5,67.5,0,0,1,8.266.8,2.4,2.4,0,0,1,1.715.965,1.645,1.645,0,0,1-.072,1.786c-.26.281-.554.234-.572.357-.071.492,4.665.842,5.145,2.62.117.434.022,1.1-.929,2.132a1.706,1.706,0,0,1,1.215,1.751,1.742,1.742,0,0,1-.929,1.251,2.015,2.015,0,0,1,.179,1.536,2.065,2.065,0,0,1-1.251,1.286,1.5,1.5,0,0,1,.143,1.334c-.4.633-1.774.383-2.478.249a16.056,16.056,0,0,1-11.279-7.943,7.857,7.857,0,0,1-.929-4.252A7.1,7.1,0,0,1,3007.066,500.449Z" transform="translate(-3001.414 -478.299)" fill="#f2b94e"/>
              <path id="Path_6123" data-name="Path 6123" d="M2992.627,474.541V491.6l8.561,4.982,5.474,3.173.846.492,2.45,1.424,7.184,4.176-.006-.009-1.538-1.961-5.657-7.221-2.453-3.13-.826-1.055-3.6-4.614-1.87-2.393-5.348-6.826Z" transform="translate(-2992.626 -460.279)" fill="#f2b94e"/>
              <path id="Path_6124" data-name="Path 6124" d="M3073.12,505.669v.163l24.669-14.247V474.522l-.128.074C3096.917,475.989,3073.755,504.485,3073.12,505.669Z" transform="translate(-3048.609 -460.266)" fill="#dca43a"/>
              <path id="Path_6125" data-name="Path 6125" d="M3073.12,488.769v17.062c.2-.377,24.456-30.91,24.669-31.309C3097.5,474.689,3073.406,488.6,3073.12,488.769Z" transform="translate(-3048.609 -460.266)" fill="#f2b94e"/>
            </g>
          </g>
          <g id="Group_276" data-name="Group 276" transform="translate(0 32.577)">
            <g id="Group_275" data-name="Group 275">
              <g id="Group_274" data-name="Group 274">
                <g id="Group_270" data-name="Group 270" transform="translate(31.938 46.248)">
                  <g id="Group_269" data-name="Group 269">
                    <g id="Group_268" data-name="Group 268">
                      <g id="Group_267" data-name="Group 267">
                        <g id="Group_266" data-name="Group 266">
                          <g id="Group_265" data-name="Group 265" transform="translate(0.443)">
                            <g id="Group_264" data-name="Group 264">
                              <path id="Path_6126" data-name="Path 6126" d="M3015.073,507.625a1.1,1.1,0,0,1-.116,1.192c-.358.344-1.5.241-2.015.144-2.481-.911-3.477-1.257-3.542-1.15-.083.214,2.3,1.856,3.694,2.216.983.248,1.607.058,2.164.593.3.278.579.751.431,1.071-.248.533-1.726.28-2.456.162-1.762-.3-4.077-1.549-4.162-1.408a13.886,13.886,0,0,0,3.765,2.375c1.192.458,1.961.381,2.041.717.1.382-.619,1.013-1.463,1.175-2.321.409-4.964-2.107-5.072-1.951a4.04,4.04,0,0,0,1.5,1.353c1.342.845,2.3.935,2.352,1.379.049.307-.413.628-.809.76-1.087.365-2.134-.438-4.77-1.718-1.667-.809-1.4-.538-2.249-1.01a30.49,30.49,0,0,1-4.015-2.989c-.6-.46-1.511-1.129-2.687-1.883a.007.007,0,0,0-.01,0,6.9,6.9,0,0,1,.489-4.491,6.8,6.8,0,0,1,2.39-2.711h.009a.4.4,0,0,1,0-.083.029.029,0,0,0,.006-.016.986.986,0,0,0,.1,0c.016,0,.026,0,.043,0a.053.053,0,0,1,.024.006c.9-.012,1.424.316,2.33.373l0,0a43.613,43.613,0,0,1,7.959.877c.293.419.529.872.362,1.179C3011.016,504.451,3002.882,503.276,3015.073,507.625Z" transform="translate(-2997.481 -501.345)" fill="#ffcfcd"/>
                            </g>
                          </g>
                          <path id="Path_6127" data-name="Path 6127" d="M3002.035,501.725c-.1.071-.252.175-.422.311a7.6,7.6,0,0,0-2.345,3.408,10.556,10.556,0,0,0-.5,3.162,3.722,3.722,0,0,0,.225,1.33,2.268,2.268,0,0,0,.343.6c-.6-.46-1.511-1.129-2.687-1.883a.007.007,0,0,0-.01,0,5.342,5.342,0,0,1-.08-4.762,5.13,5.13,0,0,1,2.96-2.441h.009a.419.419,0,0,1,0-.083.03.03,0,0,0,.006-.016.982.982,0,0,0,.1,0c.016,0,.027,0,.043,0a.051.051,0,0,1,.024.006C3000.6,501.339,3001.129,501.668,3002.035,501.725Z" transform="translate(-2996.027 -501.345)" fill="#ffcfcd" opacity="0.5" style="mix-blend-mode: multiply;isolation: isolate"/>
                        </g>
                      </g>
                    </g>
                  </g>
                </g>
                <g id="Group_273" data-name="Group 273" transform="translate(31.434 45.74)">
                  <g id="Group_272" data-name="Group 272">
                    <g id="Group_271" data-name="Group 271">
                      <path id="Path_6128" data-name="Path 6128" d="M2994.408,507.557l.29.118,2.458.991a11.967,11.967,0,0,1,2.682-8.314,10.93,10.93,0,0,1-2.128-.678C2995.45,501.927,2994.16,506.126,2994.408,507.557Z" transform="translate(-2994.376 -499.675)" fill="#fff"/>
                      <path id="Path_6129" data-name="Path 6129" d="M2994.4,508.038l.008,0a1.012,1.012,0,0,1,.283.116s.507.2,1.156.467a16.448,16.448,0,0,1,.525-4.38c.434-1.057,2.052-3.309,2.133-3.876-.209.235-2.119,2.5-3.444,4.184A8.5,8.5,0,0,0,2994.4,508.038Z" transform="translate(-2994.373 -500.156)" fill="#e0e5f6"/>
                    </g>
                  </g>
                </g>
                <path id="Path_6130" data-name="Path 6130" d="M2923.507,404.008c-.534-2.8,1.243-6.345,3.181-8.5l.006-.009.01.006a5.326,5.326,0,0,1,.419-.455c-7.463-2.251-19.655-12.457-19.655-12.457-3.913-11.832-.338-16.527-9.525-33.132-8.081,4.582-7.211,10.395-6.074,16.437,0,0,3.468,18.438,6.427,22.326a14.054,14.054,0,0,0,1.491,1.638,10.427,10.427,0,0,0,.859.715A115.269,115.269,0,0,0,2923.507,404.008Z" transform="translate(-2891.142 -349.464)" fill="#fa5b50"/>
              </g>
            </g>
          </g>
        </g>
      </g>
      <g id="Group_285" data-name="Group 285" transform="translate(0 74.368)">
        <path id="Path_6131" data-name="Path 6131" d="M2710.515,730.43l58.416,33.687,11.061.624s69.865-40.764,132.974-77.324c-26.567-15.3-35.548-20.521-64.5-37.2Z" transform="translate(-2710.515 -600.432)" fill="#fcede6"/>
        <g id="Group_284" data-name="Group 284" transform="translate(34.322)">
          <g id="Group_283" data-name="Group 283">
            <g id="Group_282" data-name="Group 282">
              <g id="Group_281" data-name="Group 281">
                <path id="Path_6132" data-name="Path 6132" d="M2938.631,630.638l.015,66.581c1.49-.861,2.939-1.7,4.361-2.521v-2.341c44.589-25.815,78.334-45.679,126.607-73.628l2.005,1.166,2.851-1.667,0-65.092C3023.481,582.658,2985.726,603.37,2938.631,630.638Z" transform="translate(-2903.491 -532.91)" fill="#f9c893" fill-rule="evenodd"/>
                <g id="Group_279" data-name="Group 279" transform="translate(39.517 27.397)">
                  <path id="Path_6133" data-name="Path 6133" d="M2953,650.059c0,3.439,0,35.95.012,58.673,69.639-40.233,59.312-34.29,128.6-74.8V576.682C3033.344,604.631,2997.594,624.244,2953,650.059Z" transform="translate(-2953.005 -576.682)" fill="#817dc7" fill-rule="evenodd"/>
                </g>
                <path id="Path_6134" data-name="Path 6134" d="M2953,663.747l.014,56.142c67.394-38.937,59.713-34.517,124.531-72.419V592.723C3030.751,619.817,2995.722,639.075,2953,663.747Z" transform="translate(-2913.485 -560.442)" fill="#938fe1" fill-rule="evenodd"/>
                <g id="Group_280" data-name="Group 280" transform="translate(44.209 62.27)">
                  <path id="Path_6135" data-name="Path 6135" d="M3088.266,696.429c-32.193,18.586-101.37,58.59-108.425,62.661l.017,5.874-11.443-1.89L2979.809,748l.017,5.874c61.051-35.243,64.732-37.431,108.44-62.67Z" transform="translate(-2968.415 -691.206)" fill="#fff"/>
                </g>
                <path id="Path_6136" data-name="Path 6136" d="M3368.789,577.842V635.1l2.005,1.166V576.682Z" transform="translate(-3202.665 -549.285)" fill="#f2b776" fill-rule="evenodd"/>
                <path id="Path_6137" data-name="Path 6137" d="M2858.4,831.445l-.013-66.579-35.138-18.736v65.089Z" transform="translate(-2823.24 -667.136)" fill="#f2b776" fill-rule="evenodd"/>
                <path id="Path_6138" data-name="Path 6138" d="M2994.208,506.936c-29.725,17.44-6.543,3.944-135.822,78.99L2823.229,565.7l135.829-78.99Z" transform="translate(-2823.229 -486.709)" fill="#fff1d4" fill-rule="evenodd"/>
              </g>
            </g>
          </g>
        </g>
      </g>
      <g id="Group_315" data-name="Group 315" transform="translate(148.588 17.362)">
        <path id="Path_6139" data-name="Path 6139" d="M3272.055,851.307c14.538.72,36.692-5,36.591-19.73-.113-17.345-35.81-26.134-56.781-13.775C3231.736,829.666,3244.453,849.94,3272.055,851.307Z" transform="translate(-3228.763 -655.957)" fill="#fcede6"/>
        <g id="Group_314" data-name="Group 314">
          <g id="Group_295" data-name="Group 295" transform="translate(19.393 83.397)">
            <g id="Group_292" data-name="Group 292" transform="translate(0 77.213)">
              <g id="Group_288" data-name="Group 288" transform="translate(33.86)">
                <g id="Group_287" data-name="Group 287">
                  <g id="Group_286" data-name="Group 286">
                    <path id="Path_6140" data-name="Path 6140" d="M3374.833,834.919c.7,1.533,1.933,1.7,3.433,2.3a9.5,9.5,0,0,1,3,2.033c2.366,1.966,1.833,2.866,3.5,3.966,3.9,2.666,8.065.033,8.065-2.233,1.834-9.157-15.464-17.375-19-12.665l-.033.034c-.034,0-.1.033-.1.133C3372.8,830.054,3373.933,833.186,3374.833,834.919Z" transform="translate(-3373.37 -826.95)" fill="#ab6454"/>
                  </g>
                </g>
                <path id="Path_6141" data-name="Path 6141" d="M3374.833,838.43c.7,1.533,1.933,1.7,3.433,2.3a9.5,9.5,0,0,1,3,2.033c2.366,1.966,1.833,2.866,3.5,3.966,3.9,2.666,8.065.033,8.065-2.233-1.166,2.366-4.666,3.266-7.766,1.266-1.633-1.1-1.1-2-3.5-4a10.232,10.232,0,0,0-2.966-2,7.3,7.3,0,0,1-2.766-1.333c-1.533-1.533-2.366-5.666-2.133-6.432C3372.8,833.565,3373.933,836.7,3374.833,838.43Z" transform="translate(-3373.37 -830.461)" fill="#ab6454" opacity="0.5" style="mix-blend-mode: multiply;isolation: isolate"/>
              </g>
              <g id="Group_291" data-name="Group 291" transform="translate(0 12.525)">
                <g id="Group_290" data-name="Group 290">
                  <g id="Group_289" data-name="Group 289">
                    <path id="Path_6142" data-name="Path 6142" d="M3265.4,879.449a95.516,95.516,0,0,0,18.078,2.885c2.3.167,6.666-.633,8.1-2.633.733-1,.867-2.766.833-4.332a15.4,15.4,0,0,0-.133-2.066,11.537,11.537,0,0,0-.267-1.833c-.033-.067-.033-.133-.067-.2-1.671-5.761-15.163-2.327-20.877-.385-4.55,1.532-7.562,2.078-8.665,4.832C3261.564,877.916,3263.164,878.916,3265.4,879.449Z" transform="translate(-3262.173 -868.084)" fill="#ab6454"/>
                  </g>
                  <path id="Path_6143" data-name="Path 6143" d="M3265.4,896.088a95.511,95.511,0,0,0,18.078,2.885c2.3.167,6.666-.633,8.1-2.633.733-1,.867-2.766.833-4.332a4.086,4.086,0,0,1-2.733,4.233,15.468,15.468,0,0,1-6.066,1.133,102.068,102.068,0,0,1-18.111-2.885c-1.233-.333-2.833-.867-3.1-2.133C3261.564,894.555,3263.164,895.555,3265.4,896.088Z" transform="translate(-3262.173 -884.723)" fill="#ab6454" opacity="0.5" style="mix-blend-mode: multiply;isolation: isolate"/>
                </g>
              </g>
            </g>
            <g id="Group_294" data-name="Group 294" transform="translate(17.202)">
              <g id="Group_293" data-name="Group 293">
                <path id="Path_6144" data-name="Path 6144" d="M3319.6,664.5a7.361,7.361,0,0,0,5.354,3.859c2.015.287,4.232-1.041,5.72-2.4,0,0,0,0,0,0a4.745,4.745,0,0,0,.609-.626l0,0c-.513-15.518.682-20.28,1.735-41.3,1-3.579,2.59-8.99,3.519-12.589,1.22-4.731,2.4-9.293,3.244-11.574-.131,8.453.893,14.436,2.947,22.771.243,5.245,2.064,29.4,2.484,34.66-.286,3.425,3.33,5.22,5.168,5.168a6.565,6.565,0,0,0,3.971-1.395,2.6,2.6,0,0,0,.435-.672c.009-.111.091-1.689.1-1.827,0-15.5,2.644-26.1,1.006-38.822-.477-21.882,4.071-37.636,1.155-45.637V574.1c-.04-.109-.08-.217-.123-.323,0,0,0-.009,0-.011-2.07-1.775-24.138,3.11-26.773,3.11a9.337,9.337,0,0,1-7.535-3.353l-.009-.008c-.956,3.195-1.688,6.207-2.207,8.9-.009.047-.128.652-.134.7a92.182,92.182,0,0,0-1.312,10.631c0,.02-.02.04,0,.08-.313,5.4-.23,7.486-.08,28.886C3317.958,645.314,3320.8,649.274,3319.6,664.5Z" transform="translate(-3318.683 -573.378)" fill="#526aa1"/>
                <path id="Path_6145" data-name="Path 6145" d="M3319.282,645.646a114.648,114.648,0,0,1,.3,18.878,7.306,7.306,0,0,0,5.734,3.885c1.9.1,4.027-1.213,5.346-2.438,0,0,0,0,0,0a4.875,4.875,0,0,0,.62-.629l-.011,0c-1.772.555-4.577,1.12-6.495-.309-2.49-1.855-2.127-6.066-1.964-8.633.917-14.682-1.175-32.759-.438-41.721a21.452,21.452,0,0,1,1.381-5.994c2.756-7.189.866-16.843,6.209-20.988,3.016-2.341,4.248.243,11.588-1.818,7.807-2.193,16.36-7.91,15.493-11.712a.237.237,0,0,0-.011-.048c0-2.323-18.809,1.621-25.2,2.593-.32.049-.6.089-.844.12-.046.005-.089.011-.132.014a5.073,5.073,0,0,1-.583.046c-.046,0-.089,0-.134,0h-.009a10.336,10.336,0,0,1-7.535-3.353c-.74,2.461-1.338,4.788-1.827,7.009q-.21.952-.389,1.881c-.037.189-.074.378-.108.563a1.128,1.128,0,0,0-.026.137,83.952,83.952,0,0,0-1.206,9.21c-.518,6.786-.229,12.961-.229,19.779C3319.108,623.31,3318.042,634.987,3319.282,645.646Z" transform="translate(-3318.666 -573.393)" fill="#526aa1" opacity="0.3" style="mix-blend-mode: multiply;isolation: isolate"/>
                <path id="Path_6146" data-name="Path 6146" d="M3387.946,636.054c0,.414.005.818.014,1.212.112,6.332.936,10.416,2.335,16.605v.083c.02.06.626,2.764.666,2.764.11,4.8,2.248,32.441,2.424,34.64-.287,3.424,3.33,5.221,5.169,5.168a6.562,6.562,0,0,0,3.97-1.395,2.6,2.6,0,0,0,.435-.672c.009-.112.09-1.688.1-1.827-.918.469-2.636,1.095-3.939.566-4.194-1.7-.872-14.69-5.72-43.233-.451-2.67-1.4-10.634-.96-12.866.895-4.565,4.162-6.56,3.876-14.739-.646,2.2-5.108,9.264-6.2,10.053-.889.646-1.635,1.169-2.161,1.512C3387.943,634.667,3387.94,635.373,3387.946,636.054Z" transform="translate(-3366.848 -607.445)" fill="#526aa1" opacity="0.3" style="mix-blend-mode: multiply;isolation: isolate"/>
              </g>
            </g>
          </g>
          <g id="Group_299" data-name="Group 299" transform="translate(37.803 26.415)">
            <g id="Group_298" data-name="Group 298">
              <g id="Group_296" data-name="Group 296" transform="translate(30.849 4.562)">
                <path id="Path_6147" data-name="Path 6147" d="M3433.106,401.23q.47,1.186.94,2.373,1.69,9.835,3.38,19.67a14.026,14.026,0,0,1-1.859,9.7l-7.35,12.014-4.274-9.908Z" transform="translate(-3423.944 -401.23)" fill="#dd4c42"/>
              </g>
              <path id="Path_6148" data-name="Path 6148" d="M3322.633,451.409c.649.263,1.292.506,1.918.746h.02A41.036,41.036,0,0,0,3360.826,448c-3.213-12.532-2.118-21.636-.4-27.777,0,0,4.374-15.656,3.29-26a8.973,8.973,0,0,0-7.432-7.873,10.423,10.423,0,0,0-5.285.789c-.286,0-8.772,3.287-13.8,5.548a55.047,55.047,0,0,0-12.052,7.084,4.454,4.454,0,0,0-1.318,1.624,4.374,4.374,0,0,0-.357,2.112c.1,1.766.931,11.475,1.341,24.872a.134.134,0,0,0,0,.123C3324.87,432.225,3323.15,448.641,3322.633,451.409Z" transform="translate(-3322.633 -386.247)" fill="#fa5b50"/>
              <g id="Group_297" data-name="Group 297" transform="translate(0 18.947)">
                <path id="Path_6149" data-name="Path 6149" d="M3322.633,494.685c.546.223,1.192.486,1.918.749h.02a43.634,43.634,0,0,0,8.641,2.1v-.02l.052.026a41.143,41.143,0,0,0,27.562-6.263c-1.038.5-17.618,6.034-26.2,1.12-6.915-3.956-3.035-12.086-.282-35.489.417-3.533.778-7.106-1-8.147-1.283-.752-3.187.115-4.408.829a58.657,58.657,0,0,0-5.009,7.207c.241.985,1.031,12.048.889,14.856a.133.133,0,0,0,0,.123C3324.875,475.8,3323.075,492.466,3322.633,494.685Z" transform="translate(-3322.633 -448.469)" fill="#dd4c42"/>
              </g>
            </g>
          </g>
          <g id="Group_305" data-name="Group 305" transform="translate(0 40.683)">
            <g id="Group_303" data-name="Group 303" transform="translate(0 29.163)">
              <g id="Group_302" data-name="Group 302">
                <g id="Group_301" data-name="Group 301">
                  <g id="Group_300" data-name="Group 300">
                    <path id="Path_6150" data-name="Path 6150" d="M3203.851,534.681c.139.461-2.481-.1-2.048,1.316a1.423,1.423,0,0,0,.953.849,2.476,2.476,0,0,0,.437.045,3.234,3.234,0,0,0,1.008-.077c.426-.108.95-.283-.107.2-.225.105-.31.108-.367.2-.159.259.189.774.454,1.043a1.361,1.361,0,0,0,1.364.458,2.3,2.3,0,0,0,.84.819c.014.008.033.016.047.025a2.75,2.75,0,0,0,1.869.115c1.862-.362,4.229-1.064,5.656-1.469a21.854,21.854,0,0,1,2.284-.5q-1.211-3.982-2.413-7.966c-.324-.115-.789-.264-1.355-.405a.557.557,0,0,0-.072-.016,18.624,18.624,0,0,0-3.76-.434c-1.044-.041-3.61.161-5.176.248a.9.9,0,0,0-.7.664c-.043.39.31.7.5.872.807.72,1.391.353,1.647.575,1.1.945-1.688,1.538-3.133,1.723-2.008.256-2.975.138-3.229.746a1.061,1.061,0,0,0,.184,1.016c.27.323.749.426,2.551.256C3202.772,534.84,3203.813,534.643,3203.851,534.681Z" transform="translate(-3198.487 -528.876)" fill="#ffcfcd"/>
                  </g>
                </g>
              </g>
              <path id="Path_6151" data-name="Path 6151" d="M3224.423,540.538c.014.008.033.016.047.025a2.751,2.751,0,0,0,1.869.115c1.862-.362,4.229-1.064,5.656-1.469a21.854,21.854,0,0,1,2.284-.5q-1.211-3.982-2.413-7.966c-.324-.115-.789-.264-1.355-.405a.557.557,0,0,0-.072-.016c-.821,1.019-2.107,2.968-1.523,4.573.828,2.286,1.011,1.921.786,3.067C3229.518,538.895,3226.332,540.359,3224.423,540.538Z" transform="translate(-3216.525 -529.88)" fill="#ffcfcd" opacity="0.5" style="mix-blend-mode: multiply;isolation: isolate"/>
            </g>
            <g id="Group_304" data-name="Group 304" transform="translate(13.346)">
              <path id="Path_6152" data-name="Path 6152" d="M3245.264,471.8c3-.333,7.9-.868,14.076-1.486,4.9-.491,6.68-.688,8.143-1.154a12,12,0,0,0,1.185-.454c4.739-2.036,6.308-10.219,7.814-15.341,4.251-14.461,3.208-16.337,2.472-17.249-2.726-3.38-9.633-3.641-10.983-2.14a37.252,37.252,0,0,0-2.12,7.48c-1.24,5.59-2.566,13.547-3.379,15.42-.274.631-.746,1.466-.9,1.8a30.159,30.159,0,0,1-7.618,1.93c-2.232.35-5.564.942-10.283,1.993a10.2,10.2,0,0,0-.883,2.035,7.372,7.372,0,0,0-.416,3.263A6.075,6.075,0,0,0,3245.264,471.8Z" transform="translate(-3242.317 -433.104)" fill="#fa5b50"/>
            </g>
          </g>
          <g id="Group_313" data-name="Group 313" transform="translate(42.313)">
            <path id="Path_6153" data-name="Path 6153" d="M3369.674,395.75c5.033,4.859,13.189,1.658,13.776-2.1a3.765,3.765,0,0,0-.835-3.248C3378.763,391.827,3370.436,395.2,3369.674,395.75Z" transform="translate(-3359.86 -362.724)" fill="#dd4c42"/>
            <g id="Group_312" data-name="Group 312">
              <g id="Group_311" data-name="Group 311">
                <g id="Group_310" data-name="Group 310">
                  <g id="Group_308" data-name="Group 308" transform="translate(1.037 3.138)">
                    <g id="Group_307" data-name="Group 307">
                      <g id="Group_306" data-name="Group 306">
                        <path id="Path_6154" data-name="Path 6154" d="M3345.557,335.205c1.821,1.278,5.274-2.227,5.382,3.862,6.981,2.944,11.754-1.589,11.27-3.17-.792-2.652-1.6-4.119-1.176-6.62.6-4.134,3.061-5.916,3.033-10.123-.019-5.22-8.937-10.806-16.184-9.005a10.406,10.406,0,0,0-5.83,3.557C3338.67,318.16,3343.279,333.566,3345.557,335.205Z" transform="translate(-3340.852 -309.803)" fill="#ffcfcd"/>
                      </g>
                    </g>
                  </g>
                  <path id="Path_6155" data-name="Path 6155" d="M3370,379.316c6.981,2.944,11.754-1.589,11.27-3.17-.792-2.652-1.6-4.119-1.176-6.62-.352-.153-.725-.285-1.11-.414-3.107-1.029-3.875-1.559-4.058-1.415-.211.181.11.563-.026.964-.276.79-1.938.92-3.311.9a6.592,6.592,0,0,1-3.33,6.048,1.439,1.439,0,0,1,.914.48A5.191,5.191,0,0,1,3370,379.316Z" transform="translate(-3358.877 -346.914)" fill="#ffcfcd" opacity="0.5" style="mix-blend-mode: multiply;isolation: isolate"/>
                  <g id="Group_309" data-name="Group 309" transform="translate(0 0.001)">
                    <path id="Path_6156" data-name="Path 6156" d="M3338.015,310.514c.971,1.321,2.982.468,4.649,2.305a4.734,4.734,0,0,1,.826,1.286s3.943,7.946,3.522,4.521c-.308-2.449,4.145-3.21,3.725,1.2a11.545,11.545,0,0,1-.58,2.325c.907,4,5.807,6.535,9.067,3.561a15.654,15.654,0,0,1,.491-5.043c.694-2.611,1.613-3,2.371-5.352a12.3,12.3,0,0,0-4.679-13.732.3.3,0,0,0-.138-.1,13.189,13.189,0,0,0-7.175-1.978C3342.542,299.385,3335.34,306.875,3338.015,310.514Z" transform="translate(-3337.445 -299.503)" fill="#545a73"/>
                  </g>
                  <path id="Path_6157" data-name="Path 6157" d="M3384.527,326.971c.279.031.625-.012.858,0a4.484,4.484,0,0,0,2.721-1.292,14.457,14.457,0,0,1,.5-5.017c.694-2.611,1.613-3,2.371-5.352a12.277,12.277,0,0,0-4.679-13.733.3.3,0,0,0-.138-.095,12.564,12.564,0,0,0-7.175-1.979c3.591,1.519,6.118,3.762,6.995,5.912a11.272,11.272,0,0,1,.787,5.185c-.491,4.584-3.668,4.211-5.269,9.73C3380.338,324.423,3384.439,326.964,3384.527,326.971Z" transform="translate(-3366.334 -299.499)" fill="#545a73" opacity="0.3" style="mix-blend-mode: multiply;isolation: isolate"/>
                </g>
              </g>
            </g>
          </g>
        </g>
      </g>
      <g id="Group_336" data-name="Group 336" transform="translate(93.97 132.311)">
        <g id="Group_324" data-name="Group 324" transform="translate(0.006 1.913)">
          <g id="Group_316" data-name="Group 316" transform="translate(0 40.15)">
            <path id="Path_6158" data-name="Path 6158" d="M3029.324,819.033a10.953,10.953,0,0,1-5.743,9.542l-4.409,2.546-.035-12.4,4.409-2.546a6.529,6.529,0,0,1,3.086-1.04C3028.677,815.123,3029.318,816.976,3029.324,819.033Zm-3.592,4.786a6.162,6.162,0,0,0,.772-3.157q-.01-3.57-3.147-1.76l-1.363.787.02,7.177c1.523-.879,2.822-1.493,3.719-3.046Z" transform="translate(-3019.137 -815.134)" fill="#817dc7"/>
          </g>
          <g id="Group_317" data-name="Group 317" transform="translate(11.838 32.458)">
            <path id="Path_6159" data-name="Path 6159" d="M3065.71,789.871l.007,2.508-4.926,2.844.007,2.334,4.608-2.661.007,2.508-4.608,2.661.007,2.544,4.926-2.844.007,2.506-7.7,4.445-.035-12.4Z" transform="translate(-3058.012 -789.871)" fill="#817dc7"/>
          </g>
          <g id="Group_318" data-name="Group 318" transform="translate(20.992 29.972)">
            <path id="Path_6160" data-name="Path 6160" d="M3090.926,781.708l.028,9.754,4.563-2.634.008,2.647-7.412,4.279-.035-12.4Z" transform="translate(-3088.077 -781.708)" fill="#817dc7"/>
          </g>
          <g id="Group_319" data-name="Group 319" transform="translate(45.94 12.768)">
            <path id="Path_6161" data-name="Path 6161" d="M3177.7,725.208l.007,2.508-4.926,2.844.007,2.334,4.608-2.661.007,2.508L3172.8,735.4l.007,2.544,4.926-2.844.007,2.506-7.7,4.446-.035-12.4Z" transform="translate(-3170.005 -725.208)" fill="#817dc7"/>
          </g>
          <g id="Group_320" data-name="Group 320" transform="translate(33.239 17.572)">
            <path id="Path_6162" data-name="Path 6162" d="M3140.375,740.985l-4.876,15.236-2.258,1.3-4.947-9.565,2.955-1.706,3.132,6.531,3.128-10.146Z" transform="translate(-3128.294 -740.985)" fill="#817dc7"/>
          </g>
          <g id="Group_321" data-name="Group 321" transform="translate(29.767 24.906)">
            <path id="Path_6163" data-name="Path 6163" d="M3119.744,765.07l.035,12.4-2.849,1.645-.035-12.4Z" transform="translate(-3116.895 -765.07)" fill="#817dc7"/>
          </g>
          <g id="Group_322" data-name="Group 322" transform="translate(63.795)">
            <path id="Path_6164" data-name="Path 6164" d="M3240.6,683.278l-4.541,10.3.013,4.735-2.865,1.654-.013-4.754-4.553-5.03,3.214-1.856,2.742,3.372,2.758-6.548Z" transform="translate(-3228.642 -683.278)" fill="#817dc7"/>
          </g>
          <g id="Group_323" data-name="Group 323" transform="translate(55.094 8.203)">
            <path id="Path_6165" data-name="Path 6165" d="M3208.2,717.969l1.284,2.956-3.017,1.742-1.406-3.322q-.243-.556-1.139-.04l-1.03.594.014,4.824-2.8,1.62-.035-12.4,5.017-2.9c2.3-1.33,3.929-1.207,3.936,1.462a6.667,6.667,0,0,1-2.219,4.751A1.036,1.036,0,0,1,3208.2,717.969Zm-2.238-2.607a2.048,2.048,0,0,0,.406-1.238c0-.476-.137-.74-.4-.8-.5-.1-1.28.426-3.116,1.486l.008,2.663c1.869-1.079,2.6-1.43,3.107-2.115Z" transform="translate(-3200.069 -710.216)" fill="#817dc7"/>
          </g>
        </g>
        <g id="Group_335" data-name="Group 335" transform="translate(0 0)">
          <g id="Group_325" data-name="Group 325">
            <path id="Path_6166" data-name="Path 6166" d="M3028.632,809.591c.018.01.038.017.055.027a3.315,3.315,0,0,0-3.193-.607c-1.226.343-2.008.893-6.378,3.416l.035,12.4.806.468,4.41-2.546a11.376,11.376,0,0,0,5.069-5.813C3030.26,814.76,3030.668,810.7,3028.632,809.591Zm-3.5,8.747a7.826,7.826,0,0,1-2.335,1.769l-.018-6.244c1.4-.811,2.394-1.482,3.277-1.389C3026.623,813.259,3026.911,816.255,3025.132,818.338Z" transform="translate(-3019.117 -768.69)" fill="#d0dafd"/>
            <path id="Path_6167" data-name="Path 6167" d="M3065.719,793.483l-4.123,2.38,0-1.612,4.608-2.661-.007-2.508-.806-.468-3.805,2.2,0-1.4,4.926-2.844-.007-2.508-.806-.468-7.7,4.445.035,12.4.806.468,7.7-4.445-.007-2.506Z" transform="translate(-3046.155 -751.131)" fill="#d0dafd"/>
            <path id="Path_6168" data-name="Path 6168" d="M3095.5,782.545l-3.759,2.171-.025-8.822-.806-.468-2.849,1.645.035,12.4.806.468,7.412-4.279-.007-2.647Z" transform="translate(-3067.064 -745.454)" fill="#d0dafd"/>
            <path id="Path_6169" data-name="Path 6169" d="M3148.7,728.821l-4.123,2.38,0-1.612,4.608-2.661-.007-2.508-.806-.468-3.805,2.2,0-1.4,4.926-2.844-.007-2.508-.806-.468-7.7,4.446,0,.72-.623-.362-2.865,1.654-2.9,9.408-2.553-5.325-.806-.468-2.955,1.706,4.947,9.565.806.468,2.258-1.3,4.695-14.669.031,11.007.806.468,7.7-4.446-.007-2.506Z" transform="translate(-3095.036 -706.159)" fill="#d0dafd"/>
            <path id="Path_6170" data-name="Path 6170" d="M3119.724,758.788l-2.849,1.645.035,12.4.806.468,2.849-1.645-.035-12.4Z" transform="translate(-3087.107 -733.882)" fill="#d0dafd"/>
            <path id="Path_6171" data-name="Path 6171" d="M3241.387,677.465l-.806-.468-3.245,1.873-2.613,6.2-2.082-2.559-.806-.468-3.214,1.856,4.553,5.03.014,4.754.806.468,2.865-1.654-.014-4.735Z" transform="translate(-3164.827 -676.996)" fill="#d0dafd"/>
            <path id="Path_6172" data-name="Path 6172" d="M3207.88,711.136a6.523,6.523,0,0,0,1.929-4.454c0-1.2-.335-1.926-.993-2.193a1.333,1.333,0,0,1,.168.082c-.866-.5-.995-.626-1.448-.651a4.469,4.469,0,0,0-2.115.635c-.283.15-.136.071-5.371,3.093l.035,12.4.806.468,2.805-1.62-.014-4.824a9.291,9.291,0,0,1,1.46-.792l1.308,3.091.806.468,3.017-1.742-1.284-2.956C3208.757,711.571,3208.532,711.515,3207.88,711.136Zm-4.243-2.147a15.017,15.017,0,0,1,2.692-1.445,2.047,2.047,0,0,1-.383,1.525,7.414,7.414,0,0,1-2.3,1.651Z" transform="translate(-3144.956 -695.719)" fill="#d0dafd"/>
          </g>
          <g id="Group_334" data-name="Group 334" transform="translate(0.806 0.468)">
            <g id="Group_326" data-name="Group 326" transform="translate(0 40.151)">
              <path id="Path_6173" data-name="Path 6173" d="M3031.951,814.29a10.951,10.951,0,0,1-5.742,9.542l-4.409,2.546-.035-12.4,4.409-2.546a6.522,6.522,0,0,1,3.086-1.04C3031.3,810.38,3031.945,812.233,3031.951,814.29Zm-3.591,4.785a6.166,6.166,0,0,0,.772-3.157q-.01-3.57-3.147-1.76l-1.364.787.02,7.177c1.523-.88,2.822-1.493,3.719-3.046Z" transform="translate(-3021.764 -810.391)" fill="#fff"/>
            </g>
            <g id="Group_327" data-name="Group 327" transform="translate(11.838 32.458)">
              <path id="Path_6174" data-name="Path 6174" d="M3068.337,785.127l.007,2.508-4.926,2.844.007,2.334,4.608-2.661.007,2.508-4.608,2.661.007,2.544,4.926-2.844.007,2.506-7.7,4.445-.035-12.4Z" transform="translate(-3060.639 -785.127)" fill="#fff"/>
            </g>
            <g id="Group_328" data-name="Group 328" transform="translate(20.992 29.972)">
              <path id="Path_6175" data-name="Path 6175" d="M3093.552,776.964l.028,9.754,4.563-2.634.007,2.647-7.412,4.279-.035-12.4Z" transform="translate(-3090.704 -776.964)" fill="#fff"/>
            </g>
            <g id="Group_329" data-name="Group 329" transform="translate(45.94 12.768)">
              <path id="Path_6176" data-name="Path 6176" d="M3180.332,720.465l.007,2.508-4.926,2.844.007,2.334,4.608-2.661.007,2.508-4.608,2.661.007,2.544,4.926-2.844.007,2.506-7.7,4.446-.035-12.4Z" transform="translate(-3172.632 -720.465)" fill="#fff"/>
            </g>
            <g id="Group_330" data-name="Group 330" transform="translate(33.239 17.572)">
              <path id="Path_6177" data-name="Path 6177" d="M3143,736.241l-4.876,15.236-2.258,1.3-4.947-9.565,2.955-1.706,3.132,6.531,3.128-10.146Z" transform="translate(-3130.921 -736.241)" fill="#fff"/>
            </g>
            <g id="Group_331" data-name="Group 331" transform="translate(29.767 24.906)">
              <path id="Path_6178" data-name="Path 6178" d="M3122.37,760.326l.035,12.4-2.849,1.645-.035-12.4Z" transform="translate(-3119.521 -760.326)" fill="#fff"/>
            </g>
            <g id="Group_332" data-name="Group 332" transform="translate(63.795)">
              <path id="Path_6179" data-name="Path 6179" d="M3243.228,678.534l-4.541,10.3.014,4.735-2.865,1.654-.014-4.754-4.553-5.03,3.214-1.856,2.743,3.372,2.758-6.548Z" transform="translate(-3231.268 -678.534)" fill="#fff"/>
            </g>
            <g id="Group_333" data-name="Group 333" transform="translate(55.094 8.203)">
              <path id="Path_6180" data-name="Path 6180" d="M3210.83,713.226l1.284,2.956-3.017,1.742-1.406-3.322q-.243-.556-1.139-.04l-1.029.594.014,4.824-2.805,1.62-.035-12.4,5.017-2.9c2.3-1.33,3.929-1.207,3.936,1.462a6.667,6.667,0,0,1-2.219,4.751A1.036,1.036,0,0,1,3210.83,713.226Zm-2.237-2.607a2.049,2.049,0,0,0,.406-1.239c0-.476-.137-.74-.4-.8-.5-.1-1.28.426-3.116,1.486l.008,2.663c1.869-1.079,2.6-1.43,3.107-2.115Z" transform="translate(-3202.696 -705.473)" fill="#fff"/>
            </g>
          </g>
        </g>
      </g>
    </g>
  </g>
</svg>
