<svg xmlns="http://www.w3.org/2000/svg" xmlns:xlink="http://www.w3.org/1999/xlink" width="321.316" height="335.592" viewBox="0 0 321.316 335.592">
  <defs>
    <clipPath id="clip-path">
      <path id="Path_6191" data-name="Path 6191" d="M3723.292,1187.871a.015.015,0,0,1-.012.008,151.606,151.606,0,0,1-29.684,17.252c-.008.008-.008.016-.016.008-62.557,27.943-153.335,25.49-211.407-8.05-26.622-15.363-49.514-39.636-47.28-70.042a58.238,58.238,0,0,1,6.058-21.712c17.767-35.942,66.385-55.791,106.5-62.963,52.425-9.414,115.721-3.125,161.176,23.122C3766.021,1098.62,3771.836,1151.074,3723.292,1187.871Z" transform="translate(-3434.741 -1038.249)" fill="none"/>
    </clipPath>
  </defs>
  <g id="Group_568" data-name="Group 568" transform="translate(-286.163 -245.408)">
    <g id="Group_486" data-name="Group 486" transform="translate(286.163 245.408)">
      <g id="Group_350" data-name="Group 350" transform="translate(0 149.502)">
        <g id="Group_338" data-name="Group 338">
          <path id="Path_6181" data-name="Path 6181" d="M3723.292,1187.871a.015.015,0,0,1-.012.008,151.606,151.606,0,0,1-29.684,17.252c-.008.008-.008.016-.016.008-62.557,27.943-153.335,25.49-211.407-8.05-26.622-15.363-49.514-39.636-47.28-70.042a58.238,58.238,0,0,1,6.058-21.712c17.767-35.942,66.385-55.791,106.5-62.963,52.425-9.414,115.721-3.125,161.176,23.122C3766.021,1098.62,3771.836,1151.074,3723.292,1187.871Z" transform="translate(-3434.741 -1038.249)" fill="#f3e5e2"/>
        </g>
        <g id="Group_349" data-name="Group 349">
          <g id="Group_348" data-name="Group 348" clip-path="url(#clip-path)">
            <g id="Group_347" data-name="Group 347" transform="translate(-88.883 -24.866)">
              <g id="Group_340" data-name="Group 340">
                <g id="Group_339" data-name="Group 339" transform="translate(0 4.799)">
                  <path id="Path_6182" data-name="Path 6182" d="M3596.747,1119.68l-4.161,2.4-194.553,112.2-255.187-147.335c4.394-2.534,192.553-111.04,198.712-114.593Z" transform="translate(-3142.845 -972.348)" fill="#ac8e83"/>
                </g>
                <path id="Path_6183" data-name="Path 6183" d="M4041.116,1119.68l-4.161,2.4L3781.767,974.748l4.159-2.4Z" transform="translate(-3587.214 -967.549)" fill="#6f6975" opacity="0.5"/>
                <path id="Path_6184" data-name="Path 6184" d="M4054.782,1111.8l-4.162,2.4L3795.433,966.868l4.159-2.4Z" transform="translate(-3596.719 -962.069)" fill="#6f6975" opacity="0.5" style="mix-blend-mode: multiply;isolation: isolate"/>
                <path id="Path_6185" data-name="Path 6185" d="M4068.448,1103.92l-4.161,2.4L3809.1,958.987l4.159-2.4Z" transform="translate(-3606.224 -956.588)" fill="#f3e5e2" style="mix-blend-mode: multiply;isolation: isolate"/>
              </g>
              <g id="Group_346" data-name="Group 346" transform="translate(72.839 93.17)" opacity="0.5">
                <g id="Group_341" data-name="Group 341" transform="translate(180.656 104.302)">
                  <path id="Path_6186" data-name="Path 6186" d="M3975.335,1608.8l6.368-3.7,22.593,13.044-6.368,3.7Z" transform="translate(-3975.335 -1605.096)" fill="#fff9ed"/>
                </g>
                <g id="Group_342" data-name="Group 342" transform="translate(135.499 78.23)">
                  <path id="Path_6187" data-name="Path 6187" d="M3827.037,1523.177l6.368-3.7L3856,1532.52l-6.368,3.7Z" transform="translate(-3827.037 -1519.476)" fill="#fff9ed"/>
                </g>
                <g id="Group_343" data-name="Group 343" transform="translate(90.342 52.159)">
                  <path id="Path_6188" data-name="Path 6188" d="M3678.741,1437.558l6.368-3.7,22.564,13.027-6.368,3.7Z" transform="translate(-3678.741 -1433.857)" fill="#fff9ed"/>
                </g>
                <g id="Group_344" data-name="Group 344" transform="translate(45.185 26.088)">
                  <path id="Path_6189" data-name="Path 6189" d="M3530.444,1351.938l6.368-3.7,22.564,13.027-6.368,3.7Z" transform="translate(-3530.444 -1348.238)" fill="#fff9ed"/>
                </g>
                <g id="Group_345" data-name="Group 345">
                  <path id="Path_6190" data-name="Path 6190" d="M3382.053,1266.265l6.368-3.7,22.593,13.044-6.368,3.7Z" transform="translate(-3382.053 -1262.564)" fill="#fff9ed"/>
                </g>
              </g>
            </g>
          </g>
        </g>
      </g>
      <g id="Group_387" data-name="Group 387" transform="translate(237.415 0)">
        <path id="Path_6192" data-name="Path 6192" d="M4239.561,1148.887c-5.718,3.33-15.018,3.267-20.8-.063-4.119-2.366-5.854-6.3-2.765-9.8.125-.063.188-.189.25-.252,4.612-5.067,16.571-5.774,23.249-1.885C4245.278,1140.216,4245.341,1145.557,4239.561,1148.887Z" transform="translate(-4214.422 -955.62)" fill="#f3e5e2" style="mix-blend-mode: multiply;isolation: isolate"/>
        <g id="Group_386" data-name="Group 386" transform="translate(1.273)">
          <g id="Group_358" data-name="Group 358" transform="translate(0.784 130.462)">
            <g id="Group_352" data-name="Group 352" transform="translate(0 39.74)">
              <g id="Group_351" data-name="Group 351" transform="translate(0 7.754)">
                <path id="Path_6193" data-name="Path 6193" d="M4245.824,1151.459c-3.182.785-23.356-.271-23.872-.486-.1.316-.755,2.208-.773,2.54-.079,7.691,15.056,9.19,21.671,5.371C4246.783,1156.613,4246.605,1154.548,4245.824,1151.459Z" transform="translate(-4221.178 -1145.102)" fill="#7a5c66"/>
                <path id="Path_6194" data-name="Path 6194" d="M4243.806,1143.531c-4.672,2.721-12.27,2.669-16.993-.051-3.365-1.933-4.783-5.149-2.259-8.009.1-.052.154-.154.205-.206,3.768-4.141,13.54-4.718,19-1.54C4248.478,1136.446,4248.529,1140.81,4243.806,1143.531Z" transform="translate(-4222.63 -1131.693)" fill="#917880"/>
              </g>
              <path id="Path_6195" data-name="Path 6195" d="M4244.624,1125.054c-7.022,4.091-19.218,1.161-19.381-4.614h-.039a15,15,0,0,1,1.681-8.289v0a15.322,15.322,0,0,1,2.538-3.492,11.672,11.672,0,0,1,14.247,0,15.231,15.231,0,0,1,2.534,3.492v0a15.065,15.065,0,0,1,1.719,7.649C4247.894,1120.281,4248.457,1122.844,4244.624,1125.054Z" transform="translate(-4223.948 -1106.229)" fill="#7a5c66"/>
              <path id="Path_6196" data-name="Path 6196" d="M4248.208,1128.108c-5.551,3.234-14.4,2.082-17.893-1.44a16.222,16.222,0,0,0,11.367,1.671c1.228-.328,3.434-.925,4.417-2.808.665-1.281.505-2.654.323-4.258a15.14,15.14,0,0,0-1.3-4.609c.416-6.449.358-5.64.4-6.045a11.515,11.515,0,0,1,1.724,1.089,15.246,15.246,0,0,1,2.534,3.492v0a15.07,15.07,0,0,1,1.719,7.648C4251.478,1123.335,4252.042,1125.9,4248.208,1128.108Z" transform="translate(-4227.533 -1109.283)" fill="#7a5c66" opacity="0.2" style="mix-blend-mode: multiply;isolation: isolate"/>
              <path id="Path_6197" data-name="Path 6197" d="M4250.243,1114.866c-4.831,2.812-13.265.734-13.153-3.286a3.016,3.016,0,0,1,.822-1.873c.066-.033.1-.1.132-.132,2.372-2.6,8.575-3.076,12.166-.986C4253.235,1110.331,4253.268,1113.124,4250.243,1114.866Z" transform="translate(-4232.244 -1106.959)" fill="#917880"/>
            </g>
            <g id="Group_353" data-name="Group 353" transform="translate(5.403 19.787)">
              <path id="Path_6198" data-name="Path 6198" d="M4253.187,1064.994c.072,1.093-.617,2.2-2.076,3.044-4.487,2.605-12.287.667-12.176-3.039l0,0a82.042,82.042,0,0,1,2.2-21.413v-.13a1.972,1.972,0,0,1,.525-1.2.287.287,0,0,0,.087-.082c1.492-1.655,5.458-1.969,7.764-.631a2.464,2.464,0,0,1,1.459,2.023h0a70.719,70.719,0,0,1,1.334,7.032A84.519,84.519,0,0,1,4253.187,1064.994Z" transform="translate(-4238.92 -1040.703)" fill="#7a5c66"/>
              <path id="Path_6199" data-name="Path 6199" d="M4253.548,1064.993c.072,1.093-.617,2.2-2.076,3.044-4.089,2.375-10.948.978-12.032-2.115a8.786,8.786,0,0,0,6.984,1.869c2.142-.47,3.605-.671,3.211-10.155a38.461,38.461,0,0,0-1.771-10.036,6.893,6.893,0,0,1-6.618-2.909c.082-.371.169-.742.255-1.113v-.13a.565.565,0,0,1,.01-.125,11.371,11.371,0,0,1,1.6-1.9,7.763,7.763,0,0,1,6.767.116,2.464,2.464,0,0,1,1.459,2.023h0a70.792,70.792,0,0,1,1.334,7.032A84.551,84.551,0,0,1,4253.548,1064.993Z" transform="translate(-4239.283 -1040.703)" fill="#7a5c66" opacity="0.4" style="mix-blend-mode: multiply;isolation: isolate"/>
            </g>
            <g id="Group_355" data-name="Group 355" transform="translate(5.974 9.116)">
              <g id="Group_354" data-name="Group 354" transform="translate(0 2.428)">
                <path id="Path_6200" data-name="Path 6200" d="M4252.281,1027.387v.029c-.015,2.241-4.55,3.752-8,2.167a2.71,2.71,0,0,1-1.83-2.134.034.034,0,0,1,0-.024v0c0-.01,0-.019.01-.029h-.005v0s0,0,0-.01a15.318,15.318,0,0,1-1.363-9.854s0,0,0-.01l0,0h0l-.019-.019,12.575.019a.018.018,0,0,0,0,.015.131.131,0,0,1,0,.043A15.362,15.362,0,0,1,4252.281,1027.387Z" transform="translate(-4240.797 -1016.314)" fill="#7a5c66"/>
                <path id="Path_6201" data-name="Path 6201" d="M4278.515,1050.022h0v-.029A.07.07,0,0,1,4278.515,1050.022Z" transform="translate(-4267.026 -1038.92)" fill="#7a5c66"/>
                <path id="Path_6202" data-name="Path 6202" d="M4283.35,1015.98a3.725,3.725,0,0,0,.39-.515A2.633,2.633,0,0,1,4283.35,1015.98Z" transform="translate(-4270.393 -1014.906)" fill="#7a5c66"/>
                <path id="Path_6203" data-name="Path 6203" d="M4284.891,1013.63a2.174,2.174,0,0,1-.26.559A2.755,2.755,0,0,0,4284.891,1013.63Z" transform="translate(-4271.283 -1013.63)" fill="#7a5c66"/>
              </g>
              <path id="Path_6204" data-name="Path 6204" d="M4252.933,1019.157a4.036,4.036,0,0,1-1.468,1.526,7.638,7.638,0,0,1-7.2-.166,3.708,3.708,0,0,1-1.167-1.369,4.368,4.368,0,0,0,1.739,1.527,5.39,5.39,0,0,0,4.506-.085c2.294-1.245,3.214-4.647,1.038-6.64-1.194-1.093-2.128-.265-4.648-1.209-.352-.13-3.848-1.479-3.993-3.458v-.024a.606.606,0,0,1,0-.1,2.378,2.378,0,0,1,.669-1.527.441.441,0,0,0,.106-.106c1.936-2.129,6.993-2.509,9.921-.8.833.482,1.161,1.339,1.845,2.553a.269.269,0,0,1,.029.058A15.362,15.362,0,0,1,4252.933,1019.157Z" transform="translate(-4241.449 -1005.656)" fill="#7a5c66" opacity="0.4" style="mix-blend-mode: multiply;isolation: isolate"/>
            </g>
            <g id="Group_357" data-name="Group 357" transform="translate(5.367)">
              <path id="Path_6205" data-name="Path 6205" d="M4251.059,989.38a11.259,11.259,0,0,1-9.363.351h0a6.1,6.1,0,0,1-1.975-1.286c-1.1-1.113-1.093-2.317-.568-3.843v0c.111-.332.241-.679.38-1.026v0c.087-.207.168-.414.25-.626v0a9.573,9.573,0,0,0,.8-3.083c-.11-.554-.033-.612.284-1.594,0,0,.02,0,.024,0a2.112,2.112,0,0,1,.472-.905.371.371,0,0,0,.087-.087c2-2.194,7.673-2,9.281.3a2.777,2.777,0,0,1,.4.9c.167.667.241.448.241,1.195a10.91,10.91,0,0,0,1.06,3.906v0c.134.347.265.689.38,1.026v0C4253.337,986.216,4253.578,987.931,4251.059,989.38Z" transform="translate(-4238.805 -975.727)" fill="#7a5c66"/>
              <path id="Path_6206" data-name="Path 6206" d="M4257.662,993.584a11.259,11.259,0,0,1-9.363.351,10.807,10.807,0,0,0,7.1-1.012c2.519-1.449,2.278-3.164,1.753-4.783v0c-.116-.332-.246-.679-.38-1.026v0a12.04,12.04,0,0,1-1.045-3.55,8.309,8.309,0,0,1,1.6-1.782,2.772,2.772,0,0,1,.4.9c.167.667.241.448.241,1.195a10.92,10.92,0,0,0,1.06,3.906v0c.135.347.265.689.38,1.026v0C4259.94,990.419,4260.181,992.134,4257.662,993.584Z" transform="translate(-4245.408 -979.931)" fill="#7a5c66" opacity="0.2" style="mix-blend-mode: multiply;isolation: isolate"/>
              <g id="Group_356" data-name="Group 356" transform="translate(2.001)">
                <path id="Path_6207" data-name="Path 6207" d="M4254.208,980.818c-3.243,1.889-8.907.493-8.832-2.208a2.024,2.024,0,0,1,.552-1.259c.044-.022.066-.066.088-.088,1.593-1.75,5.758-2.067,8.17-.662C4256.218,977.771,4256.24,979.647,4254.208,980.818Z" transform="translate(-4245.375 -975.72)" fill="#917880"/>
              </g>
            </g>
          </g>
          <g id="Group_359" data-name="Group 359" transform="translate(10.753 54.887)">
            <path id="Path_6208" data-name="Path 6208" d="M4259,727.578v77.984c.076.608-.629,1.156-1.233,1.373a4.313,4.313,0,0,1-3.111-.217,1.264,1.264,0,0,1-.737-1.156l.048-78.032Z" transform="translate(-4253.918 -727.53)" fill="#7a5c66"/>
            <path id="Path_6209" data-name="Path 6209" d="M4259.043,727.634c0,41.557.027,77.878-.053,78.359-.678,1.739-4.793,1.48-5.009-.159.6.482,2.22,1.036,2.524-1.71.019-12.648.034-63.867.048-76.515C4257.791,727.619,4259.019,727.634,4259.043,727.634Z" transform="translate(-4253.962 -727.586)" fill="#7a5c66" opacity="0.4" style="mix-blend-mode: multiply;isolation: isolate"/>
          </g>
          <g id="Group_360" data-name="Group 360" transform="translate(7.833 59.35)">
            <path id="Path_6210" data-name="Path 6210" d="M4256.872,758.34c-2.138,1.245-5.872.325-5.823-1.456a1.334,1.334,0,0,1,.364-.83c.029-.015.043-.044.058-.058,1.05-1.154,3.8-1.362,5.386-.437C4258.2,756.332,4258.211,757.569,4256.872,758.34Z" transform="translate(-4249.002 -751.084)" fill="#4d2b39"/>
            <path id="Path_6211" data-name="Path 6211" d="M4254.929,744.927l-.022,0a2.726,2.726,0,0,0-1.492-1.864c-2.405-1.4-6.571-1.093-8.17.662-.022.022-.044.066-.088.088a2.149,2.149,0,0,0-.473.9l-.021,0c-.045.136-.325.95-.333,1.093-.034,3.309,6.476,3.952,9.32,2.31C4255.341,747.143,4255.265,746.255,4254.929,744.927Z" transform="translate(-4244.329 -742.186)" fill="#7a5c66"/>
            <path id="Path_6212" data-name="Path 6212" d="M4254.063,747.284c-3.244,1.889-8.907.493-8.832-2.208a2.026,2.026,0,0,1,.552-1.258c.044-.022.066-.066.088-.088,1.593-1.75,5.759-2.067,8.17-.663C4256.072,744.237,4256.094,746.113,4254.063,747.284Z" transform="translate(-4244.955 -742.186)" fill="#917880"/>
          </g>
          <g id="Group_361" data-name="Group 361" transform="translate(10.709 22.22)">
            <path id="Path_6213" data-name="Path 6213" d="M4258.854,620.3V659.7c.076.608-.629,1.156-1.233,1.373a4.313,4.313,0,0,1-3.112-.217,1.264,1.264,0,0,1-.737-1.156l.048-39.456Z" transform="translate(-4253.772 -620.249)" fill="#7a5c66"/>
            <path id="Path_6214" data-name="Path 6214" d="M4258.9,620.352c0,41.557.027,39.3-.053,39.783-.678,1.739-4.793,1.48-5.009-.159.6.482,2.221,1.036,2.524-1.71q.029-18.972.048-37.938C4257.645,620.337,4258.873,620.352,4258.9,620.352Z" transform="translate(-4253.816 -620.304)" fill="#7a5c66" opacity="0.4" style="mix-blend-mode: multiply;isolation: isolate"/>
          </g>
          <g id="Group_362" data-name="Group 362" transform="translate(8.816 53.658)">
            <path id="Path_6215" data-name="Path 6215" d="M4257.814,736.708c-1.75,1.019-4.8.266-4.763-1.191a1.1,1.1,0,0,1,.3-.679c.024-.012.036-.036.048-.048.858-.944,3.1-1.115,4.405-.357C4258.9,735.065,4258.909,736.077,4257.814,736.708Z" transform="translate(-4251.377 -730.773)" fill="#4d2b39"/>
            <path id="Path_6216" data-name="Path 6216" d="M4256.225,725.737l-.019,0a2.227,2.227,0,0,0-1.22-1.525c-1.968-1.146-5.375-.894-6.683.542-.018.018-.036.054-.072.072a1.755,1.755,0,0,0-.387.739l-.018,0c-.037.111-.266.776-.272.893a2.11,2.11,0,0,0,1.237,1.879,7.488,7.488,0,0,0,6.387.011A1.9,1.9,0,0,0,4256.225,725.737Z" transform="translate(-4247.555 -723.495)" fill="#7a5c66"/>
            <path id="Path_6217" data-name="Path 6217" d="M4255.517,727.665c-2.653,1.545-7.286.4-7.224-1.806a1.654,1.654,0,0,1,.452-1.03c.036-.018.054-.054.072-.072,1.3-1.431,4.71-1.69,6.683-.542C4257.161,725.172,4257.179,726.707,4255.517,727.665Z" transform="translate(-4248.067 -723.495)" fill="#917880"/>
          </g>
          <g id="Group_373" data-name="Group 373" transform="translate(0 8.728)">
            <g id="Group_369" data-name="Group 369" transform="translate(0.086 1.646)">
              <g id="Group_368" data-name="Group 368">
                <g id="Group_367" data-name="Group 367">
                  <g id="Group_363" data-name="Group 363" transform="translate(10.623 5.87)">
                    <path id="Path_6218" data-name="Path 6218" d="M4258.854,600.676v39.407c.076.608-.629,1.156-1.233,1.373a4.313,4.313,0,0,1-3.112-.217,1.264,1.264,0,0,1-.737-1.156l.048-39.456Z" transform="translate(-4253.772 -600.628)" fill="#7a5c66"/>
                    <path id="Path_6219" data-name="Path 6219" d="M4258.9,600.731c0,41.557.027,39.3-.053,39.783-.678,1.739-4.793,1.48-5.009-.159.6.481,2.221,1.035,2.524-1.71q.029-18.971.048-37.938C4257.645,600.717,4258.873,600.731,4258.9,600.731Z" transform="translate(-4253.816 -600.683)" fill="#7a5c66" opacity="0.4" style="mix-blend-mode: multiply;isolation: isolate"/>
                  </g>
                  <g id="Group_366" data-name="Group 366">
                    <g id="Group_364" data-name="Group 364" transform="translate(4.236 24.452)">
                      <path id="Path_6220" data-name="Path 6220" d="M4253.55,688.38c-3.538,2.061-9.716.538-9.635-2.409a2.211,2.211,0,0,1,.6-1.373c.048-.024.072-.072.1-.1,1.737-1.909,6.281-2.255,8.912-.723C4255.742,685.056,4255.766,687.1,4253.55,688.38Z" transform="translate(-4240.528 -676.373)" fill="#4d2b39"/>
                      <path id="Path_6221" data-name="Path 6221" d="M4250.335,666.185l-.038.006a4.505,4.505,0,0,0-2.469-3.085c-3.979-2.318-10.873-1.808-13.519,1.1-.036.037-.072.11-.146.146a3.547,3.547,0,0,0-.782,1.5l-.036-.006c-.074.225-.538,1.571-.551,1.807a4.266,4.266,0,0,0,2.5,3.8c3.352,1.935,9.59,1.945,12.921.022C4251.018,669.853,4250.892,668.383,4250.335,666.185Z" transform="translate(-4232.796 -661.651)" fill="#5a3343"/>
                      <path id="Path_6222" data-name="Path 6222" d="M4248.9,670.085c-5.367,3.126-14.739.816-14.615-3.653a3.35,3.35,0,0,1,.914-2.082c.073-.037.109-.11.146-.146,2.635-2.9,9.528-3.42,13.519-1.1C4252.228,665.043,4252.264,668.149,4248.9,670.085Z" transform="translate(-4233.833 -661.651)" fill="#9c6c7c"/>
                    </g>
                    <path id="Path_6223" data-name="Path 6223" d="M4245.093,590.14c-.322,1.214-5.457,20.479-5.457,20.479-.876,2.683-5.438,4.123-9.734,3.463-.02,0-.039,0-.058-.009l0,0c-2.194-.377-5-1.534-5.582-3.665,0-.007-5.207-20.277-5.207-20.3a3.7,3.7,0,0,1-.106-.511h0a4.819,4.819,0,0,1,1.339-4.089.821.821,0,0,0,.222-.226c4.067-4.469,14.7-5.256,20.821-1.686C4243.8,585.02,4245.868,587.423,4245.093,590.14Z" transform="translate(-4218.885 -581.351)" fill="#ffe25e"/>
                    <g id="Group_365" data-name="Group 365" transform="translate(6.779 24.781)">
                      <path id="Path_6224" data-name="Path 6224" d="M4251.916,668.942c-3.405,1.984-9.1,1.009-10.479-1.53a2.233,2.233,0,0,1,.385-2.694.338.338,0,0,0,.105-.109c1.942-2.133,7.018-2.518,9.961-.806C4254.369,665.233,4254.374,667.524,4251.916,668.942Z" transform="translate(-4241.146 -662.73)" fill="#ffd81a"/>
                    </g>
                    <ellipse id="Ellipse_7" data-name="Ellipse 7" cx="4.097" cy="6.172" rx="4.097" ry="6.172" transform="translate(9.386 17.616)" fill="#fff4c2"/>
                    <path id="Path_6225" data-name="Path 6225" d="M4245.093,590.138c-.322,1.214-5.457,20.479-5.457,20.479-.876,2.683-5.438,4.123-9.734,3.463-.02,0-.039,0-.058-.009l0,0c-1.936-.333-4.306-1.257-5.264-2.914,5.64,2.606,10.871.718,11.853-.867,1.021-1.647,3.8-12.859,3.93-13.389a40.809,40.809,0,0,1-10.914,1.185,19.292,19.292,0,0,1-9.208-3.338c-.684-2.687-1.185-4.633-1.185-4.638a3.7,3.7,0,0,1-.106-.511h0a4.819,4.819,0,0,1,1.339-4.089.821.821,0,0,0,.222-.226c4.058-4.46,14.685-5.265,20.821-1.686C4243.8,585.019,4245.868,587.422,4245.093,590.138Z" transform="translate(-4218.885 -581.349)" fill="#ffd81a" opacity="0.4" style="mix-blend-mode: multiply;isolation: isolate"/>
                  </g>
                </g>
              </g>
            </g>
            <g id="Group_372" data-name="Group 372">
              <g id="Group_371" data-name="Group 371">
                <g id="Group_370" data-name="Group 370">
                  <path id="Path_6226" data-name="Path 6226" d="M4244.673,596.9c-3.366.83-24.7-.286-25.251-.514-.109.335-.8,2.336-.818,2.687-.083,8.136,15.925,9.721,22.922,5.681C4245.688,602.351,4245.5,600.166,4244.673,596.9Z" transform="translate(-4218.604 -590.16)" fill="#5a3343"/>
                  <path id="Path_6227" data-name="Path 6227" d="M4242.543,588.478c-7.976,4.648-21.9,1.213-21.722-5.428a4.987,4.987,0,0,1,1.358-3.1c.106-.053.164-.164.217-.217a8.334,8.334,0,0,1,1.537-1.31s0,0,0,0c4.619-3.111,13.284-3.381,18.553-.313C4247.495,580.989,4247.522,585.607,4242.543,588.478Z" transform="translate(-4220.145 -575.942)" fill="#805966"/>
                </g>
              </g>
            </g>
          </g>
          <g id="Group_385" data-name="Group 385" transform="translate(1.999)">
            <g id="Group_381" data-name="Group 381" transform="translate(0 4.066)">
              <g id="Group_375" data-name="Group 375" transform="translate(0 0.907)">
                <g id="Group_374" data-name="Group 374" transform="translate(0 1.972)">
                  <path id="Path_6228" data-name="Path 6228" d="M4247.609,586.941c-7.471,5.245-22.632,2-22.439-4.975a4.99,4.99,0,0,1,1.358-3.1c.106-.053.164-.164.217-.217.067-.077.14-.149.212-.226,0,0,0,0,0,0,4.619-3.111,13.283-3.381,18.552-.313C4249.69,580.511,4250.413,584.138,4247.609,586.941Z" transform="translate(-4225.168 -574.159)" fill="#5a3343" opacity="0.5"/>
                  <path id="Path_6229" data-name="Path 6229" d="M4231.983,584.25a13.107,13.107,0,0,1-4.33-1.97v.01a5.068,5.068,0,0,1-2.355-4.407,4.419,4.419,0,0,1,.79-2.033c.323-.462.5-.626,5.11-5.765,6.2,1.627,3.856,1.73,10.688.029,0,0,5.3,5.818,5.673,7.013C4249.026,581.487,4241.264,586.631,4231.983,584.25Z" transform="translate(-4225.243 -570.085)" fill="#9c6c7c"/>
                  <path id="Path_6230" data-name="Path 6230" d="M4238.018,584.316a13.372,13.372,0,0,1-4.065-1.787c.034.015.072.024.106.039,9.584,3.578,13.645-.28,14.329-1.864.294-.684.188-1.941-2.129-4.426a9.822,9.822,0,0,1-9.31-2.924c2.389.062,6.3-2.01,10.972-3.174,0,0,5.3,5.818,5.673,7.013C4255.062,581.553,4247.3,586.7,4238.018,584.316Z" transform="translate(-4231.278 -570.151)" fill="#915f70"/>
                </g>
                <path id="Path_6231" data-name="Path 6231" d="M4252.65,569.629a9.463,9.463,0,0,1-8.573.085c-4.251-2.373-.765-5.844,3.718-6.091,3.124-.173,5.485,1.262,6.107,2.273l.016.016C4254.841,567.275,4254.17,568.713,4252.65,569.629Z" transform="translate(-4236.98 -563.608)" fill="#696a94"/>
              </g>
              <g id="Group_380" data-name="Group 380" transform="translate(5.003)">
                <g id="Group_377" data-name="Group 377" transform="translate(0 0.179)">
                  <g id="Group_376" data-name="Group 376">
                    <path id="Path_6232" data-name="Path 6232" d="M4252.351,568.07c-3.273,1.888-10.754,1.158-10.754-2.674a7.908,7.908,0,0,1,.356-1.159.109.109,0,0,0,.03-.089,2.394,2.394,0,0,1,.564-1.04c.059-.03.089-.089.119-.119,1.678-1.888,6.49-2.469,9.417-.743a3.013,3.013,0,0,1,1.723,2.139h.03C4254.223,565.931,4254.312,566.941,4252.351,568.07Z" transform="translate(-4241.597 -561.219)" fill="#5a3343"/>
                  </g>
                  <path id="Path_6233" data-name="Path 6233" d="M4252.837,567.116c-3.742,2.182-10.273.568-10.187-2.543a2.352,2.352,0,0,1,.636-1.455c.053-.024.077-.077.1-.1a6.729,6.729,0,0,1,4.4-1.748s0,0,.01,0a8.926,8.926,0,0,1,5.019.987C4255.146,563.6,4255.181,565.764,4252.837,567.116Z" transform="translate(-4242.329 -561.233)" fill="#805966"/>
                  <path id="Path_6234" data-name="Path 6234" d="M4257.81,565.064c-1.36,3.031-10.565,3.021-10.461-.794a2.032,2.032,0,0,1,.39-1.417c.048-.024.067-.067.092-.091a5.559,5.559,0,0,1,3.222-1.493s0,0,.01,0C4254.945,560.972,4258.23,562.883,4257.81,565.064Z" transform="translate(-4245.596 -561.232)" fill="#5a3343" opacity="0.5"/>
                </g>
                <g id="Group_379" data-name="Group 379" transform="translate(1.544)">
                  <g id="Group_378" data-name="Group 378">
                    <path id="Path_6235" data-name="Path 6235" d="M4254.757,565.784c-2.462,1.42-8.089.871-8.089-2.011a5.936,5.936,0,0,1,.268-.871.082.082,0,0,0,.022-.067,1.807,1.807,0,0,1,.424-.782c.045-.022.067-.067.089-.089,1.263-1.42,4.882-1.857,7.084-.559a2.267,2.267,0,0,1,1.3,1.609h.022C4256.165,564.175,4256.232,564.934,4254.757,565.784Z" transform="translate(-4246.668 -560.63)" fill="#5a3343"/>
                  </g>
                  <path id="Path_6236" data-name="Path 6236" d="M4255.12,565.068c-2.814,1.639-7.728.428-7.663-1.916a1.758,1.758,0,0,1,.479-1.092c.039-.019.058-.057.077-.076,1.382-1.518,5-1.793,7.088-.575C4256.863,562.425,4256.883,564.053,4255.12,565.068Z" transform="translate(-4247.217 -560.641)" fill="#9c6c7c"/>
                </g>
              </g>
            </g>
            <g id="Group_383" data-name="Group 383" transform="translate(7.445 3.749)">
              <g id="Group_382" data-name="Group 382">
                <path id="Path_6237" data-name="Path 6237" d="M4256.157,563.754c-1.99,1.148-6.54.7-6.54-1.626a4.788,4.788,0,0,1,.217-.7.066.066,0,0,0,.018-.054,1.459,1.459,0,0,1,.343-.632c.036-.018.054-.054.072-.072,1.02-1.148,3.947-1.5,5.727-.452a1.835,1.835,0,0,1,1.048,1.3h.018A1.629,1.629,0,0,1,4256.157,563.754Z" transform="translate(-4249.617 -559.588)" fill="#5a3343"/>
              </g>
              <path id="Path_6238" data-name="Path 6238" d="M4256.453,563.176c-2.273,1.329-6.247.347-6.194-1.546a1.41,1.41,0,0,1,.385-.881.242.242,0,0,0,.063-.063c1.064-1.187,3.989-1.478,5.732-.467C4257.884,561.06,4257.853,562.379,4256.453,563.176Z" transform="translate(-4250.063 -559.599)" fill="#805966"/>
              <path id="Path_6239" data-name="Path 6239" d="M4259.513,561.89a5.472,5.472,0,0,1-4.468.442,4.08,4.08,0,0,1-1.4-1.123c-.289-.44-.485-.764-.485-.764a1.249,1.249,0,0,1,.014-.135,5.615,5.615,0,0,1,5.284-.091A1.721,1.721,0,0,1,4259.513,561.89Z" transform="translate(-4252.078 -559.599)" fill="#5a3343" opacity="0.5"/>
            </g>
            <g id="Group_384" data-name="Group 384" transform="translate(7.482)">
              <circle id="Ellipse_8" data-name="Ellipse 8" cx="2.866" cy="2.866" r="2.866" transform="matrix(0.924, -0.383, 0.383, 0.924, 0, 2.194)" fill="#9c6c7c"/>
              <path id="Path_6240" data-name="Path 6240" d="M4259.389,554.063a2.866,2.866,0,0,1-5.28,1.543,2.865,2.865,0,0,0,3.958-3.958A2.863,2.863,0,0,1,4259.389,554.063Z" transform="translate(-4252.778 -550.317)" fill="#915f70"/>
              <circle id="Ellipse_9" data-name="Ellipse 9" cx="1.16" cy="1.16" r="1.16" transform="translate(1.871 1.831)" fill="#a67b89"/>
            </g>
          </g>
        </g>
      </g>
      <g id="Group_485" data-name="Group 485" transform="translate(17.507 120.721)">
        <g id="Group_388" data-name="Group 388" transform="translate(23.15 91.024)" opacity="0.3" style="mix-blend-mode: multiply;isolation: isolate">
          <path id="Path_6241" data-name="Path 6241" d="M3700.155,1305.183c-14.65-10.217-70.223-42.694-78.872-47.763-19.324-11.327-27.712-16.726-38.5-14.115-2.173.526-12.141,2.986-14.228,9.672-2.628,8.415,10.986,18.948,111.9,72.044a24.858,24.858,0,0,0,14.409,2.963c7.868-.969,16.32-6.587,16.256-12.082C3711.066,1311.816,3706.092,1309.324,3700.155,1305.183Z" transform="translate(-3568.262 -1242.658)" fill="#6f6975"/>
        </g>
        <g id="Group_484" data-name="Group 484">
          <g id="Group_482" data-name="Group 482">
            <g id="Group_481" data-name="Group 481">
              <g id="Group_389" data-name="Group 389" transform="translate(0 87.035)">
                <path id="Path_6242" data-name="Path 6242" d="M3499.269,1229.7c-2.712-1.262.478,6.005.646,6.388l-7.679-2.834c.385.226,37.575,22.072,38.1,22l-12.232-9.042c-1.056-1.3-8.525-10.46-10.107-10.938-1.655-.5-.284,4.415-.211,4.673C3506.352,1237.729,3501.669,1230.821,3499.269,1229.7Z" transform="translate(-3492.235 -1229.557)" fill="#f3e5e2"/>
              </g>
              <g id="Group_418" data-name="Group 418" transform="translate(15.642 8.619)">
                <g id="Group_394" data-name="Group 394" transform="translate(6.658 59.61)">
                  <path id="Path_6243" data-name="Path 6243" d="M3586.809,1200.959c5.678.009,13.111,6.729,16.136,15.885,3.736,11.338-1.911,18.739-10.517,14.081a22.883,22.883,0,0,1-6.31-5.408,10.869,10.869,0,0,0,7.646,3.828c3.569.345,5.617-2.339,5.621-6.6a17.3,17.3,0,0,0-2.4-8.926c-4.437-7.859-12.286-11.295-15.328-6.046-1.517,2.609-1.146,6.414-.258,9.327v0h0l-.374-1.226C3579,1209.243,3579.887,1200.957,3586.809,1200.959Z" transform="translate(-3575.624 -1190.862)" fill="#e0e5f6"/>
                  <g id="Group_390" data-name="Group 390" transform="translate(1.04 11.172)">
                    <ellipse id="Ellipse_10" data-name="Ellipse 10" cx="7.86" cy="13.569" rx="7.86" ry="13.569" transform="matrix(0.872, -0.49, 0.49, 0.872, 0, 7.696)" fill="#fff"/>
                  </g>
                  <g id="Group_391" data-name="Group 391" transform="translate(7.542 18.726)">
                    <ellipse id="Ellipse_11" data-name="Ellipse 11" cx="4.073" cy="7.032" rx="4.073" ry="7.032" transform="matrix(0.872, -0.49, 0.49, 0.872, 0, 3.988)" fill="#45364c"/>
                  </g>
                  <path id="Path_6244" data-name="Path 6244" d="M3578.179,1194.728c3.707,1.57,6.317,4.154,8.867,7.017-2.816-3.162-7.3-6.427-11.464-5.762-7.846,1.252-7.449,15.006.714,24.792,7.107,8.514,16.063,8.757,17.5.037a19.25,19.25,0,0,0-.8-8.468,27.855,27.855,0,0,1,1.557,8.982c-.083,4.66-1.968,9.208-6.6,10.113-7,1.332-14.583-6.391-18.159-12.6C3561.255,1204,3566.205,1189.647,3578.179,1194.728Z" transform="translate(-3565.497 -1185.803)" fill="#45364c"/>
                  <path id="Path_6245" data-name="Path 6245" d="M3566.425,1182.345c.366-3.857,1.951-7.27,4.935-8.881-.037.02-.075.033-.112.054,8.974-5.039,9.3-5.439,11.525-5.669,8.844-.888,19.827,10.479,23.236,23.1,1.705,6.3,1.747,14.839-3.9,18.008l-8.079,4.536a8.64,8.64,0,0,1-5.7,1.1c-4.72-.569-9.4-4.09-12.7-7.8l-.852-.957c8.74,9.813,19.3,8.709,19.506-3.006.167-9.38-6.827-21.369-15.376-25.05-9.11-3.911-14.469,4.2-10.889,16.019C3566.884,1190.048,3566.026,1186.536,3566.425,1182.345Z" transform="translate(-3566.065 -1167.8)" fill="#45364c"/>
                  <g id="Group_392" data-name="Group 392" transform="translate(0 7.933)">
                    <path id="Path_6246" data-name="Path 6246" d="M3593.327,1213.658a.054.054,0,0,0-.008-.035c-.112-.352-.177-.575-.177-.575l-.009-.009a33.88,33.88,0,0,0-9.821-14.921c-7.731-6.615-15.92-5.506-17.541,3.1-.009.009,0,.009,0,.009-2.42,12.621,10.155,30.808,20.917,30.468C3594.7,1231.336,3595.883,1221.256,3593.327,1213.658Zm-13.6,14.98c-9.708-5.749-16.149-21.3-12.354-29.3,1.459-3.461,4.911-5.152,8.932-4.119a14.321,14.321,0,0,1,3.368,1.344c.018,0,.035.018.061.036.009-.009.018,0,.026.009a.18.18,0,0,1,.052.036c.039,0,.5.281.532.3a23.537,23.537,0,0,1,5.2,4.336v.009c.416.428,1.625,1.885,2.161,2.637a33.367,33.367,0,0,1,5.389,11.661l.165.768C3595.575,1228.894,3588.188,1233.635,3579.729,1228.638Z" transform="translate(-3565.469 -1193.852)" fill="#827b91"/>
                  </g>
                  <g id="Group_393" data-name="Group 393" transform="translate(8.72 38.033)">
                    <path id="Path_6247" data-name="Path 6247" d="M3594.106,1292.7h0Z" transform="translate(-3594.106 -1292.703)" fill="#052440"/>
                  </g>
                </g>
                <g id="Group_417" data-name="Group 417">
                  <g id="Group_416" data-name="Group 416">
                    <g id="Group_399" data-name="Group 399" transform="translate(32.945 35.249)">
                      <g id="Group_396" data-name="Group 396" transform="translate(4.071 42.246)">
                        <path id="Path_6248" data-name="Path 6248" d="M3748.844,1255.41c-13.137,13.524-17.354,13.553-24.706,19.692a21.771,21.771,0,0,1-8.794,4.305s-40.865-20.564-41.278-20.569c-3.1-.046-7.472-4.159-8.736-9.141-.856-3.366,1.908-6.274,2.8-8.206,10.784-3.645,7.338-5.062,35.392-14.96l12.08,7.549C3717.005,1234.737,3746.836,1254.466,3748.844,1255.41Z" transform="translate(-3665.168 -1226.531)" fill="#56485c"/>
                        <path id="Path_6249" data-name="Path 6249" d="M3747.725,1268.441a8.352,8.352,0,0,1-1.079,2.132c-4.2,6.044-5.642,10.341-7.573,14.013a20.026,20.026,0,0,1-4.547,2.766,8.389,8.389,0,0,1-7.169-.22c-9.574-4.814-37.79-18.987-38.142-18.992-2.8-.041-6.655-3.416-8.3-7.753,4.064-1.4-2.477.9,32.06-11.283l8.494,7.051Z" transform="translate(-3676.121 -1242.23)" fill="#827b91" opacity="0.3" style="mix-blend-mode: multiply;isolation: isolate"/>
                        <g id="Group_395" data-name="Group 395" transform="translate(54.245 34.21)">
                          <path id="Path_6250" data-name="Path 6250" d="M3862.285,1349.927l-.954.27a53.274,53.274,0,0,1-18.019,9.014c.062-.092,6.355-9.492,6.419-9.582,2.581-3.634,5.162-7.267,6.42-9.582,1.911-1.127,4.8-.04,6.708-1.167C3863.525,1341.785,3861.619,1347.022,3862.285,1349.927Z" transform="translate(-3843.312 -1338.88)" fill="#bf3329"/>
                        </g>
                      </g>
                      <g id="Group_398" data-name="Group 398">
                        <path id="Path_6251" data-name="Path 6251" d="M3651.8,1219.248c3.28,13.826,14.631,22.591,28.458,25l15.179-1.438,8.952-5.6s-7.759-25.249-7.75-25.8l-17.689.438-15.035.374-6.055,3.51Z" transform="translate(-3651.797 -1173.768)" fill="#827b91"/>
                        <path id="Path_6252" data-name="Path 6252" d="M3668.882,1223.989l3.6,11.733a37.567,37.567,0,0,0,19.66,9.549s0-.018,0-.055c-.064-1.291-1.266-24.924-1.723-32.337l-14.617.365-6.055,3.51Z" transform="translate(-3663.68 -1174.79)" fill="#827b91" opacity="0.6" style="mix-blend-mode: multiply;isolation: isolate"/>
                        <path id="Path_6253" data-name="Path 6253" d="M3739.056,1205.671c.024.107.083.907.162,2.195.457,7.413,1.659,31.046,1.723,32.337,0,.037,0,.055,0,.055l15.178-1.438s-6.72-33-7.281-32.634S3739.056,1205.671,3739.056,1205.671Z" transform="translate(-3712.485 -1169.777)" fill="#827b91" opacity="0.5" style="mix-blend-mode: multiply;isolation: isolate"/>
                        <path id="Path_6254" data-name="Path 6254" d="M3667.813,1168.725l28.238,2.457s12.349-6.707,12.726-7.255c0-.31.354-11.473.356-11.637-.544.279-14.956,7.677-15.5,7.952a62.215,62.215,0,0,1-37.972-14.091c.063.12.179.361.179.361S3644.09,1141.9,3667.813,1168.725Z" transform="translate(-3652.584 -1128.381)" fill="#56485c"/>
                        <g id="Group_397" data-name="Group 397" transform="translate(2.294)">
                          <path id="Path_6255" data-name="Path 6255" d="M3660.111,1105.564c.063.12.116.241.179.361a45.279,45.279,0,0,0,37.793,13.73c.055-.028,16.76-8.49,16.944-8.581l-37.174-23.28-16.244,11.141C3658.451,1102.085,3659.225,1103.562,3660.111,1105.564Z" transform="translate(-3659.331 -1087.794)" fill="#56485c"/>
                          <path id="Path_6256" data-name="Path 6256" d="M3660.111,1105.564c.063.12.116.241.179.361a45.279,45.279,0,0,0,37.793,13.73c.055-.028,16.76-8.49,16.944-8.581l-37.174-23.28-16.244,11.141C3658.451,1102.085,3659.225,1103.562,3660.111,1105.564Z" transform="translate(-3659.331 -1087.794)" fill="#827b91" opacity="0.3" style="mix-blend-mode: multiply;isolation: isolate"/>
                        </g>
                      </g>
                    </g>
                    <g id="Group_415" data-name="Group 415">
                      <path id="Path_6257" data-name="Path 6257" d="M3620.319,1109.207a4.3,4.3,0,0,1-4.829-1.92,4.385,4.385,0,0,1,1.689-5.474c2.347-1.811,4.706-2.323,5.9-1.385a2.684,2.684,0,0,1,.858,1.66C3624.5,1104.719,3622.948,1108.48,3620.319,1109.207Z" transform="translate(-3593.325 -1061.013)" fill="#ff8b1f"/>
                      <path id="Path_6258" data-name="Path 6258" d="M3572.8,1163.138a112.166,112.166,0,0,0,19.869,16.1,14.23,14.23,0,0,0,1.677,6.177c1.315,2.4,3.072,3.817,6.554,6.2,2.812,1.925,6.459,4.286,10.883,6.809-7.683-7.186-5.57-30.672-8.461-41.307-3.333-12.993-11.064-20.63-21.2-23.873h-.009a17.356,17.356,0,0,0-10.353-.313,17.534,17.534,0,0,0-3.486,1.349,9.263,9.263,0,0,0-2.542,2.768c-1.153,2.207-4.139,3.673-5.1,5.3C3557.55,1147.543,3570.7,1160.989,3572.8,1163.138Z" transform="translate(-3555.121 -1083.489)" fill="#fa5b50"/>
                      <path id="Path_6259" data-name="Path 6259" d="M3578.452,1137.043s19.566,4.528,22.938,19.857,5.828,22.947,4,22.334a14.23,14.23,0,0,0,1.677,6.177c1.315,2.4,3.072,3.817,6.554,6.2,2.812,1.925,6.459,4.286,10.883,6.809-7.683-7.186-5.57-30.672-8.461-41.307-3.333-12.993-11.064-20.63-21.2-23.873h-.009a17.356,17.356,0,0,0-10.353-.313,17.534,17.534,0,0,0-3.486,1.349A9.263,9.263,0,0,0,3578.452,1137.043Z" transform="translate(-3567.84 -1083.489)" fill="#dd4c42"/>
                      <path id="Path_6260" data-name="Path 6260" d="M3586.638,1106.522a19.6,19.6,0,0,1,4.409-1.03c11.511-1.219,24.3,10.789,28.3,23.333.518,1.657,1.218,7.906,2.627,20.415,1.557,13.809,4.35,19.654,6.584,20.925a3.906,3.906,0,0,0,1.639.484,101.227,101.227,0,0,1-6.037-22.461c-1.88-12.3-.292-16.941-4.234-25.56-5.674-12.406-16.194-13.5-7.222-21.394C3636.252,1080.677,3591.886,1101.6,3586.638,1106.522Z" transform="translate(-3573.534 -1055.72)" fill="#bf3329"/>
                      <g id="Group_401" data-name="Group 401" transform="translate(4.625 24.032)">
                        <path id="Path_6261" data-name="Path 6261" d="M3601.167,1065.877l-16.359,9.525-26-14.919s15.567-9.062,16.359-9.525C3586.559,1057.543,3601.167,1065.877,3601.167,1065.877Z" transform="translate(-3558.802 -1050.958)" fill="#56485c"/>
                        <g id="Group_400" data-name="Group 400" transform="translate(26.004 14.919)">
                          <path id="Path_6262" data-name="Path 6262" d="M3660.552,1099.954l-.006,1.392-16.356,9.509,0-1.376S3658.425,1101.19,3660.552,1099.954Z" transform="translate(-3644.19 -1099.954)" fill="#45364c"/>
                        </g>
                        <path id="Path_6263" data-name="Path 6263" d="M3584.8,1097.157l0,1.392-26-14.92,0-1.392Z" transform="translate(-3558.793 -1072.713)" fill="#65586b"/>
                      </g>
                      <g id="Group_414" data-name="Group 414">
                        <g id="Group_402" data-name="Group 402">
                          <path id="Path_6264" data-name="Path 6264" d="M3543.6,1047.427l26.308,15.288.1-.058-.022-.013,26.356-15.222c-6.241-3.66.747.415-26.263-15.284Z" transform="translate(-3543.603 -1013.838)" fill="#c49a6c" style="mix-blend-mode: screen;isolation: isolate"/>
                          <path id="Path_6265" data-name="Path 6265" d="M3543.606,987.328c1.426.834,3.339,1.956,5.641,3.293h0q1.237.722,2.618,1.524l.92.533c1.733,1,9.712,5.6,17.125,9.939l.1-.058-.021-.012,26.356-15.221c-5.687-3.345-6.848-3.993-26.264-15.289C3570.082,972.039,3543.609,987.328,3543.606,987.328Z" transform="translate(-3543.605 -972.036)" fill="#feca50"/>
                          <path id="Path_6266" data-name="Path 6266" d="M3543.623,1004.667c2.086,1.215,5.262,3.061,9.177,5.319,4.4,2.54,9.091,5.208,17.137,9.962,6.008-3.483,10-5.808,11.17-6.487h.023l2.147-1.233c-11.029-6.511-16.355-9.487-26.269-15.3C3557.008,996.924,3545.147,1003.8,3543.623,1004.667Z" transform="translate(-3543.617 -989.346)" fill="#ffd779"/>
                          <path id="Path_6267" data-name="Path 6267" d="M3543.607,1022.259l26.286,33.574v-18.3c-8.347-4.913-13.1-7.61-17.1-9.927C3548.876,1025.346,3545.7,1023.489,3543.607,1022.259Z" transform="translate(-3543.606 -1006.966)" fill="#feca50"/>
                          <path id="Path_6268" data-name="Path 6268" d="M3543.606,1022.265v18.3l9.182,5.344,5.871,3.4c4.962,2.883,1.262.733,11.239,6.533,0,0-7.524-9.591-17.109-21.858l-5.736-7.321Z" transform="translate(-3543.605 -1006.97)" fill="#f2b94e"/>
                          <path id="Path_6269" data-name="Path 6269" d="M3629.932,1055.649v.175l26.456-15.279v-18.3l-.137.079C3655.454,1023.819,3630.613,1054.38,3629.932,1055.649Z" transform="translate(-3603.645 -1006.957)" fill="#dca43a"/>
                          <path id="Path_6270" data-name="Path 6270" d="M3629.932,1037.525v18.3c.217-.4,26.229-33.15,26.456-33.578C3656.082,1022.424,3630.239,1037.348,3629.932,1037.525Z" transform="translate(-3603.645 -1006.957)" fill="#f2b94e"/>
                        </g>
                        <g id="Group_413" data-name="Group 413" transform="translate(5.636 3.339)">
                          <g id="Group_407" data-name="Group 407" transform="translate(0.009)">
                            <g id="Group_404" data-name="Group 404" transform="translate(10.258 5.954)">
                              <g id="Group_403" data-name="Group 403">
                                <path id="Path_6271" data-name="Path 6271" d="M3595.829,1017.789q1.214.7,2.621,1.521l26.567-15.231-2.627-1.527c-5.9,3.406-22.307,12.8-26.549,15.231A.023.023,0,0,0,3595.829,1017.789Z" transform="translate(-3595.829 -1002.552)" fill="#56485c"/>
                              </g>
                            </g>
                            <g id="Group_406" data-name="Group 406">
                              <g id="Group_405" data-name="Group 405">
                                <path id="Path_6272" data-name="Path 6272" d="M3562.141,998.246q.648.377,1.337.782l.6.347q.335.2.681.4c9.514-5.457,18.439-10.567,26.589-15.24q-1.237-.722-2.63-1.53C3582.7,986.473,3569.505,994.028,3562.141,998.246Z" transform="translate(-3562.141 -983)" fill="#56485c"/>
                              </g>
                            </g>
                            <path id="Path_6273" data-name="Path 6273" d="M3609.281,1027.329c-4.736,2.716-9.7,5.555-13.412,7.686.791.457,1.667.966,2.624,1.517,2.992-1.717,8.167-4.681,13.4-7.683C3611.032,1028.347,3610.158,1027.838,3609.281,1027.329Z" transform="translate(-3585.599 -1013.831)" fill="#6d5876"/>
                            <path id="Path_6274" data-name="Path 6274" d="M3562.141,1015.507q.648.377,1.337.782l.6.347q.335.2.681.4l13.422-7.7c-.886-.512-1.76-1.021-2.618-1.517C3570.771,1010.562,3565.8,1013.41,3562.141,1015.507Z" transform="translate(-3562.141 -1000.261)" fill="#6d5876"/>
                          </g>
                          <g id="Group_412" data-name="Group 412" transform="translate(0 15.261)">
                            <g id="Group_409" data-name="Group 409" transform="translate(10.267 5.929)">
                              <g id="Group_408" data-name="Group 408">
                                <path id="Path_6275" data-name="Path 6275" d="M3595.829,1052.59c.008,2.989.042,11.87.058,18.339l2.627,1.527c-.007-1.445-.05-15.823-.058-18.358Q3597.04,1053.293,3595.829,1052.59Z" transform="translate(-3595.829 -1052.59)" fill="#56485c"/>
                              </g>
                            </g>
                            <g id="Group_411" data-name="Group 411">
                              <g id="Group_410" data-name="Group 410">
                                <path id="Path_6276" data-name="Path 6276" d="M3562.111,1033.118c.006,1.2.009,2.517.015,3.906.006,2.259.015,4.718.021,7.217v.009c.006,2.4.016,4.841.021,7.177v.031l2.627,1.527v-.031c-.009-1.775-.012-3.578-.019-5.346v-.006c-.006-2.544-.015-5.012-.021-7.217-.006-2.266-.012-4.252-.019-5.757Q3563.323,1033.822,3562.111,1033.118Z" transform="translate(-3562.111 -1033.118)" fill="#56485c"/>
                              </g>
                            </g>
                            <path id="Path_6277" data-name="Path 6277" d="M3595.95,1089.147c.006,2.413.015,4.862.021,7.207l2.627,1.527c-.009-1.784-.012-3.6-.018-5.377Z" transform="translate(-3585.646 -1072.086)" fill="#827b91" opacity="0.3" style="mix-blend-mode: multiply;isolation: isolate"/>
                            <path id="Path_6278" data-name="Path 6278" d="M3562.162,1045.945c.006,2.259.015,4.718.021,7.217v.009c.006,2.4.015,4.841.022,7.177l2.627,1.527c-.009-1.775-.012-3.578-.018-5.346v-.006c-.006-2.544-.015-5.012-.021-7.217Z" transform="translate(-3562.146 -1042.039)" fill="#827b91" opacity="0.3" style="mix-blend-mode: multiply;isolation: isolate"/>
                          </g>
                        </g>
                      </g>
                    </g>
                  </g>
                </g>
              </g>
              <g id="Group_461" data-name="Group 461" transform="translate(53.167)">
                <g id="Group_424" data-name="Group 424" transform="translate(0 37.933)">
                  <g id="Group_419" data-name="Group 419" transform="translate(23.195 72.28)">
                    <path id="Path_6279" data-name="Path 6279" d="M3743.162,1307.018c0-.338.011-.7.016-1.082a1.453,1.453,0,0,1,.718-.108c.037-.041.073-.083.112-.123a6.676,6.676,0,0,1,2.67.307c2.725.266,6.061.7,6.242.444a.692.692,0,0,1,.134.014c0,3.951,1.52,6.188,2.472,8.5a11.913,11.913,0,0,1,.965,3.729,1.757,1.757,0,0,1,.021.243,5.1,5.1,0,0,1-.072,1.553.621.621,0,0,1-.039.145.434.434,0,0,1-.027.112c-.4,2.309-1.851,3.484-5.037,3.285-4.524-.273-6-3.937-7.395-8.134a17.477,17.477,0,0,1-.89-5.464A12.745,12.745,0,0,1,3743.162,1307.018Z" transform="translate(-3743.011 -1305.676)" fill="#ab6454"/>
                    <path id="Path_6280" data-name="Path 6280" d="M3743.051,1313.521a17.407,17.407,0,0,0,.889,5.463c1.395,4.2,2.872,7.86,7.394,8.133,3.2.2,4.647-.981,5.046-3.3a1.945,1.945,0,0,1-.454.723c-1.257,1.22-4.841,1.683-6.518,1.027-3.139-1.227-4.4-5.9-4.724-6.874a19.118,19.118,0,0,1-1.527-8.584A12.9,12.9,0,0,0,3743.051,1313.521Z" transform="translate(-3743.011 -1308.759)" fill="#ab6454" opacity="0.5" style="mix-blend-mode: multiply;isolation: isolate"/>
                  </g>
                  <g id="Group_421" data-name="Group 421" transform="translate(52.466 57.657)">
                    <g id="Group_420" data-name="Group 420">
                      <path id="Path_6281" data-name="Path 6281" d="M3839.153,1262.148v.009a4.228,4.228,0,0,0,1.861,3.783,5.113,5.113,0,0,0,2.986,1.076c3.533.634,3.848,2.588,8.437,4.559.055.024.107.049.162.067,1.971.8,5.954,1.476,7.646-.963a3.445,3.445,0,0,0,.613-2.259c0-.058-.006-.114-.015-.172-.525-3.144-3.439-3.5-8.057-7.732-1.389-1.25-1.689-1.628-2.885-2.857-.969-.04-3.047.11-4.4.068a15.816,15.816,0,0,0-5.316.76,3.36,3.36,0,0,0-.5.865h-.012A6.058,6.058,0,0,0,3839.153,1262.148Z" transform="translate(-3839.137 -1257.653)" fill="#ab6454"/>
                      <path id="Path_6282" data-name="Path 6282" d="M3839.19,1272.445a4.315,4.315,0,0,0,2.06,3.933c1.719,1.214,2.4.5,4.611,1.478,1.587.715,2.29,1.591,4.062,2.676a22.671,22.671,0,0,0,2.551,1.331c2.082.925,6.074,1.534,7.808-.9a3.549,3.549,0,0,0,.592-2.5.02.02,0,0,1,0,.012c-.619,3.36-4.081,3.565-7.186,2.731a12.425,12.425,0,0,1-2.655-1.128c-2.606-1.361-3.286-2.455-5.154-3.3-2.207-.972-2.922-.279-4.611-1.478A5.139,5.139,0,0,1,3839.19,1272.445Z" transform="translate(-3839.174 -1267.941)" fill="#ab6454" opacity="0.5" style="mix-blend-mode: multiply;isolation: isolate"/>
                    </g>
                  </g>
                  <g id="Group_423" data-name="Group 423">
                    <g id="Group_422" data-name="Group 422" transform="translate(0.001 0.012)">
                      <path id="Path_6283" data-name="Path 6283" d="M3668.3,1088.771c.049.092.253.472.313.558a23.742,23.742,0,0,0,4.773,5.4l.11.095a145.367,145.367,0,0,0,12.925,9.546c.58.4,1.174.806,1.791,1.227.083.058.163.122.239.184a3.462,3.462,0,0,1,1.3,2.324v.012a1.721,1.721,0,0,1,.022.211c.007.1,0,.207,0,.31-.009.132-.036.342-.066.552v0c-.233,1.637-.451,3.47-.595,4.9,0,.028,0,.055-.006.086-.1,1.033-.166,1.843-.166,2.207,0,.307-.049,2.688.025,3.36.033.6.1,1.229.178,1.873,0,.033.009.064.012.1.144,1.153.34,2.348.515,3.495.037.23.074.463.108.7.04.276.079.546.113.809a.146.146,0,0,1,.006.037c.1.739.175,1.434.206,2.057.015.016.067,1.1.055,1.116a57.741,57.741,0,0,1-1,11.046c.055.11.119.221.187.328.055.086.11.169.172.252a1.726,1.726,0,0,0,.11.147,5.242,5.242,0,0,0,.35.4s0,.006,0,.006a6.549,6.549,0,0,0,.831.72l0,0c.1.07.2.144.307.211a0,0,0,0,0,0,0c.208.138.426.264.647.383a7.8,7.8,0,0,0,1.717.665c.113.027.227.055.34.076.067.012.135.025.2.034.132.022.264.037.392.049h0c.064.006.129.009.193.012.043,0,.086,0,.129,0h.061a8.794,8.794,0,0,0,5.92-2.146,112.488,112.488,0,0,1,.512-14.948c.92-8.958,1.389-13.443,1.858-15.611a20.583,20.583,0,0,0,.144-8.167,86.976,86.976,0,0,0-7.962-15.73c2.25.509,3.535,1.321,5.822,1.882a.51.51,0,0,0,.111.028c5.5,1.293,9.316,2.857,15.341,4.378a73.534,73.534,0,0,0,1.018,10.831c0,.024.1.6.11.622.84,4.795,2.643,9.351,1.864,20.068a.252.252,0,0,1,0,.135c-.049.727-.1,1.493-.193,2.278a8.242,8.242,0,0,0,11.466-1.965c-2.827-12.474-.8-17.349-1.171-35.734a10.857,10.857,0,0,0-1.809-6.5c-1.011-1.376-2.164-2.229-4.972-3.8-2.683-1.508-4.406-2.468-6.346-3.348-2.172-1-6.931-3.505-11.794-4.617l-.012,0-.908-.221a.17.17,0,0,1-.04-.009.256.256,0,0,1-.055-.015h0a10.242,10.242,0,0,1-3.326-1.432.045.045,0,0,0-.037-.012,13.61,13.61,0,0,1-2.1-1.76,1.06,1.06,0,0,0-.141-.129c-2.662,1.141-8.377,5.805-11.407,6.294-3.9.785-15.378,1.367-18.964,2.489C3666.828,1081.156,3666.072,1084.661,3668.3,1088.771Z" transform="translate(-3666.839 -1068.344)" fill="#526aa1"/>
                    </g>
                    <path id="Path_6284" data-name="Path 6284" d="M3668.3,1088.743c.049.092.253.472.313.558a21.7,21.7,0,0,0,4.773,5.4l.11.095a158.157,158.157,0,0,0,12.925,9.547c.58.4,1.174.806,1.791,1.226.083.058.163.122.239.184a3.71,3.71,0,0,1,1.3,2.324v.012c.009.07.018.141.022.211a3.337,3.337,0,0,1-.043.8.382.382,0,0,0-.021.061v0a43.085,43.085,0,0,0-.595,4.9c0,.028,0,.055-.006.086a40.337,40.337,0,0,0,.037,7.44c0,.034.009.064.012.1.138,1.281.334,2.376.515,3.495.037.23.074.463.108.7.04.267.079.533.113.809a.147.147,0,0,1,.006.037c.013.095.024.186.036.28.356,2.9.416,6.574-.774,13.939.055.11.119.221.187.328.055.086.11.169.172.251a1.727,1.727,0,0,0,.11.147q.161.2.35.4s0,.006,0,.006a6.293,6.293,0,0,0,.831.72l0,0c.1.07.2.144.307.211a0,0,0,0,0,0,0c.208.138.426.264.647.383a8.125,8.125,0,0,0,1.717.665c.113.027.227.055.34.076.067.013.135.025.2.034.132.022.264.037.392.049h0c.064.006.129.009.193.012.043,0,.086,0,.129,0h.061a8.793,8.793,0,0,0,5.92-2.146c-10.237,1-9.586-13.3-8.964-23.56.227-3.746.365-5.617.383-5.825.42-5.163.668-5.617.292-6.941-1.042-3.676-4.543-5.736-5.2-6.122-3.023-1.769-4.734-.9-9.323-5.006a21.346,21.346,0,0,1-4.651-5.592c-1.03-1.861-2.545-4.6-1.567-5.849.705-.889,2.051.055,6.156-.043.892-.022,11.521-1.125,25.844-9.74q5.716.8,8.483,1.073a42.308,42.308,0,0,0-7.453-2.591h-.009l0,0a3.343,3.343,0,0,1-.892-.218.027.027,0,0,1-.016,0,.167.167,0,0,1-.04-.009.259.259,0,0,1-.055-.015h0c-.454-.153-3.21-1.37-3.326-1.432a.045.045,0,0,0-.037-.012,7.42,7.42,0,0,1-2.244-1.888l0-.012c-5.711,3.264-8.629,5.687-11.122,6.248-.1.025-.193.043-.288.058-3.9.785-15.378,1.367-18.964,2.489C3666.724,1081.592,3666.169,1084.633,3668.3,1088.743Z" transform="translate(-3666.837 -1068.304)" fill="#526aa1" opacity="0.3" style="mix-blend-mode: multiply;isolation: isolate"/>
                    <path id="Path_6285" data-name="Path 6285" d="M3779.072,1158.425a51.886,51.886,0,0,0-1.334-17.319,75.194,75.194,0,0,1-1.66-14.2c-3.069-.776-9.3-2.48-15.341-4.378-.054,0-2.462-.773-2.513-.79-1.16-.369-2.3-.75-3.419-1.119-.774-1.055-1.572-2.1-2.369-3.155a5.13,5.13,0,0,0,1.446-1.739c14.561,3.784,16.524,3.983,21.121,5.9a17.761,17.761,0,0,1,3.9,1.964c1.225.88,1.616,1.493,2.86,1.936,1.534.545,2.4.108,2.662.61.413.771-1.669,2.015-2.738,4.524a9.846,9.846,0,0,0-.591,4.665c.214,4.4.157,6.594.837,9.882a129.14,129.14,0,0,1,2.15,17.125,8.694,8.694,0,0,1-5.21-1.485c.1-.787.145-1.552.192-2.28A.251.251,0,0,0,3779.072,1158.425Z" transform="translate(-3726.37 -1101.282)" fill="#526aa1" opacity="0.3" style="mix-blend-mode: multiply;isolation: isolate"/>
                  </g>
                </g>
                <g id="Group_443" data-name="Group 443" transform="translate(36.807 48.925)">
                  <g id="Group_427" data-name="Group 427" transform="translate(36.935)">
                    <path id="Path_6286" data-name="Path 6286" d="M3912.176,1109.945h0c10.321-5.8,9.846-5.513,9.846-5.513a.581.581,0,0,1,.086-.019.567.567,0,0,1,.086-.008.74.74,0,0,1,.088,0,1.971,1.971,0,0,1,1.262.959c.051.082.075.127.074.125.345.595.551,1.645-.029,1.97l-9.731,5.464a.642.642,0,0,0,.174-.191c-.675.9-2.243-.709-2.22-2.02C3911.824,1110.1,3912.176,1109.945,3912.176,1109.945Z" transform="translate(-3910.959 -1104.404)" fill="#827b91"/>
                    <path id="Path_6287" data-name="Path 6287" d="M3913.91,1114.867a.237.237,0,0,1-.063.061l9.727-5.457c.581-.334.379-1.379.029-1.976a1.211,1.211,0,0,0-.137-.2.683.683,0,0,1-.319.493l-9.727,5.457.047-.046c-.456.351-1.165-.1-1.622-.786C3911.463,1113.5,3913.069,1115.577,3913.91,1114.867Z" transform="translate(-3910.942 -1106.412)" fill="#3a3944"/>
                    <g id="Group_426" data-name="Group 426" transform="translate(0 3.685)">
                      <path id="Path_6288" data-name="Path 6288" d="M3909.674,1116.957c.106-.06.58-.332.685-.373a1.677,1.677,0,0,1,1.434.238s.071.042.156.1a4.991,4.991,0,0,1,1.827,2.606,4.129,4.129,0,0,1,.133.6,2.325,2.325,0,0,1-.2,1.5,2.111,2.111,0,0,1-.977.757c.006,0,.009-.011.014-.014-1.438.844-3.772-1.793-3.733-4C3909.03,1117.237,3909.674,1116.957,3909.674,1116.957Z" transform="translate(-3909.01 -1116.506)" fill="#fa5b50"/>
                      <g id="Group_425" data-name="Group 425" transform="translate(0 0.311)">
                        <path id="Path_6289" data-name="Path 6289" d="M3911.241,1117.842c-1.2-.718-2.206-.176-2.231,1.228a4.848,4.848,0,0,0,2.141,3.839c1.211.723,2.216.181,2.24-1.222A4.851,4.851,0,0,0,3911.241,1117.842Z" transform="translate(-3909.01 -1117.526)" fill="#dd4c42"/>
                      </g>
                    </g>
                  </g>
                  <path id="Path_6290" data-name="Path 6290" d="M3850.908,1136.254h.016a4.08,4.08,0,0,1,.393-.228.214.214,0,0,0,.109-.061.015.015,0,0,0,.016-.015c1.49-.834,5.8-3.244,9.931-5.548a2.4,2.4,0,0,0-.169-1.185c5.1-2.834,8.974-5,9.005-5a.637.637,0,0,1,.171-.013.151.151,0,0,0,.062.016c.016,0,.031.016.046.016,0-.016-.015-.031-.015-.047a2.253,2.253,0,0,0-1.362-1.514.2.2,0,0,1-.077-.017.529.529,0,0,0-.156.013c-.159,0-18.781,10.5-18.92,10.58-.053,0-.474.289-.518.288A3.092,3.092,0,0,0,3850.908,1136.254Z" transform="translate(-3830.624 -1117.1)" fill="#e0e5f6"/>
                  <g id="Group_429" data-name="Group 429" transform="translate(18.797 10.457)">
                    <path id="Path_6291" data-name="Path 6291" d="M3850.931,1147.442h.016a.782.782,0,0,0,1.091-.155.867.867,0,0,1-.19.215l9.163-5.17c.527-.34.458-1.342.215-1.926-.214-.68-1.064-1.649-1.858-1.661-.281.011-9.24,5.138-9.491,5.274C3848.895,1144.561,3849.731,1146.791,3850.931,1147.442Z" transform="translate(-3849.443 -1138.745)" fill="#e0e5f6"/>
                    <g id="Group_428" data-name="Group 428" transform="translate(0 5.183)">
                      <path id="Path_6292" data-name="Path 6292" d="M3849.441,1156.755a3.125,3.125,0,0,0,1.395,2.479.328.328,0,0,0,.108.048c.747.387,1.307-.016,1.32-.836a3.087,3.087,0,0,0-1.364-2.463C3850.113,1155.5,3849.47,1155.853,3849.441,1156.755Z" transform="translate(-3849.441 -1155.768)" fill="#b3bad3"/>
                    </g>
                  </g>
                  <path id="Path_6293" data-name="Path 6293" d="M3804.453,1167.807a.536.536,0,0,1-.013-.156.75.75,0,0,1,.337-.7c1.011-.611,13.274-7.43,14.576-8.217,0-.016-.015-.031-.015-.047-.4-1.086-1.3-1.435-1.52-1.329a.211.211,0,0,0-.078.014.125.125,0,0,0-.047.015c-.016,0-.032.015-.047.015-.2.117-14.009,7.889-14.215,8.005C3803.033,1165.618,3802.619,1166.751,3804.453,1167.807Z" transform="translate(-3798.406 -1141.224)" fill="#e0e5f6"/>
                  <path id="Path_6294" data-name="Path 6294" d="M3807.525,1170.835a.536.536,0,0,0,.013.156,5.684,5.684,0,0,1,.493.318c.139-.083,14.035-7.89,14.152-7.975a.213.213,0,0,0,.109-.061.016.016,0,0,0,.016-.015,1.165,1.165,0,0,0,.173-1.2.363.363,0,0,0-.045-.141c-1.3.787-13.564,7.607-14.576,8.217A.75.75,0,0,0,3807.525,1170.835Z" transform="translate(-3801.492 -1144.408)" fill="#b3bad3"/>
                  <path id="Path_6295" data-name="Path 6295" d="M3888.135,1132.747a2.4,2.4,0,0,1,.169,1.185c4.283-2.411,8.362-4.684,8.833-4.957a1.08,1.08,0,0,0,.282-1.209c-.015,0-.031-.016-.046-.016a.153.153,0,0,1-.062-.016.637.637,0,0,0-.171.013C3897.109,1127.745,3893.234,1129.912,3888.135,1132.747Z" transform="translate(-3857.556 -1120.629)" fill="#b3bad3"/>
                  <path id="Path_6296" data-name="Path 6296" d="M3857.544,1151.25l9.1-5.124c.527-.34.458-1.342.215-1.926-2.824,1.607-6.04,3.412-9.178,5.154C3857.939,1149.945,3858.055,1150.862,3857.544,1151.25Z" transform="translate(-3836.28 -1132.082)" fill="#b3bad3"/>
                  <g id="Group_438" data-name="Group 438" transform="translate(0 19.407)">
                    <g id="Group_434" data-name="Group 434" transform="translate(5.506 2.096)">
                      <g id="Group_433" data-name="Group 433" style="isolation: isolate">
                        <g id="Group_430" data-name="Group 430" transform="translate(6.735 0.896)">
                          <path id="Path_6297" data-name="Path 6297" d="M3827.924,1177.96l-.012,1.022,1.523.831.012-1.022Z" transform="translate(-3827.912 -1177.96)" fill="#595a5b"/>
                        </g>
                        <g id="Group_431" data-name="Group 431" transform="translate(8.258 1.727)">
                          <path id="Path_6298" data-name="Path 6298" d="M3832.926,1180.691l-.012,1.022.8,1.2.012-1.022Z" transform="translate(-3832.914 -1180.691)" fill="#3a3944"/>
                        </g>
                        <path id="Path_6299" data-name="Path 6299" d="M3807.812,1189.228v0l8.873-4.958-.015,1.028-8.869,4.944v0h-.006c-.24-.059-2-.481-2-.728l.012-1.022C3805.8,1188.746,3807.572,1189.169,3807.812,1189.228Z" transform="translate(-3805.793 -1181.456)" fill="#3a3944"/>
                        <g id="Group_432" data-name="Group 432" transform="translate(0.018)">
                          <path id="Path_6300" data-name="Path 6300" d="M3807.854,1182.791l8.871-4.948-1.225-1.756-1.311-1.068-1.606.9,1.523.832.8,1.2-6.974,3.89a5.645,5.645,0,0,0-2.015.148C3805.492,1182.219,3807.382,1182.675,3807.854,1182.791Z" transform="translate(-3805.853 -1175.018)" fill="#827b91"/>
                        </g>
                      </g>
                    </g>
                    <g id="Group_436" data-name="Group 436" transform="translate(8.925)">
                      <path id="Path_6301" data-name="Path 6301" d="M3817.7,1168.59l-.006,0h0c.038-.021.565-.318.6-.337a1.048,1.048,0,0,1,.276-.092c1.032-.225,2.2.962,2.735,1.884a5.08,5.08,0,0,1,.5,1.158,3.235,3.235,0,0,1,.113,1.5c-.145.809-.541.957-1.171,1.311.006,0,.009-.011.014-.014a1.549,1.549,0,0,1-1.592-.165C3817.3,1172.715,3816.253,1169.393,3817.7,1168.59Z" transform="translate(-3817.022 -1168.136)" fill="#fa5b50"/>
                      <g id="Group_435" data-name="Group 435" transform="translate(0.009 0.316)">
                        <path id="Path_6302" data-name="Path 6302" d="M3819.283,1169.489c-1.2-.718-2.206-.176-2.23,1.228a4.845,4.845,0,0,0,2.141,3.839c1.211.724,2.216.182,2.24-1.222A4.849,4.849,0,0,0,3819.283,1169.489Z" transform="translate(-3817.053 -1169.172)" fill="#dd4c42"/>
                      </g>
                    </g>
                    <path id="Path_6303" data-name="Path 6303" d="M3788.111,1179.667c10.322-5.8,9.846-5.513,9.846-5.513a.657.657,0,0,1,.086-.02.716.716,0,0,1,.174-.005,1.192,1.192,0,0,1,.5.175h0a2.664,2.664,0,0,1,1.064,1.417c.02.064.027.09.027.089a1.177,1.177,0,0,1-.28,1.373l-9.731,5.464a.639.639,0,0,0,.176-.193c-.672.9-2.245-.7-2.222-2.017C3787.759,1179.823,3788.111,1179.667,3788.111,1179.667Z" transform="translate(-3787.737 -1172.302)" fill="#827b91"/>
                    <path id="Path_6304" data-name="Path 6304" d="M3789.946,1184.48a.738.738,0,0,1-.174.2l9.727-5.473a1.149,1.149,0,0,0,.285-1.365.489.489,0,0,1-.03-.094,2.753,2.753,0,0,0-.363-.706.817.817,0,0,1-.318.478l-9.727,5.458a.125.125,0,0,0,.063-.062c-.457.382-1.182-.064-1.638-.755C3787.359,1183.339,3789.194,1185.5,3789.946,1184.48Z" transform="translate(-3787.712 -1174.33)" fill="#3a3944"/>
                    <g id="Group_437" data-name="Group 437" transform="translate(0.011 7.288)">
                      <path id="Path_6305" data-name="Path 6305" d="M3788.983,1192.248c-.669-.4-1.222-.107-1.236.669a2.679,2.679,0,0,0,1.187,2.115c.659.394,1.212.09,1.226-.675A2.658,2.658,0,0,0,3788.983,1192.248Z" transform="translate(-3787.747 -1192.07)" fill="#3a3944"/>
                    </g>
                  </g>
                  <g id="Group_442" data-name="Group 442" transform="translate(38.157 3.231)">
                    <g id="Group_441" data-name="Group 441" style="isolation: isolate">
                      <g id="Group_439" data-name="Group 439" transform="translate(0 1.178)">
                        <path id="Path_6306" data-name="Path 6306" d="M3913.036,1122.267l-.015,1.016c2.253,1.01,1.157.64,4.792,1.575l8.875-4.947,0-1.028-8.862,4.947C3914.227,1122.9,3915.242,1123.24,3913.036,1122.267Z" transform="translate(-3913.021 -1118.883)" fill="#3a3944"/>
                      </g>
                      <g id="Group_440" data-name="Group 440" transform="translate(0.015)">
                        <path id="Path_6307" data-name="Path 6307" d="M3913.069,1119.575c2.254,1,1.156.634,4.788,1.568l8.871-4.948c-.254-.381-.931-1.37-1.33-1.148-.292.163-.41.806-.33,1.16l-6.974,3.89-2.048-.511-1.37-.908Z" transform="translate(-3913.069 -1115.015)" fill="#827b91"/>
                      </g>
                    </g>
                  </g>
                </g>
                <g id="Group_448" data-name="Group 448" transform="translate(39.081 9.259)">
                  <g id="Group_447" data-name="Group 447">
                    <g id="Group_445" data-name="Group 445" transform="translate(33.278 35.072)">
                      <g id="Group_444" data-name="Group 444">
                        <path id="Path_6308" data-name="Path 6308" d="M3906.231,1094.429a.037.037,0,0,1,.01.022,9.2,9.2,0,0,0,3,3.809,1.879,1.879,0,0,1,1.862-.45c.743.369,1.113,1.818.235,3.193a1.951,1.951,0,0,0,2.833-1.488,2.2,2.2,0,0,0,.684-.023,1.3,1.3,0,0,0,.885-.432,1.065,1.065,0,0,0,.216-.637,1.172,1.172,0,0,0,1.738-.853.729.729,0,0,0,.542.041.8.8,0,0,0,.386-.439,4.135,4.135,0,0,0,.186-2.265,5.013,5.013,0,0,0-.214-.914,4.838,4.838,0,0,0-3.409-3.175q-1.406-.4-2.933-.769-1.568-.377-3.041-.664c-1.409-.277-4.17.3-4.669,1.916a3.306,3.306,0,0,0,.9,2.75Z" transform="translate(-3904.467 -1089.318)" fill="#ffcfcd"/>
                      </g>
                    </g>
                    <path id="Path_6309" data-name="Path 6309" d="M3906.795,1101.43c.419.194.467.188,1.056.493a9.511,9.511,0,0,0,1.611,2.552,8.9,8.9,0,0,0,1.4,1.279,1.88,1.88,0,0,1,1.862-.45c.743.369,1.112,1.818.235,3.193a1.951,1.951,0,0,0,2.832-1.488,2.2,2.2,0,0,0,.684-.022,1.3,1.3,0,0,0,.885-.432,1.066,1.066,0,0,0,.215-.637,1.171,1.171,0,0,0,1.738-.853.729.729,0,0,0,.542.041.8.8,0,0,0,.386-.439,4.138,4.138,0,0,0,.186-2.265c-1.064.787-6.373,4.658-6.453,3.5-.079-1.292-1.293-1.343-2.488-1.219a1.108,1.108,0,0,1-.605-.089c-1.123-.548-1.435-2.365-1.451-2.491-.135-1.076.205-1.573-.113-1.862-.366-.333-1.2-.028-1.925.335l-.319.277a1.459,1.459,0,0,0-.078.151v.011Z" transform="translate(-3872.808 -1061.74)" fill="#ffcfcd" opacity="0.5" style="mix-blend-mode: multiply;isolation: isolate"/>
                    <path id="Path_6310" data-name="Path 6310" d="M3795.182,981.4c-.028.319.54,3.167,1.389,6.956.494,2.212,4.563,20.118,6.257,21.6.008.006.41.331.42.331a10.91,10.91,0,0,0,5.031,1.738c4.216.649,10.184,1.1,12.108,1.21,2.425.092,4.956.409,9.045.706a4.567,4.567,0,0,1,.638-2.52,4.83,4.83,0,0,1,3.136-2.146c-.663-.246-1.752-.644-3.11-1.1-2.445-.818-4.284-1.329-5.008-1.533-6.293-1.771-14.379-4.582-14.051-4.547-1-4.347-1.431-10.777-2.427-15.124.935-7.48-1.291-10.445-4.981-12.11-.42-.19-3.21-1.447-5.559-.138a5.879,5.879,0,0,0-2.4,2.888A9.408,9.408,0,0,0,3795.182,981.4Z" transform="translate(-3795.18 -974.139)" fill="#fa5b50"/>
                    <g id="Group_446" data-name="Group 446" transform="translate(1.39 14.218)">
                      <path id="Path_6311" data-name="Path 6311" d="M3799.745,1020.833c1.1,4.939,2.689,11.472,4.065,16.077a2.926,2.926,0,0,1,.251.491c.329.988.748,2.593.748,2.593a7.49,7.49,0,0,0,1.193,2.44c1.7,1.405,3.274,1.721,5.451,2.069a105,105,0,0,0,12.1,1.195s0,.006.006.015c2.425.092,4.752.409,9.045.706a4.567,4.567,0,0,1,.638-2.52,4.83,4.83,0,0,1,3.136-2.146,3.9,3.9,0,0,0-1.3-.153c-2.421.13-3.865,2.567-4.062,2.912a132.736,132.736,0,0,1-22.149-3.679,21.751,21.751,0,0,1-1.147-2.29c-3.706-8.516,1.971-17.561,1.836-17.254Q3804.655,1021.06,3799.745,1020.833Z" transform="translate(-3799.745 -1020.833)" fill="#d14137"/>
                    </g>
                  </g>
                </g>
                <g id="Group_449" data-name="Group 449" transform="translate(0.699 10.822)">
                  <path id="Path_6312" data-name="Path 6312" d="M3689.926,1017.943a.776.776,0,0,0,.089-.021,28.914,28.914,0,0,0,10.736-5.046c.938-.883,3.657-2.25,4.6-3.133-.714-2.8-1.646-3.424-1.346-3.749a9.519,9.519,0,0,1,2.578-1.456,11.391,11.391,0,0,0,3.112-1.757v0a20.133,20.133,0,0,0,4.387-4.491c.009,0,.009,0,0-.006a20.4,20.4,0,0,0,2.155-3.875c.006-.006.006-.012.009-.018.647-1.312,5.61-10.712,1.275-12.343-7.56-2.848-11.692-3.173-16.742-2.431A32.975,32.975,0,0,0,3687.7,984.9a23.361,23.361,0,0,0-5.371,4.856c-7.6,8.992-13.069,24.323-13.191,26.157C3677.252,1016.494,3680.451,1020.082,3689.926,1017.943Z" transform="translate(-3669.134 -979.271)" fill="#fa5b50"/>
                  <path id="Path_6313" data-name="Path 6313" d="M3669.134,1026.622c7.633.546,10.88,3.74,19.182,2.351a28.642,28.642,0,0,0,12.435-5.389c.938-.883,3.657-2.25,4.6-3.133a24.5,24.5,0,0,0-1.4-3.6.2.2,0,0,1,.058-.147v0a9.519,9.519,0,0,1,2.578-1.456,13.869,13.869,0,0,0,2.621-1.374c.006-.006.144-.11.153-.113a22.319,22.319,0,0,0,4.724-4.764c.009,0,.009,0,0-.006a20.386,20.386,0,0,0,2.155-3.875c.006-.006.006-.012.009-.018a20.927,20.927,0,0,0,1.438-5.377c.607-.423,1.048-.883.987-1.325l-16.477-3.724c-1.367.215-2.154,3.345-2.018,5.665.28,4.786,4.568,7.568,5.212,7.971a31.178,31.178,0,0,1-22.788-2.759l-.58.35c-.319.19-.637.38-.953.57a21.109,21.109,0,0,1,1.26-6C3674.726,1009.457,3669.257,1024.788,3669.134,1026.622Z" transform="translate(-3669.134 -989.98)" fill="#dd4c42"/>
                  <path id="Path_6314" data-name="Path 6314" d="M3669.134,1039.862c7.633.546,10.88,3.74,19.182,2.351a28.642,28.642,0,0,0,12.435-5.389c.938-.883,3.657-2.25,4.6-3.133a24.484,24.484,0,0,0-1.4-3.6c-.257.414-1.576,1.8-8.366,5.555-8.584,4.752-14.562,1.226-14.562,1.226l.1-17.935,1.21-5.233C3674.726,1022.7,3669.257,1038.028,3669.134,1039.862Z" transform="translate(-3669.134 -1003.22)" fill="#d14137"/>
                </g>
                <g id="Group_455" data-name="Group 455" transform="translate(32.073)">
                  <path id="Path_6315" data-name="Path 6315" d="M3779.372,989.367a1.95,1.95,0,0,0-2.04,1.612,10.263,10.263,0,0,0,2.412,8.636c1.367,1.551,3.975,2.677,5.108,1.852.892-.65,3.484-.746,3.747-.987.032-.03.024-.08.031-.107C3789.808,996.3,3785.058,989.649,3779.372,989.367Z" transform="translate(-3775.647 -975.469)" fill="#ffcfcd"/>
                  <path id="Path_6316" data-name="Path 6316" d="M3779.372,989.367a1.95,1.95,0,0,0-2.04,1.612,10.263,10.263,0,0,0,2.412,8.636c1.367,1.551,3.975,2.677,5.108,1.852.892-.65,3.484-.746,3.747-.987.032-.03.024-.08.031-.107C3789.808,996.3,3785.058,989.649,3779.372,989.367Z" transform="translate(-3775.647 -975.469)" fill="#ffcfcd" style="mix-blend-mode: multiply;isolation: isolate"/>
                  <g id="Group_454" data-name="Group 454">
                    <path id="Path_6317" data-name="Path 6317" d="M3776.213,958.046a29.006,29.006,0,0,0,3.153,9.776,18.43,18.43,0,0,0,4.9,4.938c.013,0,.038.013.037.026a6.588,6.588,0,0,0,4.849,1.087c2.926-.653,4.321-3.714,5.083-5.384a13.171,13.171,0,0,0,1.114-4.141c-1.412-10.2-7.371-16.761-10.2-16.563-1.054.06-1.8,1.5-5.17,2.857C3776.528,952.045,3776,955.385,3776.213,958.046Z" transform="translate(-3774.953 -946.547)" fill="#ffcfcd"/>
                    <path id="Path_6318" data-name="Path 6318" d="M3776.306,973.229a29.006,29.006,0,0,0,3.153,9.776,18.43,18.43,0,0,0,4.9,4.938,4.651,4.651,0,0,1-1.667-2.532,5.745,5.745,0,0,1,1.011-4.8c.957-1.127,1.894-.912,5.438-.647a15.618,15.618,0,0,0,6.233-.924c-.023-.163-.045-.327-.08-.49-2.007-1.672-10.567-8.707-12.582-8.925C3780.914,969.436,3778.093,971.1,3776.306,973.229Z" transform="translate(-3775.045 -961.73)" fill="#ffcfcd" opacity="0.5" style="mix-blend-mode: multiply;isolation: isolate"/>
                    <g id="Group_453" data-name="Group 453">
                      <g id="Group_452" data-name="Group 452">
                        <path id="Path_6319" data-name="Path 6319" d="M3783.256,974.808c-1.928-.636-2.618,3.428-3.531,4.61a1.83,1.83,0,0,1-.77.615c-1.54.607-4.023-1.357-4.991-3.6a7.189,7.189,0,0,1-.5-2.72c-.054-1.606-.208-6.242,1.974-7.5,3.251-1.869,10.826,4.266,10.826,4.266Z" transform="translate(-3773.051 -959.124)" fill="#3a3f56"/>
                        <g id="Group_451" data-name="Group 451" transform="translate(9.621 13.942)">
                          <g id="Group_450" data-name="Group 450">
                            <path id="Path_6320" data-name="Path 6320" d="M3815.808,991.686c.278.2,3.34,2.49,2.843,3.621-.3.693-1.81.646-3.839.583a22.426,22.426,0,0,1-6.266-1.178,9.194,9.194,0,0,1-1.576-.578c-1.962-1.039-3.541-3.236-3.147-4.08S3806.889,989.109,3815.808,991.686Z" transform="translate(-3803.761 -989.518)" fill="#3a3f56"/>
                          </g>
                        </g>
                        <path id="Path_6321" data-name="Path 6321" d="M3772.764,951.9a12.582,12.582,0,0,0-.4,5.916,8.668,8.668,0,0,0,1.571,3.821c.593.784,1.4,1.961,2.683,2.029a2.2,2.2,0,0,0,1.27-.3c.881-.541.737-1.435,1.648-3.2.534-1.036.8-1.555,1.319-1.772.883-.371,1.708.27,3.309.93a16.4,16.4,0,0,0,3.921.8,25.34,25.34,0,0,0,6.236.084,11.248,11.248,0,0,0,1.25-6.483c-.661-5.594-5.544-8.329-6.111-8.635a12.487,12.487,0,0,0-11.206-.059,9.865,9.865,0,0,0-3.709,2.913A10.61,10.61,0,0,0,3772.764,951.9Z" transform="translate(-3772.167 -943.731)" fill="#77b749"/>
                        <path id="Path_6322" data-name="Path 6322" d="M3791.015,954.738c.89,3.987,6.537,5.7,9.036,6.462a22.805,22.805,0,0,0,7.285.958c5.56-12.943-13.14-21.375-16.089-10.944A7.372,7.372,0,0,0,3791.015,954.738Z" transform="translate(-3785.187 -945.674)" fill="#80cf58"/>
                      </g>
                    </g>
                  </g>
                </g>
                <g id="Group_460" data-name="Group 460" transform="translate(10.148 20.318)">
                  <g id="Group_459" data-name="Group 459">
                    <path id="Path_6323" data-name="Path 6323" d="M3700.163,1126.547v.012a.047.047,0,0,1,0-.012Z" transform="translate(-3700.163 -1091.197)" fill="#ffcfcd"/>
                    <g id="Group_457" data-name="Group 457" transform="translate(24.894 45.783)">
                      <g id="Group_456" data-name="Group 456">
                        <path id="Path_6324" data-name="Path 6324" d="M3782.922,1163.781a.175.175,0,0,1,.021.031v0a4.923,4.923,0,0,1,.583,1.116,2.226,2.226,0,0,1,.181.209c.4,1.107.172,1.921.831,3.02a.094.094,0,0,0,.019.034,6.9,6.9,0,0,0,1.018,1.248,2.144,2.144,0,0,1,1.959,3.372c.5.6,1.229.4,1.748-.16.242-.3.27-.57.466-.589.15-.021.2.132.429.221.745.261,1.757-.6,1.588-1.787.15.208.3.417.448.613a1.729,1.729,0,0,0,1.683-1.646c-.077-.672.546-.1.831.469a2.768,2.768,0,0,1,.23,1.294c0,1.248-.147,3.265.944,2.836.785-.282.883-1.757.953-2.882a10.017,10.017,0,0,0-.116-2.3c-.411-2.039-3.531-5.282-8.563-7.873a4.469,4.469,0,0,0-3.136.2A5.057,5.057,0,0,0,3782.922,1163.781Z" transform="translate(-3782.615 -1160.811)" fill="#ffcfcd"/>
                        <path id="Path_6325" data-name="Path 6325" d="M3781.915,1169.974c.062.056,1.056,1.01,1.082,1.089.006.006.009.009.009.012.366,1,.242,2.038.831,3.02a.092.092,0,0,0,.019.034,6.663,6.663,0,0,0,1.018,1.248,2.144,2.144,0,0,1,1.959,3.372c.5.6,1.229.4,1.748-.16.242-.3.27-.57.466-.589.15-.021.2.132.429.221.745.261,1.757-.6,1.588-1.787.15.208.3.417.448.613a1.729,1.729,0,0,0,1.683-1.646c-.077-.671.546-.1.831.469a2.768,2.768,0,0,1,.23,1.294c0,1.248-.147,3.265.944,2.836.785-.282.883-1.757.953-2.882a5.5,5.5,0,0,0,.028-1.064l-.015.016c-.775.592-1.079.564-1.2.478-.107-.067-.107-.187-.312-.852a2.41,2.41,0,0,0-.88-1.49c-.6-.475-.791-.782-1.407-.181-.374.362-.27.733-.533.837-.239.116-.4-.2-.779-.175-.478.015-.5.494-1.162.763a3.062,3.062,0,0,1-1.358.156,2.721,2.721,0,0,1-.607-.064c-.592-.206-.531-.672-1.177-1.1a13.041,13.041,0,0,0-1.821-.687c-.42-.279-.457-.757-.748-1.551a12.808,12.808,0,0,0-.637-1.628c-.147-.294-.362-.644-.7-1.18a.1.1,0,0,0-.021-.046c-.077.052-.344.239-.583.4v0Z" transform="translate(-3781.915 -1166.747)" fill="#ffcfcd" opacity="0.5" style="mix-blend-mode: multiply;isolation: isolate"/>
                      </g>
                    </g>
                    <path id="Path_6326" data-name="Path 6326" d="M3701.1,1042.738c1.95,5.852,16.751,12.069,22.487,15.227a12.072,12.072,0,0,1,3.213,2.6,3.712,3.712,0,0,1,.717-3.014,3.644,3.644,0,0,1,3.75-1.119q-5.1-4.713-10.47-9.482-3.932-3.485-7.817-6.821a88.972,88.972,0,0,1,2.146-10.117c2.287-8.37,4.258-10.785,2.906-14.044-1.459-3.52-6.061-6.318-9.4-5.3-4.283,1.3-4.641,4.54-5.095,5.549-1.19,2.659-2.167,22.07-2.373,25.577C3701.13,1042.287,3701.112,1042.612,3701.1,1042.738Z" transform="translate(-3700.815 -1010.457)" fill="#fa5b50"/>
                    <g id="Group_458" data-name="Group 458" transform="translate(0.285 31.337)">
                      <path id="Path_6327" data-name="Path 6327" d="M3701.1,1114.312c1.95,5.852,16.751,12.07,22.487,15.227a12.073,12.073,0,0,1,3.213,2.6,3.712,3.712,0,0,1,.717-3.014,3.644,3.644,0,0,1,3.75-1.119,4.243,4.243,0,0,0-5.429,1.095,80.242,80.242,0,0,1-24.676-15.736Q3701.131,1113.84,3701.1,1114.312Z" transform="translate(-3701.1 -1113.368)" fill="#dd4c42"/>
                    </g>
                  </g>
                </g>
              </g>
              <g id="Group_480" data-name="Group 480" transform="translate(51.635 55.385)">
                <g id="Group_472" data-name="Group 472" transform="translate(67.95 59.526)">
                  <g id="Group_471" data-name="Group 471">
                    <g id="Group_470" data-name="Group 470">
                      <g id="Group_469" data-name="Group 469">
                        <g id="Group_465" data-name="Group 465" transform="translate(3.572 11.307)">
                          <path id="Path_6328" data-name="Path 6328" d="M3918.108,1391.4c5.678.009,13.111,6.728,16.136,15.885,3.736,11.338-1.911,18.738-10.518,14.08a27.951,27.951,0,0,1-6.31-5.408c27.469,5.442-11.256-29.835-4.724-8.414v0h0l-.374-1.226C3910.3,1399.683,3911.186,1391.4,3918.108,1391.4Z" transform="translate(-3906.9 -1381.302)" fill="#e0e5f6"/>
                          <path id="Path_6329" data-name="Path 6329" d="M3899.314,1384.238c-3.579-11.825,1.781-19.937,10.891-16.027,8.549,3.685,15.544,15.68,15.384,25.051-.213,11.739-10.792,12.8-19.509,3.01.277.319.566.638.854.956,5.881,6.627,13.5,9.877,18.542,6.621l-.4.222a8.231,8.231,0,0,0,1.382-.988,6.11,6.11,0,0,1-.944.745l7.9-4.429c5.646-3.171,5.6-11.711,3.89-18.018-3.4-12.614-14.39-23.984-23.235-23.1-2.2.228-2.538.625-11.191,5.487.12-.053.229-.105.338-.158-.218.1-.437.21-.645.327-2.932,1.628-4.49,5.011-4.851,8.836C3897.317,1376.972,3898.176,1380.489,3899.314,1384.238Z" transform="translate(-3897.334 -1358.237)" fill="#45364c"/>
                          <path id="Path_6330" data-name="Path 6330" d="M3987.78,1506.5a5.516,5.516,0,0,0,1.382-.988A8.21,8.21,0,0,1,3987.78,1506.5Z" transform="translate(-3960.042 -1460.669)" fill="#052440"/>
                          <g id="Group_462" data-name="Group 462" transform="translate(1.064 11.173)">
                            <ellipse id="Ellipse_12" data-name="Ellipse 12" cx="7.86" cy="13.569" rx="7.86" ry="13.569" transform="matrix(0.872, -0.49, 0.49, 0.872, 0, 7.696)" fill="#fff"/>
                          </g>
                          <g id="Group_463" data-name="Group 463" transform="translate(7.566 18.727)">
                            <ellipse id="Ellipse_13" data-name="Ellipse 13" cx="4.073" cy="7.032" rx="4.073" ry="7.032" transform="translate(0 3.988) rotate(-29.316)" fill="#45364c"/>
                          </g>
                          <path id="Path_6331" data-name="Path 6331" d="M3909.478,1385.169c3.707,1.57,6.318,4.154,8.867,7.018-2.816-3.162-7.3-6.428-11.464-5.762-7.846,1.252-7.449,15.006.714,24.792,7.107,8.514,16.064,8.757,17.5.037a19.252,19.252,0,0,0-.8-8.467,27.853,27.853,0,0,1,1.557,8.982c-.083,4.66-1.968,9.208-6.6,10.114-7,1.332-14.583-6.391-18.158-12.6C3892.554,1394.437,3897.5,1380.088,3909.478,1385.169Z" transform="translate(-3896.772 -1376.242)" fill="#45364c"/>
                          <g id="Group_464" data-name="Group 464" transform="translate(0 7.917)">
                            <path id="Path_6332" data-name="Path 6332" d="M3924.407,1403.543a.15.15,0,0,0-.025-.088c-2-6.121-6.056-11.92-9.769-14.894-8.365-7.1-16.083-5.019-17.593,3.067a.013.013,0,0,0,0,.018c-2.586,12.351,10.542,31.812,21.665,30.382C3926.169,1421.065,3927.063,1411.1,3924.407,1403.543Zm-14.127,15.06c-.025,0-.686-.471-.706-.486-7.738-5.528-12.89-16.921-11.912-24.668.236-2.488,1.322-5.308,3.17-6.65v-.009a6.173,6.173,0,0,1,1.2-.757,8.643,8.643,0,0,1,6.925.023,9.335,9.335,0,0,1,.98.419,9.5,9.5,0,0,1,.987.5c1.573.55,6.607,4.495,9.736,9.948,3.614,6.017,4.686,12.365,4.2,15.824C3924.016,1421.171,3917.178,1423.259,3910.28,1418.6Zm10.316,1.649c2.3-1.163,3.9-3.665,4.265-7.505C3924.489,1416.454,3922.92,1419.036,3920.6,1420.251Z" transform="translate(-3896.69 -1384.237)" fill="#827b91"/>
                          </g>
                          <path id="Path_6333" data-name="Path 6333" d="M3987.78,1506.5a5.516,5.516,0,0,0,1.382-.988A8.21,8.21,0,0,1,3987.78,1506.5Z" transform="translate(-3960.042 -1460.669)" fill="#052440"/>
                        </g>
                        <g id="Group_466" data-name="Group 466" transform="translate(2.383 9.744)">
                          <path id="Path_6334" data-name="Path 6334" d="M3892.784,1354.5c2.668,5.334,6.351,12.663,14.067,28.068a2.153,2.153,0,1,0,3.566-1.96c-3.137-6.891-9.4-21.892-11.7-27.5l-4.9,1.153S3893.877,1354.243,3892.784,1354.5Z" transform="translate(-3892.784 -1353.105)" fill="#56485c"/>
                          <path id="Path_6335" data-name="Path 6335" d="M3892.784,1357.13c2.668,5.334,6.351,12.663,14.067,28.068a2.6,2.6,0,0,0,2.636,1.674l-15.137-29.536a4.067,4.067,0,0,0-.531-.446S3893.877,1356.875,3892.784,1357.13Z" transform="translate(-3892.784 -1355.737)" fill="#827b91"/>
                          <path id="Path_6336" data-name="Path 6336" d="M3892.784,1354.5q1.341,2.681,2.682,5.357c.022-.015,2.067-1.435,3.652-2.491a8.17,8.17,0,0,0,1.032-.805c-.884-2.12-1.429-3.453-1.429-3.453l-4.9,1.153S3893.877,1354.243,3892.784,1354.5Z" transform="translate(-3892.784 -1353.105)" fill="#273133"/>
                        </g>
                        <g id="Group_468" data-name="Group 468">
                          <g id="Group_467" data-name="Group 467">
                            <path id="Path_6337" data-name="Path 6337" d="M3885.36,1340.991c1.385-5.212,4.791-8.606,10.279-9a14.042,14.042,0,0,1,8.308,2.069,36.241,36.241,0,0,1,13.1,14.054,7.259,7.259,0,0,0,8.855-5.319,33.557,33.557,0,0,0-12.233-17.884,26.219,26.219,0,0,0-7.5-3.753C3904.361,1320.567,3881.685,1325.308,3885.36,1340.991Z" transform="translate(-3884.958 -1321.108)" fill="#fa5b50"/>
                            <path id="Path_6338" data-name="Path 6338" d="M3885.36,1340.99c1.455.609,2.909,1.213,4.364,1.822a8.75,8.75,0,0,1,3.93-3.335,9.066,9.066,0,0,1,.954-.32,11.985,11.985,0,0,1,5.653.392c-.266-2.343-.454-4.755-.547-7.234a.072.072,0,0,0,.017-.022,15.89,15.89,0,0,1,3.642-3.323,32.644,32.644,0,0,1,10.295-4.062,26.238,26.238,0,0,0-7.5-3.753C3904.352,1320.56,3881.686,1325.311,3885.36,1340.99Z" transform="translate(-3884.958 -1321.106)" fill="#dd4c42"/>
                            <path id="Path_6339" data-name="Path 6339" d="M3886.278,1365.43c1.455.609,2.909,1.213,4.364,1.822a8.173,8.173,0,0,1,6.938-3.911,13.882,13.882,0,0,1,3.992.746,19.072,19.072,0,0,1,9.734,7.285c.127.023,6.538,1.178,6.658,1.18,0,0-.017-.033-.048-.1-3.978-9.016-11.847-16.309-21.566-16.2a9.3,9.3,0,0,0-5.287,1.308C3889.414,1358.649,3887.408,1361.178,3886.278,1365.43Z" transform="translate(-3885.876 -1345.546)" fill="#bf3329"/>
                          </g>
                        </g>
                      </g>
                    </g>
                  </g>
                </g>
                <g id="Group_479" data-name="Group 479">
                  <g id="Group_475" data-name="Group 475" transform="translate(54.007 12.046)">
                    <g id="Group_474" data-name="Group 474">
                      <g id="Group_473" data-name="Group 473">
                        <path id="Path_6340" data-name="Path 6340" d="M3844.625,1202.48c.01.033.021.076.031.109v.011a90.678,90.678,0,0,1,1.925,9.208,99.18,99.18,0,0,1,1.15,12.483c1.809,1.167,4.048-2.041,5.74-2.975a.01.01,0,0,1,.011-.011,15.03,15.03,0,0,1,3.09-1.311c3.9-2.1,14.126-1.44,18.34-4.709,4.446-3.471,3.714-12.7,3.714-12.693a85.45,85.45,0,0,0-6.75-20.443,62.833,62.833,0,0,0-9.742-13.978c-1.075-.668-5.24-3.7-8.725-2.841a7.149,7.149,0,0,0-1.252.432c-2.5,1.132-3.821.915-5.835,1.9a22.646,22.646,0,0,0-6.366,8.586C3837.417,1184.319,3841.551,1190.9,3844.625,1202.48Z" transform="translate(-3839.167 -1165.179)" fill="#fa5b50"/>
                      </g>
                    </g>
                  </g>
                  <path id="Path_6341" data-name="Path 6341" d="M3661.817,1210.939c.3,3.975,3.081,7.336,5.588,9.5,9.4,8.092,45.794,24.427,49.364,23.645,8.186-1.778,12.071-12.9,13.349-17.086a.011.011,0,0,1,.011-.011l.022-.064c-2.317-11.286-4.694-20.066-6.5-26.168-2.212-7.465-5.678-18.105-1.4-22.1.946-.886,3.279-2.382,2.952-3.754-.2-.849-1.337-1.311-2.234-1.552a22.644,22.644,0,0,0-6.366,8.586c-2.539,8.067,1.6,14.649,4.669,26.228.01.033.021.076.031.109v.011c2.036,6.744,3.128,18.132,3.075,21.691h-.011c-1.161,3.661-3.462,8.878-8.1,10.6-5.247,1.941-44.928-17.655-50.622-25.887-.914-1.3-2.285-6.891-2.285-6.891A3.635,3.635,0,0,0,3661.817,1210.939Z" transform="translate(-3661.807 -1158.815)" fill="#dd4c42"/>
                  <g id="Group_477" data-name="Group 477" transform="translate(72.371 26.597)">
                    <path id="Path_6342" data-name="Path 6342" d="M3899.913,1223.379a10.965,10.965,0,0,0,4.031,6.226,4.975,4.975,0,0,0,4.157.941c3.245-.855,4.857-5.453,3.586-10.272a12.5,12.5,0,0,0-1.772-3.911c-1.71-2.5-4.161-3.852-6.416-3.255C3900.254,1213.962,3898.642,1218.56,3899.913,1223.379Z" transform="translate(-3899.478 -1212.967)" fill="#dd4c42"/>
                    <g id="Group_476" data-name="Group 476" transform="translate(2.277 2.327)">
                      <path id="Path_6343" data-name="Path 6343" d="M3908.627,1234.1c.162.279.334.555.518.819a4.971,4.971,0,0,0,4.154.941c3.247-.855,4.859-5.454,3.587-10.273a12.434,12.434,0,0,0-1.772-3.912,5,5,0,0,0-4.145-.929C3906.668,1221.892,3905.721,1229.051,3908.627,1234.1Z" transform="translate(-3906.956 -1220.61)" fill="#fff"/>
                      <path id="Path_6344" data-name="Path 6344" d="M3908.628,1234.244c.126-.022.254-.046.38-.08,4.225-1.113,5.3-8.178,2.339-13.351C3906.914,1221.462,3905.528,1228.855,3908.628,1234.244Z" transform="translate(-3906.956 -1220.751)" fill="#e0e5f6"/>
                    </g>
                  </g>
                  <g id="Group_478" data-name="Group 478" transform="translate(54.276)">
                    <path id="Path_6345" data-name="Path 6345" d="M3840.056,1135.212c-.15,1.311,4.247,6.237,5.154,7.3s6.018,1.673,6.818,1.153c.132-.085.318-.2.526-.329a8.97,8.97,0,0,0,4.115-6.069.042.042,0,0,1,.011-.032c.482-2.9-.763-4.831-1.306-6.345-1.154-2.643-2.28-4.276-4.262-5.249a5.64,5.64,0,0,0-2.438.5,12.84,12.84,0,0,0-5.531,3.5,30.892,30.892,0,0,0-2.477,3.923A5.445,5.445,0,0,0,3840.056,1135.212Z" transform="translate(-3840.052 -1125.62)" fill="#dd4c42"/>
                    <path id="Path_6346" data-name="Path 6346" d="M3842.068,1133.562c.409,1.655,4.273,5.976,5.115,6.976.906,1.066,6.019,1.662,6.818,1.153.131-.085.318-.2.526-.339a9.25,9.25,0,0,0,3.543-4.082.042.042,0,0,1,.011-.032,7.962,7.962,0,0,0-.427-4.151c-1.424-3.619-2.7-7.058-5.141-7.443a5.64,5.64,0,0,0-2.438.5,12.81,12.81,0,0,0-5.531,3.5A12.616,12.616,0,0,0,3842.068,1133.562Z" transform="translate(-3841.454 -1125.62)" fill="#fa5b50"/>
                  </g>
                </g>
              </g>
            </g>
          </g>
          <g id="Group_483" data-name="Group 483" transform="translate(101.431 145.339)">
            <path id="Path_6347" data-name="Path 6347" d="M3832.373,1421.18c-2.712-1.262.478,6.005.646,6.388l-7.679-2.834c.385.226,37.575,22.072,38.1,22l-12.232-9.042c-1.056-1.3-8.525-10.46-10.107-10.937-1.655-.5-.284,4.415-.212,4.673C3839.456,1429.2,3834.773,1422.3,3832.373,1421.18Z" transform="translate(-3825.339 -1421.033)" fill="#f3e5e2"/>
          </g>
        </g>
      </g>
    </g>
  </g>
</svg>
