<svg id="Group_566" data-name="Group 566" xmlns="http://www.w3.org/2000/svg" xmlns:xlink="http://www.w3.org/1999/xlink" width="257.219" height="331.795" viewBox="0 0 257.219 331.795">
  <defs>
    <linearGradient id="linear-gradient" x1="0.868" y1="-0.208" x2="0.313" y2="0.774" gradientUnits="objectBoundingBox">
      <stop offset="0" stop-color="#fcede6"/>
      <stop offset="1" stop-color="#fff"/>
    </linearGradient>
    <linearGradient id="linear-gradient-2" x1="0.641" y1="0.235" x2="0.033" y2="0.844" xlink:href="#linear-gradient"/>
    <linearGradient id="linear-gradient-3" x1="0.556" y1="0.475" x2="0.257" y2="1.622" xlink:href="#linear-gradient"/>
    <linearGradient id="linear-gradient-4" x1="0.587" y1="0.375" x2="0.34" y2="0.818" xlink:href="#linear-gradient"/>
  </defs>
  <g id="Group_488" data-name="Group 488" transform="translate(141.554 23.771)">
    <path id="Path_6348" data-name="Path 6348" d="M5000.561,221.684l-.47,181.092-82.26-47.491-2.291-43.695-1.7-32.287-5.826-111.048,6.106,3.524,79.354,45.817Z" transform="translate(-4908.018 -168.256)" fill="#e0e5f6"/>
    <g id="Group_487" data-name="Group 487" transform="translate(5.74 27.228)">
      <path id="Path_6349" data-name="Path 6349" d="M5006.588,303.493l-.123,47.272-77.817,46.722-1.781,1.07.086-33.357.28-107.525Z" transform="translate(-4926.867 -257.675)" fill="#f2f4fa"/>
    </g>
  </g>
  <path id="Path_6350" data-name="Path 6350" d="M4443.148,869.532l69.771-40.074c3.2-1.849,3.219-4.845.036-6.7l-15.463-8.951,88.5-15.081-98.419,55.191Z" transform="translate(-4443.148 -582.976)" fill="url(#linear-gradient)"/>
  <path id="Path_6351" data-name="Path 6351" d="M4938.353,829.992,4785.33,889.9l11.591-19.651c.891-.5,34.356-19.32,63.41-35.66-13.937-.715-31.065-6.645-30.976-19.55.075-11.443,15.764-19.13,32.38-19.389L4813.7,767.922l8.52-4.95C4934.373,827.723,4905.028,810.793,4938.353,829.992Z" transform="translate(-4681.135 -558.108)" fill="url(#linear-gradient-2)"/>
  <path id="Path_6352" data-name="Path 6352" d="M5190.7,938.434l-8.52,4.953-.043-.025-.058-.032.1-.057,1.311-.744s0,0,.007,0Z" transform="translate(-4957.073 -680.142)" fill="#fcede6"/>
  <g id="Group_489" data-name="Group 489" transform="translate(118.065 0)">
    <path id="Path_6353" data-name="Path 6353" d="M4970.034,176.972v185.1l-23.592-13.591V167.712l-92.072-53.751V294.731l-23.489-13.591V98.189a7.988,7.988,0,0,1,12-6.905l117,68.051A20.4,20.4,0,0,1,4970.034,176.972Z" transform="translate(-4830.881 -90.189)" fill="#fff1d4"/>
  </g>
  <g id="Group_507" data-name="Group 507" transform="translate(50.753 23.772)">
    <g id="Group_492" data-name="Group 492" transform="translate(0.42 139.761)">
      <g id="Group_491" data-name="Group 491" transform="translate(0 31.467)">
        <g id="Group_490" data-name="Group 490" style="mix-blend-mode: multiply;isolation: isolate">
          <path id="Path_6354" data-name="Path 6354" d="M4704.823,743.972l5.355,3.093-5.366,3.024h-.007l-.33.187-.083.047-.043.018-1.473.837-.083.047-.054.029-.259.147-88.125,15.017-3.15-1.828,0-1.056.535-.3,2.611-.083,2.151-.068c5.765-3.258-2.564,1.466,54.445-30.882a14.846,14.846,0,0,1,13.473,0l8.2,4.73,1.933,1.117.822.474,5.966,3.441.553.323,1.009.582.007,0,1.889,1.085Z" transform="translate(-4611.202 -730.582)" fill="url(#linear-gradient-3)"/>
          <path id="Path_6355" data-name="Path 6355" d="M5160.518,929.507c-.032.032-.129.108-.27.212,0,0,0,0-.007,0-.187.136-.453.316-.736.485l-.574.327-.043.021-.058-.032-10.179-5.88,0-.862c3.829-2.155,6.243-3.513,6.684-3.761,2.338,1.354,1.706.987,3.613,2.087l.51.291a7.6,7.6,0,0,1,1.422,1.049C5162.942,925.416,5162.611,927.862,5160.518,929.507Z" transform="translate(-4984.996 -862.336)" fill="url(#linear-gradient-4)"/>
        </g>
      </g>
      <path id="Path_6356" data-name="Path 6356" d="M4898.27,636.055c.045-.041.108-.148-.034-.6a4.6,4.6,0,0,0-1.259-1.909c-.753-.759-1.4-1.378-1.885-1.837.087-.559.784-4,.827-4.463a6.612,6.612,0,0,0-.93,9.788l2.81,1.628a14.343,14.343,0,0,0,1.763.722c.382.126.761.232.873.084.067-.089.014-.235-.009-.3-.236-.643-1.78-1.623-2.174-1.869-1.687-1.611-2.208-2.2-2.149-2.269C4896.2,634.911,4897.916,636.378,4898.27,636.055Z" transform="translate(-4807.361 -627.242)" fill="#ffd4c7"/>
    </g>
    <g id="Group_506" data-name="Group 506">
      <g id="Group_498" data-name="Group 498" transform="translate(81.811)">
        <g id="Group_497" data-name="Group 497" style="isolation: isolate">
          <g id="Group_493" data-name="Group 493" transform="translate(10.282 21.876)">
            <path id="Path_6357" data-name="Path 6357" d="M4912.687,245.05l8.519-4.951-.426,165.152-8.519,4.951Z" transform="translate(-4912.261 -240.1)" fill="#ba6748"/>
          </g>
          <g id="Group_494" data-name="Group 494" transform="translate(92.543 53.428)">
            <path id="Path_6358" data-name="Path 6358" d="M5191.4,343.717l-.471,181.092-8.52,4.953v-.115l.021-8.358.449-172.619Z" transform="translate(-5182.41 -343.717)" fill="#ce7757"/>
          </g>
          <g id="Group_495" data-name="Group 495" transform="translate(0.472)">
            <path id="Path_6359" data-name="Path 6359" d="M4880.043,173.209l8.519-4.951,92.542,53.429-8.519,4.951Z" transform="translate(-4880.043 -168.258)" fill="#df8767"/>
          </g>
          <g id="Group_496" data-name="Group 496" transform="translate(0 4.952)">
            <path id="Path_6360" data-name="Path 6360" d="M4971.507,237.951l-.449,172.619-.021,8.358v.115l-.043-.025-.058-.032-10.179-5.88,0-.862.42-164.29L4897.695,211.3l-8.495-4.9v.144l-.316,123.44,0,1.34-.083,31.762-.021,8.311v.154l-.136-.079-10.147-5.855.021-8.47.388-148.773,0-2.392.058-21.458Z" transform="translate(-4878.493 -184.522)" fill="#ee9d7f"/>
          </g>
        </g>
      </g>
      <g id="Group_505" data-name="Group 505" transform="translate(0 25.118)">
        <g id="Group_503" data-name="Group 503">
          <g id="Group_502" data-name="Group 502" style="isolation: isolate">
            <g id="Group_499" data-name="Group 499" transform="translate(0.001)">
              <path id="Path_6361" data-name="Path 6361" d="M4612.975,268.495l-3.151-1.831,89.489-15.915,3.151,1.831Z" transform="translate(-4609.824 -250.749)" fill="#df8767"/>
            </g>
            <g id="Group_500" data-name="Group 500" transform="translate(0 15.914)">
              <path id="Path_6362" data-name="Path 6362" d="M4613.4,469.042l-3.15-1.828,0-1.056-.42-163.148,3.15,1.832.417,160.931Z" transform="translate(-4609.822 -303.01)" fill="#ee9d7f"/>
            </g>
            <g id="Group_501" data-name="Group 501" transform="translate(3.15 1.83)">
              <path id="Path_6363" data-name="Path 6363" d="M4709.657,256.759l-.41,123.483,0,1.329-.1,31.755-.028,8.308v.154l-.4.068-88.125,15.017-.007-3.269-.417-160.931,79.07-14.062,10.3-1.832Z" transform="translate(-4620.167 -256.759)" fill="#ce7757"/>
            </g>
          </g>
        </g>
        <g id="Group_504" data-name="Group 504" transform="translate(15.883 84.395)">
          <ellipse id="Ellipse_14" data-name="Ellipse 14" cx="3.918" cy="3.957" rx="3.918" ry="3.957" transform="translate(0 0.359)" fill="#ba6748"/>
          <ellipse id="Ellipse_15" data-name="Ellipse 15" cx="3.489" cy="3.524" rx="3.489" ry="3.524" transform="translate(0.07)" fill="#ee9d7f"/>
        </g>
      </g>
    </g>
  </g>
  <g id="Group_531" data-name="Group 531" transform="translate(27.767 116.89)">
    <g id="Group_509" data-name="Group 509" transform="translate(32.462 23.918)">
      <g id="Group_508" data-name="Group 508">
        <path id="Path_6364" data-name="Path 6364" d="M4686.811,618.17l-22.877,13.295-.087-.051.019-.011-22.919-13.237c5.427-3.183-.649.361,22.838-13.291Z" transform="translate(-4640.945 -588.96)" fill="#c49a6c" style="mix-blend-mode: screen;isolation: isolate"/>
        <path id="Path_6365" data-name="Path 6365" d="M4686.808,565.908c-1.239.725-2.9,1.7-4.9,2.863h0c-5.055,2.95-9.327,5.378-17.969,10.432l-.088-.051.019-.011L4640.944,565.9c4.969-2.922,4.993-2.913,22.839-13.295C4663.786,552.613,4686.806,565.908,4686.808,565.908Z" transform="translate(-4640.943 -552.61)" fill="#feca50"/>
        <path id="Path_6366" data-name="Path 6366" d="M4712.79,580.986c-11.077,6.451-13.519,7.756-22.883,13.289-10.88-6.307-5.279-3.083-11.6-6.714,9.733-5.746,14.054-8.152,22.843-13.309C4701.15,574.253,4711.465,580.231,4712.79,580.986Z" transform="translate(-4666.93 -567.663)" fill="#ffd779"/>
        <path id="Path_6367" data-name="Path 6367" d="M4739.355,596.284l-22.858,29.2V609.567c4.108-2.418,7.444-4.352,9.768-5.692,1.883-1.086,2.923-1.679,5.1-2.94C4734.773,598.968,4737.534,597.353,4739.355,596.284Z" transform="translate(-4693.491 -582.985)" fill="#feca50"/>
        <path id="Path_6368" data-name="Path 6368" d="M4739.345,596.289V612.2l-7.984,4.647-5.105,2.959-.789.459-2.284,1.328-6.7,3.895.005-.008,1.434-1.829,5.276-6.734,2.288-2.919.77-.984,3.362-4.3,1.743-2.231,4.988-6.366Z" transform="translate(-4693.48 -582.989)" fill="#f2b94e"/>
        <path id="Path_6369" data-name="Path 6369" d="M4663.949,625.319v.152l-23.006-13.287V596.272l.119.069C4641.756,597.64,4663.357,624.216,4663.949,625.319Z" transform="translate(-4640.943 -582.977)" fill="#dca43a"/>
        <path id="Path_6370" data-name="Path 6370" d="M4663.949,609.559v15.912c-.188-.351-22.809-28.827-23.006-29.2C4641.209,596.427,4663.683,609.4,4663.949,609.559Z" transform="translate(-4640.943 -582.977)" fill="#f2b94e"/>
      </g>
    </g>
    <g id="Group_530" data-name="Group 530">
      <g id="Group_529" data-name="Group 529">
        <path id="Path_6371" data-name="Path 6371" d="M4577.371,1021.512c-14.022.695-35.392-4.818-35.294-19.03.109-16.731,34.541-25.208,54.769-13.287C4616.262,1000.638,4604,1020.194,4577.371,1021.512Z" transform="translate(-4539.719 -828.458)" fill="#fcede6"/>
        <g id="Group_528" data-name="Group 528">
          <g id="Group_514" data-name="Group 514" transform="translate(4.599 77.055)">
            <g id="Group_510" data-name="Group 510" transform="translate(2.925 79.965)">
              <path id="Path_6372" data-name="Path 6372" d="M4574.861,994.959a7.35,7.35,0,0,1-2.16,4.084,10.076,10.076,0,0,0-1.855,2.12,3.605,3.605,0,0,0-.218.423,3.828,3.828,0,0,0-.243.644,25.72,25.72,0,0,1-1.429,3.962c-1.53,2.835-6.181,4.143-8.821,1.469-.845-.844-1.365-3.542-.94-5.855.768-4.176,11.85-14.014,14.769-11.75C4575.056,990.9,4575.11,993.513,4574.861,994.959Z" transform="translate(-4559.044 -989.722)" fill="#ab6454"/>
              <path id="Path_6373" data-name="Path 6373" d="M4571.9,1026.933a12.663,12.663,0,0,0-1.1,2.9,11.789,11.789,0,0,1-.847,2.241c-1.53,2.835-6.181,4.143-8.821,1.469a.6.6,0,0,1-.046-.05c-.006,0-.006-.006-.009-.009a4.545,4.545,0,0,1-.349-.551.069.069,0,0,1-.015-.025,3.645,3.645,0,0,1-.234-.52l.019.009c2.483,1.382,5.45,1.612,7.766-.274C4569.712,1030.946,4570.087,1029.576,4571.9,1026.933Z" transform="translate(-4560.044 -1015.602)" fill="#a84549" opacity="0.3" style="mix-blend-mode: multiply;isolation: isolate"/>
            </g>
            <path id="Path_6374" data-name="Path 6374" d="M4549.627,764.29c.119,1.926.284,3.647.584,6.335.972,8.612,2.354,15.026,2.216,15.937a51.046,51.046,0,0,0-1.525,9.713c-.343,5.824.669,5.971.938,15.139.149,5.207-.107,9.178.676,17.741a7.307,7.307,0,0,0,6.481,1.037,7.208,7.208,0,0,0,4.311-4.415,131.67,131.67,0,0,1-.51-19.264,112.888,112.888,0,0,1,1.33-13.284s0-.009,0-.012c.492-2.825,1.006-4.885,1.146-5.457,1.721-7.071,4.118-23.614,4.118-23.614l.647-.4v0c.841-.523,2.844-1.776,3.284-2.051-.088-6.9-.232-7.756-.4-17.879-4.354-.477-17.264-1.8-22.443-2.33q-.229,1.77-.391,3.424A124.4,124.4,0,0,0,4549.627,764.29Z" transform="translate(-4549.439 -737.107)" fill="#526aa1"/>
            <path id="Path_6375" data-name="Path 6375" d="M4558.681,851.99c.1,1.046.184,2.134.263,3.259a7.308,7.308,0,0,0,6.481,1.037,7.211,7.211,0,0,0,4.311-4.415,131.671,131.671,0,0,1-.511-19.264c.067-5.072.41-9.979,1.33-13.284,0,0,0-.009,0-.012.492-2.825,1.006-4.885,1.146-5.457,1.721-7.071,4.118-23.614,4.118-23.614l.648-.4v0c-.009-.058-.116-.758-.119-.767-.522-3.039-1.9-10-4.032-10.067-.608-.021-1.869.5-3.524,5.454a44.988,44.988,0,0,0,.868,13.452,80.955,80.955,0,0,0-3.782,17.182c-1.92,17.943,2.819,31.165-3.623,35.647A7.429,7.429,0,0,1,4558.681,851.99Z" transform="translate(-4555.867 -763.201)" fill="#526aa1" opacity="0.3" style="mix-blend-mode: multiply;isolation: isolate"/>
            <g id="Group_511" data-name="Group 511" transform="translate(25.79 96.79)">
              <path id="Path_6376" data-name="Path 6376" d="M4634.616,1052.821c.48,1.507.416,1.978.9,2.645,8.443,3.752,23.088,1.084,25.384-.468a9.392,9.392,0,0,0,2.161-1.981,8.516,8.516,0,0,0,.661-1.045v0c0-.006,0-.012.006-.012a0,0,0,0,1,0,0c.04-.076.077-.15.113-.223a.024.024,0,0,1,.006-.016c2.9-5.98-4.9-3.124-15.4-6.206-2.914-.856-7.414-1.04-14.158,2.281A11.06,11.06,0,0,0,4634.616,1052.821Z" transform="translate(-4634.134 -1044.977)" fill="#ab6454"/>
              <path id="Path_6377" data-name="Path 6377" d="M4635.718,1066.6c.48,1.507.416,1.978.9,2.645,8.46,3.76,23.1,1.074,25.384-.468a10.611,10.611,0,0,0,2.161-1.981c.256-.384.661-1.045.661-1.045v0c0-.006,0-.012.006-.012a0,0,0,0,1,0,0,.037.037,0,0,0,.012,0c.034-.073.067-.149.1-.226a.024.024,0,0,1,.006-.016c.1-.232.192-.48.266-.7-3.467,2.764-3.467,2.764-5.124,3.388-1.012.379-4.562,1.562-14.43,1.308A16.41,16.41,0,0,1,4635.718,1066.6Z" transform="translate(-4635.235 -1058.759)" fill="#a84549" opacity="0.3" style="mix-blend-mode: multiply;isolation: isolate"/>
            </g>
            <g id="Group_513" data-name="Group 513" transform="translate(0.648)">
              <g id="Group_512" data-name="Group 512" transform="translate(10.847)">
                <path id="Path_6378" data-name="Path 6378" d="M4615.886,772.1a.068.068,0,0,1,0,.037c0,.043,0,.086,0,.128-.142,9.873-.262,50.453-.092,52.172a17.229,17.229,0,0,1-1.1,1.44c-1.756,2.034-3.863,3.431-6.56,3.351a1.376,1.376,0,0,1-.563-.079,11.829,11.829,0,0,1-6.022-2.406c.336-3.357.642-7.085.807-9.529.478-7.089-1.171-13.529-1.229-28.86a193.09,193.09,0,0,0-5.638-21.092c-2.672-7.838-4.6-7.673-6.151-13.244-.675-2.363-1.165-9.11-1.165-11.77a26.338,26.338,0,0,1,.229-3.4c-5.063-18.453,6.958-9.717,13.152-9.324a37.629,37.629,0,0,0,8.557-.483,58.327,58.327,0,0,1,4.537,15.573,176.053,176.053,0,0,1,1.253,17.646v.058C4615.969,765.622,4615.932,768.894,4615.886,772.1Z" transform="translate(-4587.188 -727.113)" fill="#526aa1"/>
              </g>
              <path id="Path_6379" data-name="Path 6379" d="M4591.112,772.183a.078.078,0,0,1,0,.037c0,.043,0,.086,0,.128-.008.308-.4,49.029-.091,52.172-.074.113-.153.22-.229.327s-.153.211-.229.315-.152.2-.232.3c-.131.165-.263.327-.391.48a.038.038,0,0,0-.015.016c-.175.2-.349.394-.526.578-.046.049-.092.095-.141.144a10.9,10.9,0,0,1-2.009,1.6c-.073.043-.144.086-.217.125s-.138.073-.205.107-.159.083-.235.119a6.29,6.29,0,0,1-3.836.636.044.044,0,0,0,.045-.04,11.831,11.831,0,0,1-6.023-2.406q.129-1.215.229-2.382c1.694.544,3.938.874,5.7-.269a6.013,6.013,0,0,0,2.308-3.568c2.61-9.124,1.156-59.185-1.305-75.987a34.482,34.482,0,0,1-17.585-.7c-.947-.29-1.853-.614-2.715-.963A34.532,34.532,0,0,1,4551.567,735c.113-1.1.242-2.244.395-3.424,2.917.294,5.861.59,8.79.9q1.206.128,2.412.263v-.015c.962-9.631,4.334-3.79,13.189-3.146l.428.027a42.067,42.067,0,0,0,9.9-.721c1.106,8.713,2.216,8.114,3.195,15.766,0,.015,0,.034.006.049.006.037.009.073.012.11.507,4.066,1.006,13.079,1.238,17.533v.058c.012.177.019.348.028.51C4591.28,766.637,4591.2,769.141,4591.112,772.183Z" transform="translate(-4551.567 -727.198)" fill="#526aa1" opacity="0.3" style="mix-blend-mode: multiply;isolation: isolate"/>
            </g>
          </g>
          <g id="Group_518" data-name="Group 518" transform="translate(0 25.8)">
            <g id="Group_517" data-name="Group 517">
              <g id="Group_515" data-name="Group 515" transform="translate(0 4.608)">
                <path id="Path_6380" data-name="Path 6380" d="M4536.539,575.545c-2.758,8.986-3.142,23.795.089,27.147,6.153,6.382,26.959,1.133,34.241-11.821a22.409,22.409,0,0,0,2.446-6.726c-.81.579-10.585,7.312-22.012,3.057C4537.041,581.892,4538.932,569.508,4536.539,575.545Z" transform="translate(-4534.336 -573.924)" fill="#dd4c42"/>
              </g>
              <path id="Path_6381" data-name="Path 6381" d="M4542.786,615.711a32.3,32.3,0,0,0,19.021,9.117,34.958,34.958,0,0,0,15.791-1.746c1.082-.385,2.118-.789,3.234-1.312-3.907-21.061-4.219-15.913-3.84-24.626.009-.229.018-.468.03-.715v-.025c.006-.351-.006-2.476.211-5.7a.254.254,0,0,1,0-.046c.547-8.151,3.066-10.434,2.974-13.421a4.942,4.942,0,0,0-.134-1.018,6.024,6.024,0,0,0-.661-1.648s0-.006,0-.009c-.061-.1-.125-.211-.193-.315-2.033-3.174-7.047-6.026-13.739-9.1q-1.288-.6-2.663-1.2c-2.253-1-4.656-2.024-7.172-3.1-.116-.049-.5-.186-1.061-.382-.2-.07-.416-.143-.654-.229-.425-.143-.908-.312-1.434-.492-2.749-.938-4.084-1.143-5.7-.822-13.9,2.889-3.525,26.182-2.681,41.279A55.809,55.809,0,0,1,4542.786,615.711Z" transform="translate(-4537.999 -558.791)" fill="#fa5b50"/>
              <path id="Path_6382" data-name="Path 6382" d="M4596.769,568.48q-1.289-.6-2.663-1.2a8.578,8.578,0,0,1-5.341-.211,5.177,5.177,0,0,1-2.819-2.837,1.219,1.219,0,0,1-.073-.431c-.2-.07-.416-.143-.654-.229a3.283,3.283,0,0,0-.61,1.5c-.241,1.927,1.5,3.423,1.834,3.707,2.5,2.148,6.117,1.335,6.955,1.146A10.149,10.149,0,0,0,4596.769,568.48Z" transform="translate(-4569.284 -562.117)" fill="#dd4c42"/>
              <path id="Path_6383" data-name="Path 6383" d="M4631.554,670.672c-1.115.523-2.152.927-3.234,1.314a36.265,36.265,0,0,1-8.457,1.861,32.871,32.871,0,0,1-7.333-.115c3.861-1.56,7-.706,8.027-13.6.668-8.417-1.926-12-2.281-31.022q5.1,1.77,10.2,3.533a.382.382,0,0,1,.081.121,55.115,55.115,0,0,0-.594,6.807c0,.325-.212,5.747-.212,5.768C4627.32,655.049,4627.549,649.06,4631.554,670.672Z" transform="translate(-4588.72 -607.694)" fill="#dd4c42"/>
              <g id="Group_516" data-name="Group 516" transform="translate(60.952 28.82)">
                <path id="Path_6384" data-name="Path 6384" d="M4741.1,662.209c-.158.11-.321.214-.478.315a18.253,18.253,0,0,1-4.75,2.144q-.683-2.054-1.368-4.11a15.084,15.084,0,0,1,.952-1.987c.237-.421.468-.785.684-1.1a8.448,8.448,0,0,1,1.837-2.225,2.924,2.924,0,0,0,.927-.853c.233-.373.249-.651.56-.832a1.1,1.1,0,0,1,.744-.1,1.153,1.153,0,0,1,.639.359c.347.428.06,1.467-.833,2.465a2.456,2.456,0,0,0,.819.474c1.575.521,3.523-.78,4.37-1.346a5.607,5.607,0,0,1,2.213-1.1c.389-.075.9-.174,1.048.022.227.3-.345,1.4-4.169,5.088A18.245,18.245,0,0,1,4741.1,662.209Z" transform="translate(-4734.506 -653.437)" fill="#ffcfcd"/>
                <path id="Path_6385" data-name="Path 6385" d="M4740.624,674.251a18.253,18.253,0,0,1-4.75,2.144q-.683-2.054-1.368-4.11a15.084,15.084,0,0,1,.952-1.987,6.292,6.292,0,0,1,2.832,2.021,6.065,6.065,0,0,1,.917,1.656Z" transform="translate(-4734.506 -665.164)" fill="#ffcfcd" opacity="0.5" style="mix-blend-mode: multiply;isolation: isolate"/>
              </g>
              <path id="Path_6386" data-name="Path 6386" d="M4667.115,629.027c-1.741,2.277-19.169,19.03-25.546,13.551-2.355-2.023-4.1-6.183-5.229-9.67-1.121-3.456-1.138-3.924-4.939-21.426,1.326-3.775,5.468-8.311,8.812-7.651a4.7,4.7,0,0,1,2.542,1.666c3.066,3.392,1.451,10.579,5.916,25.874.322-.141,14.726-6.751,14.726-6.751a9.5,9.5,0,0,1,2.42,1.478A3.936,3.936,0,0,1,4667.115,629.027Z" transform="translate(-4601.844 -590.071)" fill="#fa5b50"/>
            </g>
          </g>
          <g id="Group_527" data-name="Group 527" transform="translate(12.602)">
            <g id="Group_526" data-name="Group 526">
              <g id="Group_525" data-name="Group 525">
                <g id="Group_524" data-name="Group 524">
                  <g id="Group_523" data-name="Group 523">
                    <g id="Group_522" data-name="Group 522">
                      <g id="Group_519" data-name="Group 519" transform="translate(0.91 3.071)">
                        <path id="Path_6387" data-name="Path 6387" d="M4596.8,508.759c-1.217.861-2.379-.025-3.544.363-1.451-.088-1.758,2.338-1.328,3.766-5,3.129-11.717-.121-10.623-3.841a14.007,14.007,0,0,0,.554-4.84c-.3-4.823-3.128-6.431-3.152-10.885,0-5.054,8.6-10.554,15.65-8.863a10.024,10.024,0,0,1,5.669,3.422C4603.347,492.174,4599,507.164,4596.8,508.759Z" transform="translate(-4578.71 -484.147)" fill="#ffcfcd"/>
                      </g>
                      <path id="Path_6388" data-name="Path 6388" d="M4597.592,555.743c-5,3.129-11.717-.121-10.623-3.841a13.79,13.79,0,0,0,.564-3.281c1.654.862,6.626-2.677,6.892-2.856a5.416,5.416,0,0,0,.247,3.86c.7,1.138,2.938,2.079,4.247,2.353C4597.469,551.889,4597.162,554.315,4597.592,555.743Z" transform="translate(-4583.462 -523.931)" fill="#ffcfcd" opacity="0.5" style="mix-blend-mode: multiply;isolation: isolate"/>
                      <g id="Group_521" data-name="Group 521">
                        <g id="Group_520" data-name="Group 520">
                          <path id="Path_6389" data-name="Path 6389" d="M4576.3,489.539c.744,2.277,1.646,2.644,2.328,5.177a15.479,15.479,0,0,1,.507,4.89c3.056,2.762,7.9.512,8.793-3.529a8.671,8.671,0,0,1-.6-2.244c-.444-4.275,3.885-3.567,3.617-1.2-.378,3.328,3.367-4.411,3.367-4.411a4.269,4.269,0,0,1,.809-1.246c1.274-1.434,2.761-1.257,3.8-1.7,1.479-.665-.025-7.024-5.584-9.856a12.511,12.511,0,0,0-12.485.665c-.07.043-.105.065-.113.093A11.926,11.926,0,0,0,4576.3,489.539Z" transform="translate(-4575.723 -474.062)" fill="#545a73"/>
                        </g>
                        <path id="Path_6390" data-name="Path 6390" d="M4576.3,489.539c.744,2.277,1.646,2.644,2.328,5.177a15.479,15.479,0,0,1,.507,4.89,4.39,4.39,0,0,0,1.743.987,16.423,16.423,0,0,0-.416-7.9c-.911-2.828-3.605-4.973-.61-11.962,2.545-5.987,10.98-5.644,13.48-5.314a12.511,12.511,0,0,0-12.485.665c-.07.043-.105.065-.113.093A11.926,11.926,0,0,0,4576.3,489.539Z" transform="translate(-4575.723 -474.062)" fill="#545a73" opacity="0.3" style="mix-blend-mode: multiply;isolation: isolate"/>
                      </g>
                    </g>
                  </g>
                </g>
              </g>
            </g>
          </g>
        </g>
      </g>
    </g>
  </g>
  <g id="Group_565" data-name="Group 565" transform="translate(118.104 88.609)">
    <g id="Group_558" data-name="Group 558">
      <g id="Group_557" data-name="Group 557">
        <g id="Group_538" data-name="Group 538" transform="translate(0 26.396)">
          <g id="Group_536" data-name="Group 536" transform="translate(0 0.638)">
            <g id="Group_535" data-name="Group 535" transform="translate(0 25.744)">
              <path id="Path_6391" data-name="Path 6391" d="M4847.1,561.247a4.159,4.159,0,0,1,.971.562,5.175,5.175,0,0,1,1.792,4.623.011.011,0,0,1,0,.008,3.061,3.061,0,0,1-.984,1.9c-1.016.915-3.271,1.182-4.649,1.2,0,0-.631,0-.741,0a.38.38,0,0,0-.038,0c-.045-.012-.588.039-.634.043-1,.107-2.655,1.751-4.875,1.821-1.017.035-2.023-.329-2.061-.6-.057-.355,1.25-.262,3.074-1.4.275-.177,1.6-1.1,1.521-1.43l0,0c-.1-.137-.923.3-2.858.963a7.825,7.825,0,0,1-4.21.433c-1.169-.356.847-1.162,1.928-1.58a14.16,14.16,0,0,0,2.084-.848c2.5-1.391.481-.924-4.169.081a2.224,2.224,0,0,1-1.813-.168.951.951,0,0,1-.423-.783c.107-.515,1.176-.563,2.785-.838a13.81,13.81,0,0,0,3.73-.966,10.556,10.556,0,0,0-3.152.049c-1.843.187-2.347.4-2.525.088a1.07,1.07,0,0,1,.114-.937c.788-.688,1.292-.532,4.678-1.4h0a13.624,13.624,0,0,0,3.418-1.125s.026-.037.106-.132c0,0,0,0,0,0,1.125-.366,2.4-.589,3.031.045s.061,1.6.725,2.545a3.006,3.006,0,0,0,3.626.794C4847.995,563.934,4847.434,562.324,4847.1,561.247Z" transform="translate(-4831.007 -558.654)" fill="#ffcfcd"/>
              <path id="Path_6392" data-name="Path 6392" d="M4847.1,561.247a4.159,4.159,0,0,1,.971.562,5.175,5.175,0,0,1,1.792,4.623.011.011,0,0,1,0,.008,3.061,3.061,0,0,1-.984,1.9c-1.016.915-3.271,1.182-4.649,1.2,0,0-.631,0-.741,0a.38.38,0,0,0-.038,0c-.045-.012-.588.039-.634.043-1,.107-2.655,1.751-4.875,1.821-1.017.035-2.023-.329-2.061-.6-.057-.355,1.25-.262,3.074-1.4.275-.177,1.6-1.1,1.521-1.43l0,0c-.1-.137-.923.3-2.858.963a7.825,7.825,0,0,1-4.21.433c-1.169-.356.847-1.162,1.928-1.58a14.16,14.16,0,0,0,2.084-.848c2.5-1.391.481-.924-4.169.081a2.224,2.224,0,0,1-1.813-.168.951.951,0,0,1-.423-.783c.107-.515,1.176-.563,2.785-.838a13.81,13.81,0,0,0,3.73-.966,10.556,10.556,0,0,0-3.152.049c-1.843.187-2.347.4-2.525.088a1.07,1.07,0,0,1,.114-.937c.788-.688,1.292-.532,4.678-1.4h0a13.624,13.624,0,0,0,3.418-1.125s.026-.037.106-.132c0,0,0,0,0,0,1.125-.366,2.4-.589,3.031.045s.061,1.6.725,2.545a3.006,3.006,0,0,0,3.626.794C4847.995,563.934,4847.434,562.324,4847.1,561.247Z" transform="translate(-4831.007 -558.654)" fill="#ffcfcd" opacity="0.5" style="mix-blend-mode: multiply;isolation: isolate"/>
              <g id="Group_534" data-name="Group 534" transform="translate(5.682)">
                <g id="Group_533" data-name="Group 533">
                  <g id="Group_532" data-name="Group 532">
                    <path id="Path_6393" data-name="Path 6393" d="M4853.422,554.511a7.757,7.757,0,0,1-2.171.6c-.882.11-1.45.028-1.565.338s.369,1.083,1.025,1.3c1.144.382,1.688-.054,2.719.2,1.851.454,1.612,2.963,3.855,4.011.177.083,1.793.812,2.833.038a2.579,2.579,0,0,0,.719-2.808,2.887,2.887,0,0,0-.757-1.089c-1.542-1.554-3.683-2.016-5.546-2.4C4854.046,554.609,4853.65,554.545,4853.422,554.511Z" transform="translate(-4849.667 -554.511)" fill="#ffcfcd"/>
                  </g>
                </g>
              </g>
            </g>
            <path id="Path_6394" data-name="Path 6394" d="M4918.182,483.195c-.633,8.091-6.464,17.382-7.548,18.333-3.1,2.733-6.713,3.089-12.263,3.538-6.9.567-9.758.617-13.583.832a7.218,7.218,0,0,0,.294-4.17,10.883,10.883,0,0,0-1.21-3.419s0,0,0,0a66.983,66.983,0,0,0,19.273-4.03,226.4,226.4,0,0,0,7.225-23.1c1.571-1.306,2.425-1.3,2.9-1.117,1.958.754.625,5.811,3.792,11.4A17.953,17.953,0,0,0,4918.182,483.195Z" transform="translate(-4867.772 -469.966)" fill="#ffcfcd"/>
            <path id="Path_6395" data-name="Path 6395" d="M4918.215,499.127c-.634,8.091-6.464,17.382-7.548,18.333-3.1,2.733-6.713,3.089-12.263,3.538-6.9.567-9.758.617-13.583.832a7.217,7.217,0,0,0,.294-4.17,11.237,11.237,0,0,0-1.2-3.405,22.256,22.256,0,0,1,2.058,2.493,5.858,5.858,0,0,0,.948,1.16c1.387,1.472,4.664,1.528,4.664,1.528,1.887.082,11.4-.656,12.481-1.077a5.036,5.036,0,0,0,3-2.681c.741-2.229-1.536-4.712-1.269-7.2a31.857,31.857,0,0,1,1.909-7.252,51.9,51.9,0,0,0,2.562-8.347c1.135.751,2.288,1.484,3.412,2.256,1.067.733,2.13,1.465,3.413,2.256C4917.464,497.971,4917.837,498.542,4918.215,499.127Z" transform="translate(-4867.804 -485.898)" fill="#ffcfcd" opacity="0.5" style="mix-blend-mode: multiply;isolation: isolate"/>
          </g>
          <g id="Group_537" data-name="Group 537" transform="translate(37.549)">
            <path id="Path_6396" data-name="Path 6396" d="M4954.32,484.8s3.951,2.155,5.627,2.155,1.556-18.618,1.5-19.037-2.078,1.789-2.078,1.789Z" transform="translate(-4954.32 -467.87)" fill="#fd81b7"/>
            <path id="Path_6397" data-name="Path 6397" d="M4965.239,494.278c-.158,4.939-.542,10.071-1.422,10.071a12.177,12.177,0,0,1-3.934-1.3,69.67,69.67,0,0,0,3.215-10.172C4963.809,493.344,4964.527,493.808,4965.239,494.278Z" transform="translate(-4958.189 -485.26)" fill="#ed68a3"/>
          </g>
        </g>
        <g id="Group_541" data-name="Group 541" transform="translate(41.692 152.659)">
          <path id="Path_6398" data-name="Path 6398" d="M4990.388,887.94a14.814,14.814,0,0,0-1.179-4.863,4.148,4.148,0,0,0-.2-.554c-2.228,1.507-3.3,1.191-6.015,1.191-.818,0-1.227-1.108-1.665-1-.029.055-.643,1.164-.7,1.219-.029,0-.029.028-.059.028-7.085,5.343-11.15,5.364-12.5,7.923,0,.017,0,.026,0,.043,0-.02-.011-.032-.011-.052-1.01,3.514,5,4.6,8.667,3.621,5.068-1.313,4.247-2.808,8.8-2.831a5.037,5.037,0,0,0,4.43-2.565,8.063,8.063,0,0,0,.454-2.235C4990.4,887.9,4990.395,887.911,4990.388,887.94Z" transform="translate(-4967.936 -882.523)" fill="#fd81b7"/>
          <path id="Path_6399" data-name="Path 6399" d="M4989.942,902.311a4.755,4.755,0,0,1-2.243,2.078c-1.846.9-2.456.151-4.781.767-1.969.537-1.948,1.173-4.725,2.1a13.063,13.063,0,0,1-2.789.7c-3.538.4-8.284-.664-7.361-3.875.128,3.253,4.3,3.234,7.5,2.869a13.078,13.078,0,0,0,2.79-.7c2.776-.929,2.755-1.566,4.725-2.1,2.325-.616,2.935.133,4.781-.767a4.663,4.663,0,0,0,2.243-2.078,9.8,9.8,0,0,0,.317-1.23A8.551,8.551,0,0,1,4989.942,902.311Z" transform="translate(-4967.927 -894.731)" fill="#ed68a3"/>
          <g id="Group_540" data-name="Group 540" transform="translate(12.688)">
            <g id="Group_539" data-name="Group 539">
              <path id="Path_6400" data-name="Path 6400" d="M5018.442,883.853c-1.2,1.828-5.606,2.909-8.848.083.384-.639.7-1.213.7-1.219,0,.028,0,.028.029.028a8.614,8.614,0,0,0,1.635.97h.059c.087.028.146.083.233.111a4.862,4.862,0,0,0,4.438-.526v-.028l.088-.083c.029,0,.029-.028.059-.055a4.372,4.372,0,0,0,1.139-.61C5018.01,882.556,5018.426,883.808,5018.442,883.853Z" transform="translate(-5009.594 -882.523)" fill="#ed68a3"/>
            </g>
          </g>
        </g>
        <g id="Group_545" data-name="Group 545" transform="translate(65.797 161.161)">
          <g id="Group_542" data-name="Group 542">
            <path id="Path_6401" data-name="Path 6401" d="M5057.608,912.45a4.834,4.834,0,0,0-7.308-.61c-.175.171-1.553,9.774-2.408,12.289a9.086,9.086,0,0,0-.726,3.363c-.162,1.024.514,1.572,1.547,1.882,3.245,1.035,7.751.358,9.269-3.6v-.017a6.17,6.17,0,0,0,.438-2.181C5058.6,920.145,5058.59,915.73,5057.608,912.45Z" transform="translate(-5047.126 -910.447)" fill="#fd81b7"/>
            <path id="Path_6402" data-name="Path 6402" d="M5048.676,959.361c3.754,1.187,7.894-.013,9.269-3.6v-.017a7.124,7.124,0,0,0,.438-2.181l-.019.017c-1.515,4.728-6.881,6.223-11.221,3.756C5046.882,958.412,5047.585,959.035,5048.676,959.361Z" transform="translate(-5047.089 -940.434)" fill="#ed68a3"/>
            <path id="Path_6403" data-name="Path 6403" d="M5062.034,917.455a5.086,5.086,0,0,1-3.883.681c-2.313-.329-3.187-2.219-2.236-3.656.693-1.045,2.313-1.294,7.454.559C5063.617,916.249,5062.2,917.332,5062.034,917.455Z" transform="translate(-5052.964 -912.688)" fill="#ed68a3"/>
          </g>
          <g id="Group_544" data-name="Group 544" transform="translate(3.587 2.446)">
            <g id="Group_543" data-name="Group 543">
              <path id="Path_6404" data-name="Path 6404" d="M5058.876,918.479v.007C5058.867,918.477,5058.866,918.479,5058.876,918.479Z" transform="translate(-5058.869 -918.479)" fill="#ffcfcd"/>
            </g>
          </g>
        </g>
        <g id="Group_547" data-name="Group 547" transform="translate(45.759 68.327)">
          <path id="Path_6405" data-name="Path 6405" d="M4999.045,690.6c-2.617,1.931-4.064,2.2-6.4,1.772a3.975,3.975,0,0,1-2.951-2.3c-.266-3.586.1-25.639-3.718-34.212-.806-1.809-1.525-6.171-2.933-13.469-2.429-12.588-2.618-24.62,1.137-36.816,2.918,1.359-1.056.261,13.633,7.1,0,3.39.453,22.362-.666,39.495C5003.605,665.778,4998.228,670.792,4999.045,690.6Z" transform="translate(-4981.283 -605.575)" fill="#7f6490"/>
          <path id="Path_6406" data-name="Path 6406" d="M5018.936,711.381c-2.617,1.931-4.064,2.2-6.4,1.772a3.928,3.928,0,0,1-2.336-1.329c4.236-.07,5.542-1.012,5.925-1.892.837-1.926,2.384-20.208.546-27.365-3.335-13.014-2.333-.19-4.11-20.541q-1.09-12.505-2.683-24.188l7.768-2.382c-.18,11.776.161,25.727-.607,37.5C5023.5,686.561,5018.119,691.575,5018.936,711.381Z" transform="translate(-5001.174 -626.358)" fill="#6c5280"/>
          <g id="Group_546" data-name="Group 546" transform="translate(0.187 1.762)">
            <path id="Path_6407" data-name="Path 6407" d="M5012.934,703.4c-.025.028-.025.144-.035.187,0,.114-.043.235-.043.326a.091.091,0,0,0-.01.046c-.266,2.516-3.473,3.543-6.042,3.323l-.035.025a5.315,5.315,0,0,1-2.483-.939,1.819,1.819,0,0,1-.344-1.329c.284-24.145-.276-30.454-2.87-38.695a11.7,11.7,0,0,0-.9-1.861c-1.612-4.376-4.146-28.832-4.821-32a2.966,2.966,0,0,0-.266-.663,18.336,18.336,0,0,1-4.439-7.5,29.929,29.929,0,0,1-8.752-1.835c12.282-2.654,21.052-4.538,21.052-4.538.681-1.141,1.195-1.966,1.63-2.64,3.854-2.753,4.347-3.282,5.856-3.925a.1.1,0,0,1,.036-.018l.01-.008a22.605,22.605,0,0,1,3.343,4.68.821.821,0,0,0,.076.1c1.831,3.3,2.315,7.763,2.359,11.516.1,3.928-1.262,15.323-1.324,15.385-.015.094-.048.319-.1.656a.006.006,0,0,1,0,.008c-.041.253-1.88,15.387-2.452,18.242,0,.166.76,2.275.76,2.275.089.245.154.43.177.486,0,0,0,.008,0,.01a.009.009,0,0,1,0,.008c.368,1.028,2.715,9.8,2.942,13.876a7.012,7.012,0,0,1-.005,1.177C5016.689,682.231,5013.306,700.46,5012.934,703.4Z" transform="translate(-4981.897 -611.361)" fill="#7f6490"/>
            <path id="Path_6408" data-name="Path 6408" d="M5016.1,695.894c-.046.253-1.306,7.372-1.306,8.023a.091.091,0,0,0-.01.046c-.266,2.516-3.473,3.543-6.042,3.323h-.035a5.451,5.451,0,0,0,2.994-1.782c2.305-2.67,3.315-20.548,3.315-20.548.584-3.766.964-6.317.291-9.665-.744-3.741-1.767-4.574-3.29-9.661-3.449-11.82,7.379-42.9-5.3-41.216-10.6,1.4-20.5-3.238-22.037-7.124.706-.152,7.674,3.171,8.549,3.171a15.127,15.127,0,0,0,7.241-1.552l4.414-.957c.68-1.141,1.194-1.966,1.629-2.64,2.7-1.928,4.842-3.637,5.856-3.925a.092.092,0,0,1,.036-.018l.01-.008a23.034,23.034,0,0,1,3.343,4.68s0,.005,0,.008a16.557,16.557,0,0,1,.82,1.691c2.76,6.953,1.377,17.915.288,25.3,0,.005,0,.008,0,.01-.02.154-.053.377-.1.656a0,0,0,0,1,0,.008c-.033.253-1.914,15.557-2.451,18.242,0,0,3.9,11.119,3.9,17.5C5018.34,683.394,5016.137,695.64,5016.1,695.894Z" transform="translate(-4983.834 -611.361)" fill="#6c5280"/>
          </g>
        </g>
        <g id="Group_550" data-name="Group 550" transform="translate(38.728 25.082)">
          <g id="Group_549" data-name="Group 549">
            <g id="Group_548" data-name="Group 548">
              <path id="Path_6409" data-name="Path 6409" d="M4997.6,515.2a4.934,4.934,0,0,1-2.693,2.574l-.018.018c-5.857,2.536-19.414,3.406-25.679-.792-.986-.663-3.416-2.593-3.583-3.751-.015-.018-.015-.018,0-.035a4.123,4.123,0,0,1,.336-1.984,13.638,13.638,0,0,0,.977-5.35c0-4.918-1.035-7.144-4.846-11.243-.005,0-.509-.544-.84-.873a11.2,11.2,0,0,1-2.928-5.571c-.615-3.181,1.03-5.221,2.439-9.86,2.372-7.818-.339-10.24,2.02-12.794,3.654-3.955,12.708-1.079,17.774.737a45.73,45.73,0,0,1,8.776,3.961,28.671,28.671,0,0,1,5.777,4.434c3.7,3.738,1.661,11.454-.045,16.766-.124.278-.233.511-.321.694,0,.018-.018.033,0,.051a21.28,21.28,0,0,0-1,10.62,16.594,16.594,0,0,0,2.476,6.849s0,.018.015.018C4997.229,511.085,4998.35,512.682,4997.6,515.2Z" transform="translate(-4958.19 -463.554)" fill="#fd81b7"/>
            </g>
            <path id="Path_6410" data-name="Path 6410" d="M5006.508,548.413a4.933,4.933,0,0,1-2.692,2.575l-.017.017c-5.859,2.537-19.42,3.4-25.678-.791-.976-.656-3.416-2.591-3.584-3.752-.018-.017-.018-.017,0-.034a4.1,4.1,0,0,1,.336-1.986,14.185,14.185,0,0,0,.993-5.334c-.045-4.177-.272-6.325-4.863-11.257a6.039,6.039,0,0,0,1.195.606c2.531.9,9.935,4.738,14.4,2.5,3.782-1.9,6.079-17.523,12.334-19.515.128-.041.246-.068.247-.068,1.759-.365,3.382.951,3.767,1.243,2.02,1.531,1.5,6.955.714,12.727a21.038,21.038,0,0,0-1,10.67,16.6,16.6,0,0,0,2.474,6.849.017.017,0,0,0,.017.017C5006.176,544.349,5007.25,545.929,5006.508,548.413Z" transform="translate(-4967.101 -496.767)" fill="#ed68a3"/>
            <path id="Path_6411" data-name="Path 6411" d="M5003.206,471.778c-.595.81-3.449,4.366-7.879,4-6.241-.511-7.881-5.9-5.729-9.838.79-1.341.79-1.364.79-1.364a7.6,7.6,0,0,1,1.68-.534,56.091,56.091,0,0,1,12.627,3.644A6.262,6.262,0,0,1,5003.206,471.778Z" transform="translate(-4979.41 -463.896)" fill="#ed68a3"/>
          </g>
        </g>
        <g id="Group_556" data-name="Group 556" transform="translate(42.903)">
          <g id="Group_551" data-name="Group 551" transform="translate(7.318 14.317)">
            <path id="Path_6412" data-name="Path 6412" d="M4995.979,445.42c-.137-3.634-.012-7.905,1.292-11.143,1.272-3.159,3.906-6.411,5.254-6.048,1.661.447,1.512,3.16,4.452,7.783a45.06,45.06,0,0,0,.685,5.085,4.293,4.293,0,0,1-.516,3.957C5003.915,450.33,4996.141,449.753,4995.979,445.42Z" transform="translate(-4995.935 -428.202)" fill="#ffcfcd"/>
            <path id="Path_6413" data-name="Path 6413" d="M4995.979,445.42c-.137-3.634-.012-7.905,1.292-11.143,1.272-3.159,3.906-6.411,5.254-6.048,1.661.447,1.512,3.16,4.452,7.783a45.06,45.06,0,0,0,.685,5.085,4.293,4.293,0,0,1-.516,3.957C5003.915,450.33,4996.141,449.753,4995.979,445.42Z" transform="translate(-4995.935 -428.202)" fill="#ffcfcd" opacity="0.5" style="mix-blend-mode: multiply;isolation: isolate"/>
          </g>
          <g id="Group_555" data-name="Group 555">
            <g id="Group_552" data-name="Group 552" transform="translate(1.528 4.021)">
              <path id="Path_6414" data-name="Path 6414" d="M4998.866,399.176a38.615,38.615,0,0,1-1.189,9.247,14.551,14.551,0,0,1-3.311,5.559c-2.333,2.782-3.888,4.64-7.957,5.356-1.66.283-2.936.2-4.1-1.05-4.161-4.465-4.317-7.507-4.835-10.5-.774-4.509-.6-5.61-.316-6.439a6.923,6.923,0,0,1,1.615-2.57c3.179-1.476,6.347-2.933,9.529-4.393Z" transform="translate(-4976.923 -394.388)" fill="#ffcfcd"/>
              <path id="Path_6415" data-name="Path 6415" d="M4998.6,426.305c-1.5,1.788-2.8,3.408-4.889,4.4a14.347,14.347,0,0,0,.038-11.825,9.632,9.632,0,0,1-10.74-4.8,12.9,12.9,0,0,1,9.583-1.639c1.034.254,6.551,1.61,7.775,6.406C5001.319,422.6,4998.98,425.8,4998.6,426.305Z" transform="translate(-4981.153 -406.713)" fill="#ffcfcd" opacity="0.5" style="mix-blend-mode: multiply;isolation: isolate"/>
            </g>
            <g id="Group_554" data-name="Group 554">
              <g id="Group_553" data-name="Group 553">
                <path id="Path_6416" data-name="Path 6416" d="M4997.295,412.038c-.276.047-4.026.625-5.977-1.771a6.4,6.4,0,0,1-.876-5.564c.481-1.674,1.577-2.733,1.663-4.849a1.807,1.807,0,0,0-.453-1.526,1.378,1.378,0,0,0-1.021-.223,2.685,2.685,0,0,0-.417.086c-1.954.628-1.843,4.149-2.241,4.087-.481-.072-.115-4.748-1.8-5.567-.585-.284-.819-.151-2.32-.032a8.94,8.94,0,0,1-3.6-.561,15.087,15.087,0,0,1-5.438-3.448,13.1,13.1,0,0,0-.808,3.5,19.012,19.012,0,0,0,1.186,7.514c-5.311-7.011-4.042-16.5,2.708-20.707a11.475,11.475,0,0,1,8.588-1.534,12.363,12.363,0,0,1,9.813,10.65C4997.627,400.1,4992.945,403.381,4997.295,412.038Z" transform="translate(-4971.904 -381.184)" fill="#545a73"/>
                <path id="Path_6417" data-name="Path 6417" d="M5011,412.038c-.277.047-4.026.625-5.977-1.771a6.4,6.4,0,0,1-.876-5.564c.481-1.674,1.577-2.733,1.663-4.849a1.807,1.807,0,0,0-.452-1.526,1.378,1.378,0,0,0-1.021-.223c.628-4.245,1.038-9.031-1.717-12.169-2.938-3.348-8.085-3.308-11.012-2.956a11.474,11.474,0,0,1,8.588-1.534,12.362,12.362,0,0,1,9.813,10.65C5011.33,400.1,5006.647,403.381,5011,412.038Z" transform="translate(-4985.606 -381.184)" fill="#545a73" opacity="0.3" style="mix-blend-mode: multiply;isolation: isolate"/>
              </g>
            </g>
          </g>
        </g>
      </g>
    </g>
    <g id="Group_564" data-name="Group 564" transform="translate(23.905 37.664)">
      <g id="Group_563" data-name="Group 563">
        <g id="Group_562" data-name="Group 562">
          <g id="Group_561" data-name="Group 561">
            <g id="Group_560" data-name="Group 560" transform="translate(0 33.188)">
              <g id="Group_559" data-name="Group 559">
                <path id="Path_6418" data-name="Path 6418" d="M4926.439,620.7l-1.527,1.138a10.75,10.75,0,0,1-3.376.848,13.749,13.749,0,0,1-5.294-.636c-.952-.3-.9-.431-2.047-.776a3.941,3.941,0,0,1-2.108-1.052c-.054-.068-.3-.352-.219-.47.1-.158.654.144,1.329.223a3.416,3.416,0,0,0,1.717-.276c-1.182-.094-4.138-.413-5.079-1.57-.1-.122-.42-.532-.291-.729s.589-.076,1.538.079c.542.086,1.088.14,1.631.223a7.256,7.256,0,0,0,5.395-1.207,10.526,10.526,0,0,0-1.559-.837c-.941-.41-1.516-.5-1.616-.9a.925.925,0,0,1,.445-.887s4.856.679,5.122.708c3.7.408,4.12,1.008,6.408.539.438.338.506.363.657.65C4928.372,617.323,4927.584,619.313,4926.439,620.7Z" transform="translate(-4909.513 -613.867)" fill="#ffcfcd"/>
              </g>
            </g>
            <path id="Path_6419" data-name="Path 6419" d="M4994.55,553.727l-.021.043c-1.71,4.49-5.5,11.979-8.2,14.766-.837.862-2.094,1.864-12.191,4.156-4.892,1.11-9.062,1.825-14.389,2.669a8.03,8.03,0,0,0,1.275-1.243,5.221,5.221,0,0,0,1.361-4.055,2.756,2.756,0,0,0-.539-1.466c8.236-1.853,15.8-6.638,18.027-7.654.154-.679,2.255-5.474,3.9-9.766.589-1.53,1.117-3,1.48-4.192C4986.483,548.7,4987.05,553.576,4994.55,553.727Z" transform="translate(-4944.449 -534.163)" fill="#ffcfcd"/>
            <path id="Path_6420" data-name="Path 6420" d="M4987.076,553.727l-.021.043c-1.71,4.49-5.5,11.979-8.2,14.766-.837.862-2.094,1.864-12.19,4.156-4.892,1.11-9.062,1.825-14.389,2.669a10.713,10.713,0,0,1-3.272.8,5.324,5.324,0,0,0,3.543-1.851,5.411,5.411,0,0,0,1.077-4.37,4.945,4.945,0,0,1,.478,1.616,9.663,9.663,0,0,1-.087,1.936c.671-.141,11.909-2.371,18.976-4.3a10.379,10.379,0,0,0,3.832-1.8c1.861-1.444,2.745-3.279,4.131-6.228a42.55,42.55,0,0,0,1.976-5.029,16.323,16.323,0,0,1-2.457-1.257,16.682,16.682,0,0,1-4.174-3.71c.506-1.253,1.067-2.89,1.48-4.192C4979.009,548.7,4979.576,553.576,4987.076,553.727Z" transform="translate(-4936.976 -534.163)" fill="#ffcfcd" opacity="0.5" style="mix-blend-mode: multiply;isolation: isolate"/>
            <path id="Path_6421" data-name="Path 6421" d="M5049.812,524.44q-.8-.016-1.7-.118c-5.654-.664-7.914-3.078-8.908-4.461,1.049-3.466,2.979-9.236,5.1-12.151.675-.927,1.958-2.636,3.918-2.823a4.846,4.846,0,0,1,4.3,2.367,14.99,14.99,0,0,1,.625,3.064C5053.295,514.823,5051.55,520.231,5049.812,524.44Z" transform="translate(-4999.711 -504.876)" fill="#fd81b7"/>
          </g>
        </g>
      </g>
    </g>
  </g>
</svg>
